<svg xmlns="http://www.w3.org/2000/svg" xmlns:xlink="http://www.w3.org/1999/xlink" viewBox="0 0 36.05 131.33"><defs><style>.cls-1{fill:url(#未命名漸層_2);}.cls-2{fill:#006540;}.cls-3{fill:url(#未命名漸層_2-2);}.cls-4{fill:url(#未命名漸層_3);}.cls-5{fill:#006f4f;}</style><linearGradient id="未命名漸層_2" x1="-6288.12" y1="-3620.04" x2="-6270.69" y2="-3634.91" gradientTransform="matrix(-1, 0, 0, 1, -6257.75, 3655.84)" gradientUnits="userSpaceOnUse"><stop offset="0" stop-color="#ebf4e4"/><stop offset="0.08" stop-color="#bddfba"/><stop offset="0.17" stop-color="#91cb91"/><stop offset="0.22" stop-color="#80c381"/><stop offset="0.34" stop-color="#63ae73"/><stop offset="0.55" stop-color="#398f5d"/><stop offset="0.73" stop-color="#1a784d"/><stop offset="0.89" stop-color="#076a43"/><stop offset="1" stop-color="#006540"/></linearGradient><linearGradient id="未命名漸層_2-2" x1="-71.39" y1="252.84" x2="-53.96" y2="237.97" gradientTransform="matrix(1, 0, 0, -1, 77.02, 253.05)" xlink:href="#未命名漸層_2"/><linearGradient id="未命名漸層_3" x1="-47.46" y1="217.32" x2="-67.87" y2="248.82" gradientTransform="matrix(1, 0, 0, -1, 77.02, 253.05)" gradientUnits="userSpaceOnUse"><stop offset="0.18" stop-color="#004234"/><stop offset="0.27" stop-color="#0b5d45"/><stop offset="0.57" stop-color="#2db07a"/><stop offset="0.63" stop-color="#259c6d"/><stop offset="0.8" stop-color="#116b4e"/><stop offset="0.93" stop-color="#054d3b"/><stop offset="1" stop-color="#004234"/></linearGradient></defs><title>資產 1</title><g id="圖層_2" data-name="圖層 2"><g id="img"><path class="cls-1" d="M.34,21.57a1.51,1.51,0,0,1,1-1.46,1.82,1.82,0,0,1,1.3,0,1.64,1.64,0,0,1,.82.84h0l.07.23a18.23,18.23,0,0,0,2.92,5.31l.32.39a17.87,17.87,0,0,0,4.41,3.81h.06l.09.06h0a.37.37,0,0,0,.29,0,.38.38,0,0,0,.21-.49h0l-.08-.12-.1-.08a17.79,17.79,0,0,1-4.2-4.28l-.3-.45a19,19,0,0,1-1.21-2.16h0l-.14-.3h0a1.63,1.63,0,0,1,.91-2,1.72,1.72,0,0,1,.81-.11,1.43,1.43,0,0,1,1.1.61l.08.15v.08l.14.25h0c.14.25.29.49.44.74s.19.3.29.45a17.31,17.31,0,0,0,1.88,2.3,18,18,0,0,0,5.81,4.15h.16a.36.36,0,0,0,.25,0,.38.38,0,0,0,.2-.5.31.31,0,0,0-.12-.16h0l-.1-.05h0a18.19,18.19,0,0,1-6.3-5.72l-.22-.34L11,22.64h0a.22.22,0,0,1,0-.08h0a2.75,2.75,0,0,1-.17-.29,1.44,1.44,0,0,1-.05-1.08,1.62,1.62,0,0,1,.93-1l.22-.08h.38a1.53,1.53,0,0,1,1.11.42c.13.14.23.31.35.46h0a11.88,11.88,0,0,0,.93,1.07c.32.34.65.67,1,1s.7.61,1.07.9.74.55,1.12.81.74.46,1.11.68.67.36,1,.52a16.91,16.91,0,0,0,3.38,1.24h0a12.23,12.23,0,0,0,2.09.39,6.56,6.56,0,0,0,1,0,8.52,8.52,0,0,0,1.43-.08,10.25,10.25,0,0,0,1.45-.26l.4-.12.19-.06c.06,0,.15-.06.2-.06h0l.51-.18.23-.1c2-1,2.08-5.39,2.17-5.17a7.3,7.3,0,0,1,.33,4.52,11.53,11.53,0,0,1-1.91,3.72,15.24,15.24,0,0,1-2.36,2.39A18.06,18.06,0,0,1,1.56,25.36a.61.61,0,0,0-.05-.12A14.82,14.82,0,0,1,.34,21.57Z"/><path class="cls-2" d="M36.05,18.5a1.63,1.63,0,1,1-1.6-1.66,1.63,1.63,0,0,1,1.6,1.66Z"/><path class="cls-2" d="M3.26,17.49a1.63,1.63,0,1,1-1.6-1.66h0a1.63,1.63,0,0,1,1.59,1.65Z"/><path class="cls-3" d="M35.67,14.41a1.51,1.51,0,0,1-1,1.46,1.72,1.72,0,0,1-1.3,0,1.57,1.57,0,0,1-.82-.84h0a.83.83,0,0,0-.08-.23,18.2,18.2,0,0,0-2.89-5.27l-.32-.39a18.22,18.22,0,0,0-4.4-3.81h-.07l-.09-.06h0a.37.37,0,0,0-.29,0,.38.38,0,0,0-.21.5h0a.57.57,0,0,0,.08.13l.11.07a18.41,18.41,0,0,1,4.22,4.32c.11.15.2.3.3.45a18.32,18.32,0,0,1,1.21,2.16h0c.05.1.1.2.14.3h0a1.63,1.63,0,0,1-.91,2,1.74,1.74,0,0,1-.81.11,1.37,1.37,0,0,1-1.09-.67l-.09-.15v-.08l-.14-.25h0c-.14-.25-.29-.49-.44-.74s-.19-.3-.29-.45a17.73,17.73,0,0,0-1.9-2.33,18.14,18.14,0,0,0-5.81-4.15h-.17a.49.49,0,0,0-.24,0,.38.38,0,0,0-.21.5h0a.4.4,0,0,0,.12.16h0a.19.19,0,0,0,.1,0h0a18.19,18.19,0,0,1,6.3,5.72c.08.11.15.23.22.34l.05.07h0a.22.22,0,0,0,.05.08h0a1.69,1.69,0,0,1,.17.29,1.44,1.44,0,0,1,0,1.08,1.58,1.58,0,0,1-.92,1l-.23.08a1.2,1.2,0,0,1-.38.05,1.49,1.49,0,0,1-1.11-.42c-.13-.14-.23-.31-.35-.46h0c-.29-.37-.6-.73-.92-1.07s-.66-.67-1-1a13.06,13.06,0,0,0-1.07-.9c-.37-.29-.74-.55-1.12-.81a6.34,6.34,0,0,0-1-.61c-.41-.19-.67-.36-1-.52a19.17,19.17,0,0,0-3.37-1.24h0a14.93,14.93,0,0,0-2.1-.39c-.3,0-.62-.06-.93-.07a11.32,11.32,0,0,0-1.43.08,11.9,11.9,0,0,0-1.45.26l-.39.12-.2.06C6.11,8.94,6,9,6,9H6l-.51.18-.22.1c-2,1-2.09,5.39-2.18,5.17a7.29,7.29,0,0,1-.33-4.52A11.5,11.5,0,0,1,4.65,6.16,15.69,15.69,0,0,1,7,3.77a18.77,18.77,0,0,1,3.76-2.24A18,18,0,0,1,34.5,10.74,15.39,15.39,0,0,1,35.67,14.41Z"/><path class="cls-4" d="M33.23,22.46a4.39,4.39,0,0,0-.91-2.23c-1.42-1.91-4.71-2.66-6.43-3A24,24,0,0,0,23,16.9a19.68,19.68,0,0,0-2.66,0A10.14,10.14,0,0,1,17,16.71a5.48,5.48,0,0,1-3.94-2.84,2.67,2.67,0,0,1,1.34-3.54h0a3,3,0,0,1,1.62-.24c-.23-.12-.46-.22-.7-.32a19.25,19.25,0,0,0-2.55-.89L12,8.67c-2.69-.59-5.72-.4-7.47,1A4.39,4.39,0,0,0,3,11.94a4.07,4.07,0,0,0-.15,1.51,4.32,4.32,0,0,0,.91,2.23c1.37,2,4.68,2.68,6.38,3a20.67,20.67,0,0,0,2.94.33,16.87,16.87,0,0,0,2.66,0,11.08,11.08,0,0,1,3.25.19A5.48,5.48,0,0,1,22.94,22a2.7,2.7,0,0,1-1.22,3.61l-.08,0a3.6,3.6,0,0,1-1.68.29c.23.12.47.22.7.33a17.87,17.87,0,0,0,2.55.88l.86.2c2.69.6,5.78.35,7.53-1.07A4.31,4.31,0,0,0,33.08,24,4,4,0,0,0,33.23,22.46Z"/><path class="cls-5" d="M11.45,59.43a4.48,4.48,0,0,1-1.73-.34,3.83,3.83,0,0,1-1.33-.92,3.87,3.87,0,0,1-.86-1.38,4.86,4.86,0,0,1-.29-1.74,4.46,4.46,0,0,1,.32-1.73A3.86,3.86,0,0,1,8.45,52a4.21,4.21,0,0,1,1.34-.9,4.7,4.7,0,0,1,1.66-.31,4.39,4.39,0,0,1,1.72.33,4,4,0,0,1,1.31.92,4,4,0,0,1,.83,1.38,5.34,5.34,0,0,1,0,3.47,3.87,3.87,0,0,1-.84,1.37,3.49,3.49,0,0,1-1.32.9A4.19,4.19,0,0,1,11.45,59.43Zm0-2.07a2.44,2.44,0,0,0,1-.16,2.21,2.21,0,0,0,.78-.46,2.05,2.05,0,0,0,.51-.72,2.29,2.29,0,0,0,.2-.93,2.11,2.11,0,0,0-.19-.92,2.26,2.26,0,0,0-.5-.73,2.42,2.42,0,0,0-.77-.47,3.11,3.11,0,0,0-2,0,2.6,2.6,0,0,0-.79.46A2.18,2.18,0,0,0,9,55.06a2.44,2.44,0,0,0,.18.93,2.05,2.05,0,0,0,.51.72,2.26,2.26,0,0,0,.78.48A2.63,2.63,0,0,0,11.45,57.36Z"/><path class="cls-5" d="M11.45,92.38A4.14,4.14,0,0,1,9.72,92a3.71,3.71,0,0,1-1.34-.91,4.13,4.13,0,0,1-.85-1.39A4.65,4.65,0,0,1,7.24,88a4.84,4.84,0,0,1,.31-1.72,4.2,4.2,0,0,1,.87-1.37A4,4,0,0,1,9.77,84a4.7,4.7,0,0,1,3.46,0,3.84,3.84,0,0,1,2.13,2.3,4.88,4.88,0,0,1,.29,1.73,5.09,5.09,0,0,1-.31,1.73,4.16,4.16,0,0,1-.84,1.38,3.83,3.83,0,0,1-1.32.9A4.28,4.28,0,0,1,11.45,92.38Zm0-2.06a2.62,2.62,0,0,0,1-.16,2.23,2.23,0,0,0,.78-.47,2.05,2.05,0,0,0,.51-.72,2.38,2.38,0,0,0,0-1.85,2.24,2.24,0,0,0-1.27-1.2,3,3,0,0,0-2,0,2.41,2.41,0,0,0-.79.46,2.11,2.11,0,0,0-.51.71,2.38,2.38,0,0,0,0,1.85,2.52,2.52,0,0,0,.51.73,2.23,2.23,0,0,0,.78.47A2.59,2.59,0,0,0,11.45,90.32Z"/><path class="cls-5" d="M25.73,130.2a.74.74,0,0,1-.77.73h0a.72.72,0,0,1-.74-.7v0h0v-2.53H22.56v2.88h0a.82.82,0,0,1-.84.8h0a.8.8,0,0,1-.8-.82v-4.68h7.93v4.51h0a.82.82,0,0,1-.83.8.75.75,0,0,1-.73-.78v-2.72H25.72Z"/><path class="cls-5" d="M25.73,48.85a.74.74,0,0,1-.77.73h0a.73.73,0,0,1-.74-.72v0h0V46.29H22.56v2.88h0a.82.82,0,1,1-1.64,0h0V44.47h7.93V49h0a.81.81,0,0,1-.83.79h0a.75.75,0,0,1-.73-.78V46.31H25.72Z"/><path class="cls-5" d="M25.73,66.32a.74.74,0,0,1-.77.73h0a.73.73,0,0,1-.74-.72v0h0V63.77H22.56v2.87h0a.82.82,0,1,1-1.64,0h0V62h7.93v4.51h0a.82.82,0,0,1-.83.8.75.75,0,0,1-.73-.78V63.79H25.72Z"/><path class="cls-5" d="M26.45,72.91a.83.83,0,0,0,.46-.11.81.81,0,0,0,.27-.31,1.21,1.21,0,0,0,.13-.42,3.23,3.23,0,0,0,0-.44v-1H25.45v.92a4,4,0,0,0,0,.49,1.37,1.37,0,0,0,.13.45.83.83,0,0,0,.3.34A.75.75,0,0,0,26.45,72.91Zm2.44-4.18v3a5.91,5.91,0,0,1-.13,1.12,2.94,2.94,0,0,1-.41,1,2,2,0,0,1-.72.69,2.3,2.3,0,0,1-1.15.25,2,2,0,0,1-1.36-.42,2.31,2.31,0,0,1-.78-1.22l-2,1.2a.88.88,0,0,1-.52.13.93.93,0,0,1-.93-1,.94.94,0,0,1,.5-.82l2.66-1.45v-.62H21.82a.92.92,0,0,1-.92-.93v-.07a1,1,0,0,1,1-.92Z"/><path class="cls-5" d="M26.72,114.74l-2.72-1v2Zm2.13,0A1.4,1.4,0,0,1,28,116l-5.81,2.44h0a1,1,0,0,1-.33.07,1,1,0,0,1-.4-1.94l1-.37v-3.09l-.94-.34a1,1,0,0,1-.36-1.37,1,1,0,0,1,.71-.48,1,1,0,0,1,.33.06h0L28,113.46A1.45,1.45,0,0,1,28.85,114.74Z"/><path class="cls-5" d="M26.72,79.12l-2.72-1v2Zm2.13,0A1.4,1.4,0,0,1,28,80.41L22.2,82.85h0a.75.75,0,0,1-.33.07,1,1,0,0,1-.4-1.94l1-.34V77.56l-.94-.34a1,1,0,0,1-.36-1.37,1,1,0,0,1,.71-.48,1,1,0,0,1,.33.06h0L28,77.88A1.45,1.45,0,0,1,28.85,79.12Z"/><path class="cls-5" d="M20.91,121.38a1.29,1.29,0,0,0,.88,1.25l5.7,2.19h0a1,1,0,0,0,1.29-.57.88.88,0,0,0,.07-.33,1,1,0,0,0-.72-.94h0L23.2,121.4h0l4.93-1.61h0a1,1,0,1,0-.26-2,1.59,1.59,0,0,0-.38.07h0l-5.7,2.19A1.4,1.4,0,0,0,20.91,121.38Z"/><path class="cls-5" d="M22.57,88.11a.84.84,0,0,1-.86.83.82.82,0,0,1-.8-.86h0V83.94h7a1,1,0,0,1,1.23.71,1,1,0,0,1-.71,1.22.92.92,0,0,1-.52,0H22.58Z"/><path class="cls-5" d="M9.07,64.64a.84.84,0,0,1-1.68,0V60.46h7a1,1,0,1,1-.05,1.94H9v2.24Z"/><path class="cls-5" d="M8.45,77.54h5.31V79h0a.79.79,0,0,0,.79.81h0a.82.82,0,0,0,.82-.84h0V74.22a.82.82,0,0,0-.8-.84h0a.81.81,0,0,0-.81.79h0v1.46H8.45a1,1,0,0,0-1,1A1,1,0,0,0,8.45,77.54Z"/><path class="cls-5" d="M14.45,82.48a1,1,0,0,0,0-1.94h-6a1,1,0,0,0,0,1.94Z"/><path class="cls-5" d="M12.65,95.45H8.37a.91.91,0,0,1-.92-.9v0a1,1,0,0,1,1-.93h5.6A1.4,1.4,0,0,1,15.42,95a1.38,1.38,0,0,1-.63,1.14L10.25,99h4.27a.93.93,0,0,1,.91,1v0a.9.9,0,0,1-.93.87H8.83a1.38,1.38,0,0,1-1.38-1.38,1.41,1.41,0,0,1,.65-1.17Z"/><path class="cls-5" d="M26.28,105.77h0l-4.44-1.3h0a1.25,1.25,0,0,1,0-2.43l5.79-1.66h.23a1,1,0,0,1,1,.88v0a1,1,0,0,1-.71,1l-4.58,1.12h0l4.3,1.15a1.28,1.28,0,0,1,1,1.24,1.33,1.33,0,0,1-1,1.29l-4.3,1.15h0l4.58,1.12a1,1,0,0,1,.71.94.94.94,0,0,1-1,.91h0a.89.89,0,0,1-.23,0l-5.79-1.65a1.25,1.25,0,0,1,0-2.43h0l4.44-1.3h0Z"/><path class="cls-5" d="M20.9,55.73a1,1,0,0,0,.63.9l5,1.83H21.8a1,1,0,0,0-.89,1,.91.91,0,0,0,.93.89h5.42a1.58,1.58,0,0,0,1.59-1.57v0a1.68,1.68,0,0,0-1.07-1.53h0l-4-1.37h0l4-1.43h0a1.65,1.65,0,0,0,1.07-1.5,1.58,1.58,0,0,0-1.56-1.6H21.84a.9.9,0,0,0-.19,1.79h4.92l-5,1.78a1,1,0,0,0-.63.9"/><path class="cls-5" d="M28.85,92.72a7.11,7.11,0,0,1-.2,1.66A4.09,4.09,0,0,1,28,95.84a3.29,3.29,0,0,1-1.22,1,4.07,4.07,0,0,1-1.88.39,3.87,3.87,0,0,1-1.8-.39,3.54,3.54,0,0,1-1.24-1,4,4,0,0,1-.72-1.43,5.8,5.8,0,0,1-.23-1.61v-2a1,1,0,0,1,1-.93h6a1,1,0,0,1,1,.88v0Zm-4,2.54A2.39,2.39,0,0,0,26,95a1.79,1.79,0,0,0,.7-.58,2.32,2.32,0,0,0,.38-.83,4.71,4.71,0,0,0,.11-1v-1H22.57v1a4.15,4.15,0,0,0,.12,1,2,2,0,0,0,.38.84,1.93,1.93,0,0,0,.72.58A2.49,2.49,0,0,0,24.9,95.26Z"/><path class="cls-5" d="M7.25,69.22a4,4,0,0,0,.2,1.42,3,3,0,0,0,.66,1.07,2.6,2.6,0,0,0,1,.67,3.24,3.24,0,0,0,1.34.26h4a1,1,0,1,0,0-2H10.56a1.87,1.87,0,0,1-.57-.08,1.5,1.5,0,0,1-.52-.26,1.25,1.25,0,0,1-.36-.46,1.74,1.74,0,0,1,0-1.38A1.34,1.34,0,0,1,9.47,68a2,2,0,0,1,.52-.26,2.24,2.24,0,0,1,.57-.08h3.89a1,1,0,0,0,1-1,1,1,0,0,0-1-1h-4A4,4,0,0,0,9.18,66a3,3,0,0,0-1,.67,3,3,0,0,0-.73,1.17,4,4,0,0,0-.23,1.41Z"/><path class="cls-5" d="M8.5,44.46a.86.86,0,0,1,.86.84v0a.84.84,0,0,1-.15.49L9.08,46a2.12,2.12,0,0,0-.24,1,1.41,1.41,0,0,0,0,.41,1.14,1.14,0,0,0,.15.36.57.57,0,0,0,.27.24.7.7,0,0,0,.4.09A.58.58,0,0,0,10,48a1.28,1.28,0,0,0,.29-.32,3,3,0,0,0,.23-.52c.07-.21.15-.44.23-.7a7.71,7.71,0,0,1,.29-.75,3.05,3.05,0,0,1,.43-.65,2.27,2.27,0,0,1,.64-.46,2.39,2.39,0,0,1,.92-.17,2.25,2.25,0,0,1,1.13.27,2.38,2.38,0,0,1,.77.71,3.21,3.21,0,0,1,.45,1,4.69,4.69,0,0,1,.14,1.11,4.32,4.32,0,0,1-.25,1.38l-.1.25a.83.83,0,0,1-.76.51.85.85,0,0,1-.84-.86,1,1,0,0,1,.12-.42.54.54,0,0,0,.07-.13,1.86,1.86,0,0,0,.19-.77,2.54,2.54,0,0,0,0-.39.93.93,0,0,0-.13-.35.85.85,0,0,0-.24-.26.6.6,0,0,0-.39-.11.77.77,0,0,0-.34.08.68.68,0,0,0-.23.25,2.33,2.33,0,0,0-.19.39c-.05.15-.11.31-.17.5s-.19.55-.3.84a3.24,3.24,0,0,1-.43.8,2.23,2.23,0,0,1-.67.59,1.75,1.75,0,0,1-1,.24,2.54,2.54,0,0,1-1.18-.26,2.24,2.24,0,0,1-.83-.67,3.08,3.08,0,0,1-.48-1A4.22,4.22,0,0,1,7.26,47a4.67,4.67,0,0,1,.29-1.65c.06-.15.12-.29.19-.43A.87.87,0,0,1,8.5,44.46Z"/><path class="cls-5" d="M8.5,102a.87.87,0,0,1,.86.86h0a.84.84,0,0,1-.15.49l-.13.23a2.2,2.2,0,0,0-.24,1,1.41,1.41,0,0,0,0,.41,1.14,1.14,0,0,0,.15.36.57.57,0,0,0,.27.24.7.7,0,0,0,.4.09.58.58,0,0,0,.38-.11,1.28,1.28,0,0,0,.29-.32,3,3,0,0,0,.23-.52c.07-.21.15-.44.23-.7a7.71,7.71,0,0,1,.29-.75,3.05,3.05,0,0,1,.43-.65,2.27,2.27,0,0,1,.64-.46,2.39,2.39,0,0,1,.92-.17,2.25,2.25,0,0,1,1.13.27A2.38,2.38,0,0,1,15,103a3.21,3.21,0,0,1,.45,1,4.69,4.69,0,0,1,.14,1.11,4.32,4.32,0,0,1-.25,1.38l-.1.25a.84.84,0,0,1-.77.52.85.85,0,0,1-.84-.86,1,1,0,0,1,.12-.42.54.54,0,0,0,.07-.13A1.86,1.86,0,0,0,14,105a2.54,2.54,0,0,0,0-.39.93.93,0,0,0-.13-.35.85.85,0,0,0-.24-.26.6.6,0,0,0-.39-.11.77.77,0,0,0-.34.08.68.68,0,0,0-.23.25,2.33,2.33,0,0,0-.19.39c-.05.15-.11.31-.17.5s-.19.55-.3.84a3.24,3.24,0,0,1-.43.8,2.23,2.23,0,0,1-.67.59,1.75,1.75,0,0,1-1,.24,2.54,2.54,0,0,1-1.18-.26,2.24,2.24,0,0,1-.83-.67,3.08,3.08,0,0,1-.48-1,4.22,4.22,0,0,1-.15-1.13,4.67,4.67,0,0,1,.29-1.65c.06-.15.12-.29.19-.43A.88.88,0,0,1,8.5,102Z"/></g></g></svg>