<svg id="img" xmlns="http://www.w3.org/2000/svg" viewBox="0 0 84 52"><defs><style>.cls-1{fill:#262626;}.cls-2,.cls-3{fill:none;stroke-linecap:round;stroke-linejoin:round;}.cls-2{stroke:#262626;stroke-width:1.5px;}.cls-3{stroke:#231815;stroke-width:1.65px;}</style></defs><title>ICON_6e_1</title><path class="cls-1" d="M36.52,21.52a2,2,0,0,0-.75-.57,2.47,2.47,0,0,0-1-.2,2.74,2.74,0,0,0-1.08.22,2.66,2.66,0,0,0-.86.63,2.86,2.86,0,0,0-.56,1,3.56,3.56,0,0,0,0,2.41,2.91,2.91,0,0,0,.56,1,2.58,2.58,0,0,0,.84.63,2.54,2.54,0,0,0,1,.22,2.44,2.44,0,0,0,1.13-.26,2.36,2.36,0,0,0,.8-.74l1.72,1.28a3.58,3.58,0,0,1-1.51,1.22,4.56,4.56,0,0,1-1.87.4,5.71,5.71,0,0,1-2-.34,4.59,4.59,0,0,1-1.6-1,4.34,4.34,0,0,1-1-1.55,5.61,5.61,0,0,1,0-4.06,4.34,4.34,0,0,1,1-1.55,4.59,4.59,0,0,1,1.6-1,5.71,5.71,0,0,1,2-.34,4.7,4.7,0,0,1,.82.07,5.09,5.09,0,0,1,.85.23,4.15,4.15,0,0,1,.8.43,3.16,3.16,0,0,1,.68.64Z"/><path class="cls-1" d="M39,23.76a5.25,5.25,0,0,1,.37-2,4.34,4.34,0,0,1,1-1.55,4.59,4.59,0,0,1,1.6-1,6.17,6.17,0,0,1,4,0,4.69,4.69,0,0,1,1.6,1,4.45,4.45,0,0,1,1,1.55,5.61,5.61,0,0,1,0,4.06,4.45,4.45,0,0,1-1,1.55,4.69,4.69,0,0,1-1.6,1,6.17,6.17,0,0,1-4,0,4.59,4.59,0,0,1-1.6-1,4.34,4.34,0,0,1-1-1.55A5.25,5.25,0,0,1,39,23.76Zm2.13,0A3.38,3.38,0,0,0,41.29,25a2.82,2.82,0,0,0,.59,1,2.65,2.65,0,0,0,.91.63,3.29,3.29,0,0,0,1.2.22,3.19,3.19,0,0,0,1.19-.22,2.6,2.6,0,0,0,.92-.63,2.82,2.82,0,0,0,.59-1,3.73,3.73,0,0,0,0-2.41,2.77,2.77,0,0,0-.59-1,2.6,2.6,0,0,0-.92-.63A3.19,3.19,0,0,0,44,20.75a3.29,3.29,0,0,0-1.2.22,2.65,2.65,0,0,0-.91.63,2.77,2.77,0,0,0-.59,1A3.36,3.36,0,0,0,41.08,23.76Z"/><path class="cls-1" d="M51.24,26.67l2.45-2.09.38-.34a.56.56,0,0,0,.19-.38.41.41,0,0,0-.24-.4,1.19,1.19,0,0,0-.54-.12.87.87,0,0,0-.61.21.71.71,0,0,0-.26.51L51.26,24A1.73,1.73,0,0,1,52,22.6a2.67,2.67,0,0,1,1.59-.45,3.3,3.3,0,0,1,.85.11,2.34,2.34,0,0,1,.68.3,1.53,1.53,0,0,1,.45.5,1.48,1.48,0,0,1,.15.68,2.32,2.32,0,0,1,0,.57,1.14,1.14,0,0,1-.16.39,1.26,1.26,0,0,1-.25.31,3.67,3.67,0,0,1-.34.27L53,26.71v0h2.65v1.11H51.24Z"/><path class="cls-2" d="M42.53,45.57V35.7h-16c-4.15,0-8.41-4.26-8.41-9.51a9.49,9.49,0,0,1,8.07-9.39c0-.12,0-.23,0-.34a11.88,11.88,0,0,1,22.56-5.21c7.38-1.16,12.52,3.31,11.48,10.33A7.13,7.13,0,0,1,58.76,35.7H47.25"/><polyline class="cls-3" points="38.93 41.51 42.53 47.43 46.14 41.51"/></svg>