<svg id="img" xmlns="http://www.w3.org/2000/svg" viewBox="0 0 78 52"><defs><style>.cls-1{fill:none;stroke:#262626;stroke-linecap:round;stroke-linejoin:round;stroke-width:1.5px;}</style></defs><title>ICON_1e_1</title><path class="cls-1" d="M37.38,45.47a36.14,36.14,0,0,1,3.71-2.14c1.39-.61,6.11.74,10.7-2,3-1.82,4.81-5.74,5.38-8.61.26-1.29.87-4.23.87-4.23a5.77,5.77,0,0,1-5.38,2.74c-2.21-.09-6.27-1.58-10.44,1.25s-3.38,5.85-3.84,8c-.68,3.07-5,3.28-5,3.28"/><path class="cls-1" d="M38.17,41s1.71-4.53,6.09-4.92c2.78-.24,5.31,1,8.14-1.63"/><path class="cls-1" d="M57.43,18a35.62,35.62,0,0,1-3.71-2.13c-1.24-.88-2.44-5.65-7.17-8.21C43.48,6,39.17,6.4,36.41,7.35L32.32,8.73A5.79,5.79,0,0,1,37.39,12c1,2,1.79,6.22,6.33,8.4s6.76,0,8.82-.69c3-1,5.34,2.65,5.34,2.65"/><path class="cls-1" d="M53.17,19.57s-4.77.8-7.31-2.79c-1.6-2.25-1.85-5-5.41-6.17"/><path class="cls-1" d="M23.42,14.34a35.54,35.54,0,0,1,0,4.29C23.31,20.14,19.8,23.57,20,29c.11,3.49,2.63,7,4.83,8.92l3.26,2.84a5.78,5.78,0,0,1,.27-6C29.49,32.81,32.8,30,32.39,25s-3.43-5.82-5-7.26c-2.34-2.11-.41-6-.41-6"/><path class="cls-1" d="M26.92,17.24S30,21,28.2,25c-1.13,2.5-3.38,4.1-2.62,7.71"/></svg>