<svg id="img" xmlns="http://www.w3.org/2000/svg" viewBox="0 0 65 52"><defs><style>.cls-1{fill:none;stroke:#262626;stroke-linecap:round;stroke-linejoin:round;stroke-width:1.5px;}</style></defs><title>ICON_7e_1</title><line class="cls-1" x1="32.86" y1="14.71" x2="32.86" y2="49.5"/><circle class="cls-1" cx="32.86" cy="12.68" r="2.03"/><circle class="cls-1" cx="39.64" cy="20.05" r="2.03"/><circle class="cls-1" cx="39.64" cy="30.07" r="2.03"/><circle class="cls-1" cx="25.73" cy="21.15" r="2.03"/><polyline class="cls-1" points="32.86 35.41 25.53 30.85 25.53 23.18"/><line class="cls-1" x1="32.86" y1="25.25" x2="38.19" y2="21.47"/><line class="cls-1" x1="32.86" y1="34.93" x2="37.8" y2="31.43"/><path class="cls-1" d="M37.8,42.5A24.42,24.42,0,0,0,48.27,22.62C48.27,12.35,41.64,7,37.8,3.41"/><path class="cls-1" d="M27.2,4A24.42,24.42,0,0,0,16.73,23.83c0,9.76,6.63,15.64,10.47,19.21"/><polyline class="cls-1" points="42.88 3.52 36.03 2.5 38.27 9.06"/><polyline class="cls-1" points="20.95 41.93 27.57 43.94 26.33 37.13"/></svg>