<svg id="img" xmlns="http://www.w3.org/2000/svg" viewBox="0 0 78 52"><defs><style>.cls-1{fill:none;stroke:#262626;stroke-linecap:round;stroke-linejoin:round;stroke-width:1.5px;}</style></defs><title>ICON_2e_1</title><path class="cls-1" d="M58.27,44.94C55.64,39.68,47.14,35,39,35c-9.81,0-16.44,4.6-19.27,10"/><path class="cls-1" d="M43.88,9.09,40.33,5.45a1.83,1.83,0,0,0-2.65,0L25,18.54c-.72.75-.46,1.37.58,1.37h3.57c1.05,0,1.32.62.61,1.39l-5.88,6.29c-.71.76-.44,1.39.6,1.39h9.4a1.91,1.91,0,0,1,1.9,1.9V35"/><path class="cls-1" d="M42.19,35V30.88a1.91,1.91,0,0,1,1.9-1.9h9.64c1,0,1.31-.63.6-1.39L48.45,21.3c-.71-.77-.44-1.39.61-1.39h3.57c1,0,1.31-.62.59-1.37l-3.34-3.49"/><path class="cls-1" d="M35,15l2.71,3.72a1.75,1.75,0,0,0,2.79.17L50.56,8.07"/></svg>