<svg id="img" xmlns="http://www.w3.org/2000/svg" viewBox="0 0 54 52"><defs><style>.cls-1{fill:none;stroke:#262626;stroke-linecap:round;stroke-linejoin:round;stroke-width:1.5px;}</style></defs><title>ICON_4e_1</title><path class="cls-1" d="M31.66,38.41a11.58,11.58,0,0,0,7.41-11.16,14.36,14.36,0,0,0-.22-2.47,15,15,0,0,0-1.1-3.5c-2-4.55-9.36-18-10.58-20.29a.19.19,0,0,0-.34,0h0c-1.22,2.23-8.54,15.74-10.58,20.29a15,15,0,0,0-1.1,3.5,14.36,14.36,0,0,0-.22,2.47A11.72,11.72,0,0,0,27,39.27V49.1"/><polyline class="cls-1" points="30.6 45.2 27 51.12 23.4 45.2"/><line class="cls-1" x1="34.67" y1="26.15" x2="19.33" y2="26.15"/></svg>