<svg id="img" xmlns="http://www.w3.org/2000/svg" viewBox="0 0 86 52"><defs><style>.cls-1{fill:none;stroke:#262626;stroke-linecap:round;stroke-linejoin:round;stroke-width:1.5px;}.cls-2{fill:#262626;}</style></defs><title>ICON_10e_1</title><line class="cls-1" x1="27.63" y1="24.4" x2="72.6" y2="24.4"/><line class="cls-1" x1="40.71" y1="24.4" x2="34.83" y2="17.97"/><line class="cls-1" x1="52.38" y1="24.4" x2="46.83" y2="18.44"/><line class="cls-1" x1="52.38" y1="24.4" x2="46.83" y2="30.35"/><path class="cls-1" d="M64.81,24.4s-7.07-14-23.16-14c-12.39,0-18.34,9.32-22.64,14"/><path class="cls-1" d="M41.65,37.21c11.77,0,18.86-8,23.16-12.62"/><path class="cls-1" d="M19,24.59a27.51,27.51,0,0,0,5,5.53"/><circle class="cls-2" cx="33.33" cy="32.07" r="1.66"/><circle class="cls-2" cx="34.99" cy="37.71" r="1.66"/><circle class="cls-2" cx="29.29" cy="39.9" r="1.66"/><circle class="cls-2" cx="27.46" cy="34.39" r="1.66"/><circle class="cls-2" cx="19.06" cy="34.39" r="1.66"/></svg>