<svg id="img" xmlns="http://www.w3.org/2000/svg" viewBox="0 0 78 52"><defs><style>.cls-1{fill:none;stroke:#262626;stroke-linecap:round;stroke-linejoin:round;stroke-width:1.5px;}.cls-2{fill:#262626;}</style></defs><title>ICON_3e_1</title><polygon class="cls-1" points="40.31 45.21 34.78 42.27 34.79 35.8 40.31 38.74 40.31 45.21"/><polygon class="cls-1" points="40.32 45.21 45.84 42.27 45.84 35.8 40.31 38.74 40.32 45.21"/><polygon class="cls-1" points="34.79 35.8 40.31 33.01 45.84 35.8 40.31 38.74 34.79 35.8"/><circle class="cls-2" cx="38.34" cy="14.25" r="1.84"/><circle class="cls-2" cx="32.2" cy="14.25" r="1.84"/><circle class="cls-2" cx="44.72" cy="14.25" r="1.84"/><circle class="cls-2" cx="41.6" cy="8.63" r="1.84"/><circle class="cls-2" cx="41.6" cy="19.91" r="1.84"/><circle class="cls-2" cx="35.37" cy="8.63" r="1.84"/><circle class="cls-2" cx="35.37" cy="19.91" r="1.84"/><path class="cls-1" d="M28.1,33a12.41,12.41,0,0,1,0-24.82"/><path class="cls-1" d="M49.9,20a12.41,12.41,0,1,1,0,24.82"/><polyline class="cls-1" points="23.39 35.46 29.06 33.47 24.7 29.35"/><polyline class="cls-1" points="52.35 23.45 47.88 19.44 53.5 17.32"/></svg>