<svg id="img" xmlns="http://www.w3.org/2000/svg" viewBox="0 0 600 75"><defs><style>.cls-1{fill:#006f4f;}</style></defs><title>EWS TEXT</title><path class="cls-1" d="M398.35,37.49a15.2,15.2,0,0,1-1.14,5.81,13.41,13.41,0,0,1-3.08,4.49,13.56,13.56,0,0,1-4.66,2.86,16.32,16.32,0,0,1-5.84,1,16.13,16.13,0,0,1-5.81-1.06,13.56,13.56,0,0,1-4.6-2.93,13.19,13.19,0,0,1-3-4.53,15,15,0,0,1-1.06-5.82,14.53,14.53,0,0,1,1.14-5.8,12.68,12.68,0,0,1,3.07-4.4A13.62,13.62,0,0,1,378,24.33a16.42,16.42,0,0,1,5.82-.95,16.72,16.72,0,0,1,5.83,1,13.53,13.53,0,0,1,4.62,2.83,12.72,12.72,0,0,1,3,4.44A14.66,14.66,0,0,1,398.35,37.49Zm-6.94-.05a9.26,9.26,0,0,0-.54-3.26,8,8,0,0,0-1.56-2.6,7.22,7.22,0,0,0-2.41-1.72,7.61,7.61,0,0,0-3.12-.65,7.5,7.5,0,0,0-5.55,2.3,7.2,7.2,0,0,0-1.59,2.58,9.66,9.66,0,0,0-.57,3.26,9.54,9.54,0,0,0,.55,3.35,7.94,7.94,0,0,0,1.55,2.64,7.26,7.26,0,0,0,2.4,1.75,7.77,7.77,0,0,0,3.1.64,7.54,7.54,0,0,0,3.11-.61,7.35,7.35,0,0,0,2.43-1.7,7.7,7.7,0,0,0,1.61-2.63A9.5,9.5,0,0,0,391.41,37.44Z"/><path class="cls-1" d="M509.08,37.47a14.94,14.94,0,0,1-1.14,5.81,13.27,13.27,0,0,1-3.08,4.49,13.8,13.8,0,0,1-4.66,2.87,16.3,16.3,0,0,1-5.83,1,16.13,16.13,0,0,1-5.81-1.06,13.46,13.46,0,0,1-4.6-2.93,13.17,13.17,0,0,1-3-4.52,15.09,15.09,0,0,1-1.06-5.83,14.92,14.92,0,0,1,1.14-5.8,12.8,12.8,0,0,1,3.08-4.4,13.68,13.68,0,0,1,4.64-2.77,17.69,17.69,0,0,1,11.64.07A13.67,13.67,0,0,1,505,27.21a12.77,12.77,0,0,1,3,4.45A14.82,14.82,0,0,1,509.08,37.47Zm-6.93,0a9.46,9.46,0,0,0-.55-3.26,7.71,7.71,0,0,0-1.56-2.6,7.26,7.26,0,0,0-2.41-1.72,8,8,0,0,0-6.23,0A7.62,7.62,0,0,0,489,31.49a7.36,7.36,0,0,0-1.58,2.59,9.1,9.1,0,0,0-.57,3.25,9.5,9.5,0,0,0,.54,3.35,7.84,7.84,0,0,0,1.56,2.65,7.19,7.19,0,0,0,2.39,1.74,8.09,8.09,0,0,0,6.21,0A7.37,7.37,0,0,0,500,43.4a7.76,7.76,0,0,0,1.61-2.63A9.73,9.73,0,0,0,502.15,37.42Z"/><path class="cls-1" d="M415.75,45.43a2.82,2.82,0,0,1-.1,5.64c-3.51,0-14-.1-14-.1l.15-23.59a3.26,3.26,0,1,1,6.52.14h0l-.12,17.85,7.59.06Z"/><path class="cls-1" d="M459.2,47.52c-.07-4.49,0-17.84,0-17.84H464a2.71,2.71,0,0,0,2.71-2.75,2.79,2.79,0,0,0-2.83-2.75c-1.73,0-14.12,0-15.85,0a2.79,2.79,0,0,0-2.83,2.75,2.71,2.71,0,0,0,2.71,2.75h4.82s.06,13.35,0,17.84a3.23,3.23,0,1,0,6.45,0Z"/><path class="cls-1" d="M475.8,27.37a3.26,3.26,0,0,0-6.51.13c0,2.17,0,17.82,0,20a3.26,3.26,0,1,0,6.51.13Z"/><path class="cls-1" d="M519.38,33.41h-.11l.11,14.38a3,3,0,0,1-3.09,3.06,3.17,3.17,0,0,1-3.12-3.2s0-14.12,0-18.83a4.76,4.76,0,0,1,4.9-4.63,4.83,4.83,0,0,1,3.75,2.15l9.39,15.24h.11l-.08-14.33a3.14,3.14,0,0,1,3.2-3.07,3,3,0,0,1,2.94,3.21V46.22h0a4.73,4.73,0,0,1-4.83,4.63,4.56,4.56,0,0,1-3.75-2.15Z"/><path class="cls-1" d="M431.26,51.55a13.54,13.54,0,0,0,4.74-.79,10.37,10.37,0,0,0,3.58-2.21,9.56,9.56,0,0,0,2.26-3.39,11.47,11.47,0,0,0,.79-4.27V27.51a3.32,3.32,0,0,0-3.2-3.33,3.26,3.26,0,0,0-3.2,3.33V40.4a7.55,7.55,0,0,1-.28,1.92,5.32,5.32,0,0,1-.87,1.75,4.1,4.1,0,0,1-1.54,1.23,6.21,6.21,0,0,1-4.64,0,4.1,4.1,0,0,1-1.54-1.23,5.32,5.32,0,0,1-.87-1.75,7.55,7.55,0,0,1-.28-1.92V27.51a3.26,3.26,0,0,0-3.2-3.33,3.32,3.32,0,0,0-3.2,3.33V40.89a11.47,11.47,0,0,0,.79,4.27,9.56,9.56,0,0,0,2.26,3.39,10.37,10.37,0,0,0,3.58,2.21,13.54,13.54,0,0,0,4.74.79Z"/><path class="cls-1" d="M348.05,47.34a2.89,2.89,0,0,1,2.9-2.89,2.94,2.94,0,0,1,1.65.52,8.08,8.08,0,0,0,.77.43,7,7,0,0,0,3.18.81,6.37,6.37,0,0,0,1.39-.15,3.55,3.55,0,0,0,1.19-.49,2.46,2.46,0,0,0,.81-.91,2.81,2.81,0,0,0,.3-1.35,2.15,2.15,0,0,0-.37-1.28,3.8,3.8,0,0,0-1.08-1,8.53,8.53,0,0,0-1.73-.79c-.69-.24-1.48-.5-2.35-.78a22.43,22.43,0,0,1-2.51-1A8.37,8.37,0,0,1,350,37.08a6.77,6.77,0,0,1-1.55-2.15,7.28,7.28,0,0,1-.58-3.07,7.62,7.62,0,0,1,.9-3.81,7.78,7.78,0,0,1,2.38-2.59A10,10,0,0,1,354.48,24a14.73,14.73,0,0,1,3.73-.47,13.62,13.62,0,0,1,4.61.83,8.26,8.26,0,0,1,.87.34,2.81,2.81,0,1,1-2.56,5l-.45-.23a6.08,6.08,0,0,0-2.58-.62,8.25,8.25,0,0,0-1.3.11,3.52,3.52,0,0,0-1.19.43,3.06,3.06,0,0,0-.89.83,2.27,2.27,0,0,0-.35,1.3,2.08,2.08,0,0,0,.28,1.13,2.43,2.43,0,0,0,.83.79,6.3,6.3,0,0,0,1.3.62c.5.19,1.06.39,1.69.59.91.3,1.85.63,2.83,1A10.13,10.13,0,0,1,364,37.06a7.69,7.69,0,0,1,2,2.24,6.41,6.41,0,0,1,.79,3.33,8.61,8.61,0,0,1-.85,4,7.72,7.72,0,0,1-2.28,2.77A9.63,9.63,0,0,1,360.36,51a13.91,13.91,0,0,1-3.81.53,15.47,15.47,0,0,1-7-1.63A2.86,2.86,0,0,1,348.05,47.34Z"/><path class="cls-1" d="M541.29,47.34a2.89,2.89,0,0,1,2.9-2.89,2.94,2.94,0,0,1,1.65.52,8.08,8.08,0,0,0,.77.43,7,7,0,0,0,3.18.81,6.53,6.53,0,0,0,1.4-.15,3.58,3.58,0,0,0,1.18-.49,2.46,2.46,0,0,0,.81-.91,2.81,2.81,0,0,0,.3-1.35,2.15,2.15,0,0,0-.37-1.28,3.66,3.66,0,0,0-1.08-1,8.53,8.53,0,0,0-1.73-.79c-.69-.24-1.47-.5-2.35-.78a22.43,22.43,0,0,1-2.51-1,8.54,8.54,0,0,1-2.18-1.45,6.77,6.77,0,0,1-1.55-2.15,7.28,7.28,0,0,1-.58-3.07,7.62,7.62,0,0,1,.9-3.81,7.89,7.89,0,0,1,2.38-2.59A10.06,10.06,0,0,1,547.72,24a14.73,14.73,0,0,1,3.73-.47,13.62,13.62,0,0,1,4.61.83,8.26,8.26,0,0,1,.87.34,2.81,2.81,0,1,1-2.56,5l-.45-.23a6,6,0,0,0-2.58-.62,8.25,8.25,0,0,0-1.3.11,3.52,3.52,0,0,0-1.19.43,2.91,2.91,0,0,0-.88.83,2.19,2.19,0,0,0-.36,1.3,2.08,2.08,0,0,0,.28,1.13,2.43,2.43,0,0,0,.83.79A6.56,6.56,0,0,0,550,34c.5.19,1.07.39,1.69.59.91.3,1.85.63,2.83,1a10.13,10.13,0,0,1,2.67,1.45,7.55,7.55,0,0,1,2,2.24,6.41,6.41,0,0,1,.79,3.33,8.61,8.61,0,0,1-.85,4,7.72,7.72,0,0,1-2.28,2.77A9.63,9.63,0,0,1,553.6,51a13.86,13.86,0,0,1-3.81.53,15.55,15.55,0,0,1-5.53-1,14.72,14.72,0,0,1-1.45-.63A2.86,2.86,0,0,1,541.29,47.34Z"/><path class="cls-1" d="M329.62,35.4a2.54,2.54,0,0,1,2.46,2.66,2.44,2.44,0,0,1-2.54,2.47h0l-8.5-.06L321,46l9.67.07h0a2.76,2.76,0,1,1-.11,5.52l-15.68-.1V24.92l15.18.11h0a2.72,2.72,0,0,1,2.67,2.78A2.57,2.57,0,0,1,330,30.27H321.1l0,5.15Z"/><path class="cls-1" d="M277.66,32.07l-3.3,9.13H281l-3.36-9.13Zm0-7.15A4.71,4.71,0,0,1,282,27.74l8.21,19.5h0a3.14,3.14,0,0,1,.22,1.11,3.21,3.21,0,0,1-3.13,3.28,3.39,3.39,0,0,1-3.24-2l-1.25-3.23H272.42l-1.15,3.16a3.21,3.21,0,0,1-6.22-1.19,3.14,3.14,0,0,1,.23-1.11h0l8.21-19.5A4.84,4.84,0,0,1,277.66,24.92Z"/><path class="cls-1" d="M300,51.6a4.43,4.43,0,0,0,4.21-3l7.35-19.13h0a3.43,3.43,0,0,0,.24-1.28,3.23,3.23,0,0,0-3.27-3.29,3.36,3.36,0,0,0-3.14,2.4h0L300,43.9h-.11l-5.38-16.58h0a3.35,3.35,0,0,0-6.57.89,3.43,3.43,0,0,0,.24,1.28h0l7.35,19.13A4.7,4.7,0,0,0,300,51.6Z"/><path class="cls-1" d="M247.52,33.54h-.11l-4.36,14.93h0a4.21,4.21,0,0,1-8.16,0L229.32,29a4,4,0,0,1-.12-.77,3.15,3.15,0,0,1,3.06-3.28,3.38,3.38,0,0,1,3.3,2.38l3.75,15.38h.11l3.88-14.43a4.28,4.28,0,0,1,4.17-3.33,4.46,4.46,0,0,1,4.32,3.33l3.87,14.43h.11l3.75-15.38a3.22,3.22,0,0,1,3.16-2.38,3.15,3.15,0,0,1,3.05,3.28,2.88,2.88,0,0,1-.12.77l-5.56,19.47a4.21,4.21,0,0,1-8.16,0h0l-4.37-14.93h0Z"/><path class="cls-1" d="M54.74,35.4a2.53,2.53,0,0,1,2.45,2.66,2.43,2.43,0,0,1-2.54,2.47h0l-8.5-.06,0,5.57,9.67.07h0a2.76,2.76,0,1,1-.12,5.52L40,51.53V24.92L55.18,25h0a2.7,2.7,0,0,1,2.66,2.78,2.57,2.57,0,0,1-2.78,2.46H46.22l0,5.15Z"/><path class="cls-1" d="M113.45,35.4a2.54,2.54,0,0,1,2.46,2.66,2.44,2.44,0,0,1-2.54,2.47h0l-8.5-.06,0,5.57,9.67.07h0a2.76,2.76,0,1,1-.11,5.52l-15.68-.1V24.92l15.18.11h0a2.72,2.72,0,0,1,2.67,2.78,2.57,2.57,0,0,1-2.78,2.46h-8.85l0,5.15Z"/><path class="cls-1" d="M135.59,33.11a2.59,2.59,0,0,0-.39-1.54,2.63,2.63,0,0,0-1-.91,4.34,4.34,0,0,0-1.4-.45,11.36,11.36,0,0,0-1.51-.12l-3.46,0,0,6.25h3.08a11.59,11.59,0,0,0,1.64-.11,5.58,5.58,0,0,0,1.53-.46,3.06,3.06,0,0,0,1.13-1A2.9,2.9,0,0,0,135.59,33.11Zm-14-8.19h10.14a17.34,17.34,0,0,1,3.76.43,9.65,9.65,0,0,1,3.29,1.36,6.73,6.73,0,0,1,2.31,2.43A7.75,7.75,0,0,1,141.9,33a7,7,0,0,1-1.4,4.56,8,8,0,0,1-4.11,2.63l4,6.59a3.14,3.14,0,0,1,.45,1.72,3.18,3.18,0,0,1-6,1.48L130,41l-2.17,0v7.52a3.17,3.17,0,0,1-3.23,3.11,3.31,3.31,0,0,1-3.09-3.4Z"/><path class="cls-1" d="M156.45,32.07l-3.3,9.13h6.66l-3.36-9.13Zm0-7.15a4.71,4.71,0,0,1,4.33,2.82L169,47.24h0a3.14,3.14,0,0,1,.23,1.11,3.21,3.21,0,0,1-3.14,3.28,3.37,3.37,0,0,1-3.23-2c-.31-.81-1.26-3.23-1.26-3.23H151.21l-1.15,3.16a3.21,3.21,0,0,1-6.21-1.19,3.14,3.14,0,0,1,.22-1.11h0l8.22-19.5A4.82,4.82,0,0,1,156.45,24.92Z"/><path class="cls-1" d="M186.67,46a2.84,2.84,0,0,1,2.78,2.89,2.75,2.75,0,0,1-2.9,2.66H172.64V28.12a3.25,3.25,0,1,1,6.49.14V46Z"/><path class="cls-1" d="M77.86,51.61a3.29,3.29,0,0,0,3-2.11L87,32.72h.11L87,48.6a3.26,3.26,0,0,0,3.34,3,3,3,0,0,0,3-3.11c0-5.93,0-18.18,0-18.23A5.29,5.29,0,0,0,88,24.92a5.67,5.67,0,0,0-5.15,3.57h0L78.22,42h-.15l-4.8-13.54h0a5.56,5.56,0,0,0-5.07-3.57,5.29,5.29,0,0,0-5.37,5.32c0,.05,0,12.3,0,18.23a3,3,0,1,0,6,.13l-.12-15.88h.11l6,16.78a3.28,3.28,0,0,0,3,2.11"/><path class="cls-1" d="M202.15,24.92a23.76,23.76,0,0,1,5.57.66,13.91,13.91,0,0,1,4.9,2.19,11.08,11.08,0,0,1,3.46,4.08,13.73,13.73,0,0,1,1.32,6.33,13.11,13.11,0,0,1-1.3,6,12.22,12.22,0,0,1-3.42,4.18,14.41,14.41,0,0,1-4.81,2.41,19.61,19.61,0,0,1-5.42.77h-6.86a3.17,3.17,0,0,1-3.11-3.26V28.2a3.18,3.18,0,0,1,3.11-3.27Zm8.55,13.26a8.49,8.49,0,0,0-.74-3.75,6.28,6.28,0,0,0-2-2.37,7.75,7.75,0,0,0-2.78-1.26,13.77,13.77,0,0,0-3.22-.38h-3.2V46h3a14.06,14.06,0,0,0,3.33-.4,7.77,7.77,0,0,0,2.82-1.3,6.34,6.34,0,0,0,2-2.41A8.46,8.46,0,0,0,210.7,38.18Z"/></svg>