<svg id="img" xmlns="http://www.w3.org/2000/svg" viewBox="0 0 50 50"><defs><style>.cls-1{fill:#004234;}</style></defs><title>ICON_3d_1</title><path class="cls-1" d="M35,6.53H15.51a1.14,1.14,0,0,0-1.15,1.15V40.59a1.14,1.14,0,0,0,1.15,1.15H35a1.15,1.15,0,0,0,1.15-1.15V7.68A1.15,1.15,0,0,0,35,6.53ZM33.86,39.44H16.66V8.83h17.2Z"/><circle class="cls-1" cx="25.26" cy="35.89" r="1.5"/><path class="cls-1" d="M19.76,32.17h11A1.15,1.15,0,0,0,31.91,31V12.51a1.16,1.16,0,0,0-1.15-1.15h-11a1.15,1.15,0,0,0-1.15,1.15V31A1.14,1.14,0,0,0,19.76,32.17Zm1.15-18.51h8.7V29.88h-8.7Z"/></svg>