<svg id="img" xmlns="http://www.w3.org/2000/svg" viewBox="0 0 50 50"><defs><style>.cls-1{fill:#004234;}</style></defs><title>ICON_1d_1</title><path class="cls-1" d="M9.36,42.39c.09-.75.17-1.43.26-2.11.11-.84.24-1.68.35-2.51.16-1.11.31-2.22.46-3.33a2.62,2.62,0,0,0-.19-1.69,14.62,14.62,0,0,1-1.62-5.32,22.48,22.48,0,0,1-.18-3.57A17.56,17.56,0,0,1,18.28,9.21a13.93,13.93,0,0,1,4.95-1.5,29,29,0,0,1,4.16-.18,16.1,16.1,0,0,1,5.31,1.3,17.06,17.06,0,0,1,5.89,4.07A17.27,17.27,0,0,1,43,21.3a18,18,0,0,1,.35,4.85,17.48,17.48,0,0,1-5.93,12A16.84,16.84,0,0,1,29.91,42a17.7,17.7,0,0,1-4.58.47,16.26,16.26,0,0,1-6.22-1.4,3,3,0,0,0-2-.12L9.93,42.38A3.39,3.39,0,0,1,9.36,42.39Zm3.5-3.6,4.84-1a2.78,2.78,0,0,1,1.95.24,13.71,13.71,0,0,0,9,1.19,14.27,14.27,0,0,0,9.18-6,14.68,14.68,0,0,0,2.51-6.65,13.14,13.14,0,0,0-.08-3.65A14.51,14.51,0,0,0,35,13.63a14,14,0,0,0-8.52-3.17,14.46,14.46,0,0,0-3.82.38A14.28,14.28,0,0,0,13,18.37a13.9,13.9,0,0,0-1.48,4.76,14.57,14.57,0,0,0,0,4.12,13.68,13.68,0,0,0,1.85,5.1,1.92,1.92,0,0,1,.16,1.19,2.72,2.72,0,0,1-.08.47c-.12.83-.25,1.67-.36,2.51S13,38,12.86,38.79Z"/><path class="cls-1" d="M17.17,20.55a5,5,0,0,1,2.12-4.06,2.83,2.83,0,0,1,1.12-.23c1.19-.21,1.53.62,1.82,1.51s.57,1.76.91,2.62a1.28,1.28,0,0,1-.33,1.31,14.25,14.25,0,0,1-1,1.07.63.63,0,0,0-.11.82,12,12,0,0,0,5.81,5.65.77.77,0,0,0,1-.19c.46-.52.92-1,1.37-1.56a.65.65,0,0,1,.86-.23c1.19.63,2.39,1.28,3.58,1.93.56.31.36.83.29,1.29a3.8,3.8,0,0,1-3.34,2.95c-1.65.26-3.06-.45-4.5-1a13.3,13.3,0,0,1-4.58-3,18.31,18.31,0,0,1-3.08-3.93,23.72,23.72,0,0,1-1.45-2.84A12.88,12.88,0,0,1,17.17,20.55Z"/></svg>