<svg id="img" xmlns="http://www.w3.org/2000/svg" viewBox="0 0 50 50"><defs><style>.cls-1{fill:none;}.cls-2{fill:#004234;}</style></defs><title>ICON_2d_1</title><path class="cls-1" d="M25.46,23.4C28,23.32,33.07,18.89,36.85,15H13.21c4,3.84,9.35,8.19,12,8.36Z"/><path class="cls-1" d="M28.79,24.63c3.71,2.05,8,6.11,10.5,8.63V15.8C37,18.26,32.54,22.62,28.79,24.63Z"/><path class="cls-1" d="M24.91,25.67C22.19,25.73,16.72,30.82,13,35H37.76c-4.07-4.12-9.87-9.13-12.65-9.3Z"/><path class="cls-1" d="M21.52,24.46c-3.46-1.85-7.41-5.38-9.93-7.81V33.07C14,30.45,18,26.39,21.52,24.46Z"/><path class="cls-2" d="M41,12.88a1.17,1.17,0,0,0-.55-.16h-30a1.16,1.16,0,0,0-1.15,1.15V36.13s0,0,0,0a1.55,1.55,0,0,0,0,.23,1.17,1.17,0,0,0,.06.2.71.71,0,0,0,.11.17.74.74,0,0,0,.16.19s0,0,0,0a.64.64,0,0,0,.18.1.39.39,0,0,0,.14.08,1,1,0,0,0,.41.09h30a1.16,1.16,0,0,0,.18,0l.24,0a1.64,1.64,0,0,0,.22-.14s.1,0,.14-.08l0,0a1.43,1.43,0,0,0,.15-.22.49.49,0,0,0,.1-.15,1.21,1.21,0,0,0,0-.18,1.19,1.19,0,0,0,.05-.26V13.87A1.13,1.13,0,0,0,41,12.88ZM28.79,24.63c3.75-2,8.17-6.37,10.5-8.83V33.26C36.8,30.74,32.5,26.68,28.79,24.63ZM36.85,15c-3.78,3.87-8.9,8.3-11.39,8.38l-.23,0c-2.67-.17-8-4.52-12-8.36ZM11.59,16.65c2.52,2.43,6.47,6,9.93,7.81-3.52,1.93-7.53,6-9.93,8.61ZM13,35c3.75-4.16,9.22-9.25,11.94-9.31h.2c2.78.17,8.58,5.18,12.65,9.3Z"/></svg>