<svg id="img" xmlns="http://www.w3.org/2000/svg" viewBox="0 0 300 270"><defs><style>.cls-1{fill:#004234;}.cls-2{fill:#fff;}.cls-3{fill:#262626;}</style></defs><title>ICON_6d</title><path class="cls-1" d="M153.16,149.35l-32.68,15.1a2,2,0,0,1-2.65-1L90.64,106.55a2,2,0,0,1,1-2.66L124.29,88.8a2,2,0,0,1,2.66,1l27.19,56.93A2,2,0,0,1,153.16,149.35Z"/><path class="cls-2" d="M128.31,137.07q0-1.11-.18-2.31a1.52,1.52,0,0,0-.12-.41.23.23,0,0,0,0-.14,1.82,1.82,0,0,0-1.59-1.09l0,0a.85.85,0,0,0-.56.08,1.87,1.87,0,0,0-2.21,1.22l-.18.12-.74.81h0a4,4,0,0,0-.94,1c-.46.45-.93.87-1.41,1.29a20.12,20.12,0,0,0-1.88,1.3l-.59.41c-.46.29-.89.59-1.3.89-4.13,1.42-5.78,5.78-6.43,10.12a20.38,20.38,0,0,0-.63,4.05c0,.65.46.85,1.17.78-.18,1.65-.28,3.35-.32,5.1,0,1.55,1.91,1.12,3.67.15,0,.46,0,.92,0,1.38a.45.45,0,0,0,0,.11,19.91,19.91,0,0,0,0,4,.17.17,0,0,0,.1.13,19.71,19.71,0,0,0,.18,2.14h0a3,3,0,0,0,0,.31c.14,1,6.08-1.68,6.09-3.19.09-7.16,2.12-11.39,5-16.77a21.93,21.93,0,0,0,2.61-7.38A15.54,15.54,0,0,0,128.31,137.07Z"/><path class="cls-2" d="M154.91,140.44l-.88-.09c.21-.12.61-.46.27-.52l-.5-.09c.09-.18-.08-.31-.39-.22l-1.21.36c-.07-.07-.24-.09-.47,0l-.67.31c-1.08.43-2.15.6-2.56,1.62a1.36,1.36,0,0,0-.41,1.79,1.09,1.09,0,0,0,.1.25,3.07,3.07,0,0,0,.17.31.23.23,0,0,0,.24.06c.86,2.07,3.55,3.61,5.47,4.19.23.07,2.05-.74,1.81-1.07a16.56,16.56,0,0,1-2.78-5.53c.52-.13,0,0,.5-.22.1,0,.73-.4.59-.36-.59.15-1.18.27-1.77.37a13.82,13.82,0,0,1,2-.6C154.57,141,155.36,140.48,154.91,140.44Zm-3.21.1.72-.21h.09c-.21.14-.56.47-.23.5l.72.07c-.38.13-.75.27-1.12.43C151.82,141.07,151.75,140.81,151.7,140.54Z"/><path class="cls-3" d="M84.19,107.81c6.81,18.24,14.67,36.05,23,53.63.24.5,1.41,1,1,.13-8.29-17.48-16.13-35.19-22.9-53.33-.16-.43-1.39-1.19-1.1-.43Z"/><path class="cls-3" d="M88.49,100.66c-3.17,2-.93,7,0,9.6,1.85,5.27,3.85,10.48,6,15.65,4.37,10.72,9.21,21.24,14.29,31.64.24.5,1.41,1,1,.13-4.51-9.25-8.84-18.6-12.82-28.1q-3.09-7.4-5.88-14.91c-1.07-2.92-5.23-10.56-1.52-12.9.4-.25-.54-1.4-1-1.11Z"/><path class="cls-3" d="M87.74,101.22c-1.93,2.14-5.36,4.67-3.14,7.75.41.56,1.4.63.81-.19-1.61-2.22,2-5,3.34-6.44.36-.4-.67-1.49-1-1.12Z"/><path class="cls-3" d="M89.5,101.77c11-6.22,22.85-10.85,34.21-16.45.53-.26-.4-1.41-.82-1.2-11.43,5.62-23.29,10.28-34.4,16.54-.4.23.52,1.39,1,1.11Z"/><path class="cls-3" d="M92.05,103.58c-2.31,2.12.16,6.53,1,8.85,1.5,4.24,3.15,8.42,4.89,12.56,3.62,8.62,7.63,17.06,11.38,25.63.22.51,1.38,1,1,.13-3.26-7.46-6.72-14.83-10-22.29-1.67-3.86-3.28-7.75-4.76-11.68-.71-1.89-1.4-3.78-2-5.69s-2.17-4.81-.45-6.39c.38-.35-.62-1.47-1-1.12Z"/><path class="cls-3" d="M93.31,104.11c6.74-3.84,13.78-7.08,20.83-10.3,3.08-1.41,6.27-3.38,9.54-4.27s4.24,2.09,5.25,4.46q1.09,2.58,2.24,5.14c6,13.37,12.53,26.47,17.37,40.31.15.44,1.38,1.21,1.11.43-5.56-15.86-13.36-30.75-19.92-46.19-.86-2-1.67-4.83-4.09-5.5-1.61-.45-3.22.23-4.67.88-2,.89-4,1.84-6,2.75-7.68,3.51-15.37,7-22.72,11.17-.4.23.52,1.39,1,1.12Z"/><path class="cls-3" d="M99.49,146.2c-2,.82-2.88,2.5-3.39,4.56-.36,1.41-.57,2.84-1.06,4.21-.76,2.13-2,4.06-2.85,6.15-2.93,7.08-1.13,14.72.72,21.84.12.46,1.34-.36,1.23-.79-1.57-6.11-3.25-12.68-1.6-19,.74-2.82,2.33-5.25,3.43-7.92,1-2.36.92-7,3.36-8.32.35-.2,1-1.12.16-.77Z"/><path class="cls-3" d="M92.87,182.05a34.51,34.51,0,0,0,2.37,13.55c1.6,4.05,4.39,7.54,5.81,11.65,1.61,4.63,1,9.59.23,14.32-.84,5.17-1.89,10.3-3,15.41-.13.57,1.07-.23,1.17-.65q1.83-7.61,3.1-15.34c.73-4.49,1.35-9.23,0-13.69-1.19-4.08-3.92-7.48-5.59-11.35a36.62,36.62,0,0,1-2.9-14.72c0-.13-1.18.46-1.19.82Z"/><path class="cls-3" d="M123.8,85.28c2.33-1.21,3.74-1.32,5.31,1.33a26,26,0,0,1,1.27,3L133.11,96c.22.51,1.38,1,1,.13l-2.91-6.8a19.16,19.16,0,0,0-2.29-4.73c-1.81-2.22-3.76-1.6-6.11-.39-.39.21.51,1.38,1,1.12Z"/><path class="cls-3" d="M133.11,95.84c6.18,14.49,13.2,28.6,19.1,43.21.21.52,1.36,1,1,.13-5.9-14.61-12.93-28.72-19.1-43.21-.22-.51-1.37-1-1-.13Z"/><path class="cls-3" d="M121.7,176.15c1.8,1.49,3.72,1,5.73.1,3.68-1.61,7.26-3.5,10.86-5.29q10.2-5.09,20.22-10.51c.4-.22-.51-1.38-1-1.12q-8.88,4.8-17.89,9.34-4.1,2.06-8.22,4.07c-2.09,1-7.15,4.53-9.43,2.63-.78-.65-.82.32-.27.78Z"/><path class="cls-3" d="M156,148.93c1.43,2.64,4.74,9.37.36,10.89-.54.18.35,1.37.82,1.2,4.88-1.68,1.4-9-.19-12-.26-.48-1.45-1-1-.13Z"/><path class="cls-3" d="M121.77,179.91c5.79,2.71,12.57-2.58,17.49-5.2l19.25-10.25c.4-.21-.5-1.38-1-1.12l-17,9c-2.92,1.55-5.84,3.14-8.77,4.67-3.18,1.65-6.8,3.37-10.32,1.72-.74-.35-.11.94.32,1.14Z"/><path class="cls-3" d="M156.7,149.17c1.55,4.42,6.06,11.8-.11,14.8-.54.26.39,1.41.82,1.2,6.57-3.19,2.05-10.84.39-15.56-.15-.44-1.37-1.21-1.1-.44Z"/><path class="cls-3" d="M123.39,133.35a13.46,13.46,0,0,1-4.13,4.33c-1.19.73-2.51,1.22-3.7,2a10.86,10.86,0,0,0-3.77,4.05c-2.57,4.65-3.05,10.62-3.3,15.82,0,.4,1.21-.29,1.24-.78.26-5.41.67-14.31,5.39-18,1.94-1.51,4.36-2.16,6.24-3.8a12.78,12.78,0,0,0,3.18-4.22c.18-.36-1,.38-1.15.61Z"/><path class="cls-3" d="M108.65,157.18a29.08,29.08,0,0,1-4.52,11.38c-1.66,2.56-3.25,5.09-3.14,8.25,0,.47,1.21,1.32,1.19.65-.14-3.85,2.45-6.73,4.28-9.86a27.24,27.24,0,0,0,3.35-9.54c.08-.51-1.08-1.39-1.16-.88Z"/><path class="cls-3" d="M123.89,133.45c3.66-1.89,4.32,3.62,4.27,5.78a21,21,0,0,1-1.61,7.36,30.81,30.81,0,0,1-3.32,6.1c-1.17,1.71-2.55,3.12-2.69,5.28,0,.64,1.18-.14,1.22-.57.17-2,1.67-3.43,2.73-5,.72-1.09,1.4-2.22,2-3.38a25,25,0,0,0,2.8-8.77c.33-3.07-.52-10.5-5.31-7.6-.36.23-.91,1.23-.1.81Z"/><path class="cls-3" d="M120.58,157.79c-1.18,6,.76,12.13.66,18.19-.11,7.08-3.5,13.43-6.8,19.51-.38.69.91,0,1.11-.35,2.88-5.25,5.84-10.67,6.69-16.69,1-7.17-1.33-14.29-.47-21.49,0-.05-1.12.47-1.19.83Z"/><path class="cls-3" d="M119.29,185.9a14.8,14.8,0,0,0,3.15,10.63c.43.54,1.43.61.8-.19a13.39,13.39,0,0,1-2.8-9.74c0-.47-1.09-1.39-1.15-.7Z"/><path class="cls-3" d="M140.05,174.63c.49,5.7,1,11.52-.09,17.18a25.24,25.24,0,0,1-3.21,8.51c-1.35,2.21-2.95,4.26-4.17,6.55-4.88,9.18-3.15,20.21-1.31,30,.07.4,1.24-.44,1.17-.86-.94-5.53-1.94-11.11-1.76-16.74a29.63,29.63,0,0,1,5.23-16.09c2.75-4.1,4.78-8.14,5.51-13.09.79-5.35.36-10.78-.1-16.13,0-.47-1.31.24-1.27.71Z"/><path class="cls-3" d="M98.45,236c.23,2.9,3.22,4.65,5.54,5.91a24.33,24.33,0,0,0,9.52,2.88c6.77.61,15.45-1.65,18.8-8.13.22-.43-.85-1.46-1.12-.94-2.6,5-8.9,7.47-14.29,7.88a24,24,0,0,1-8.31-.82c-2.55-.72-8.73-2.87-9-6.07,0-.47-1.21-1.35-1.15-.71Z"/><path class="cls-3" d="M122.94,165.13c10.13-5.74,20.57-10.87,30.93-16.17.4-.2-.5-1.37-1-1.11-10.36,5.29-20.8,10.43-30.93,16.16-.4.23.52,1.39,1,1.12Z"/><path class="cls-3" d="M162.27,135.68a31.69,31.69,0,0,1-6.3,2.57c-1.89.54-3.86.7-5.74,1.24s-3.92,1.45-3.18,3.71a9.44,9.44,0,0,0,4.89,5.18,13.3,13.3,0,0,0,4.2,1.19c2.05.25,4.18-.17,6.17.5.8.27.14-1-.31-1.14-2.11-.72-4.28-.29-6.45-.58a10.85,10.85,0,0,1-4.81-1.66c-1.58-1.09-3.55-3.36-1.83-5.11,1.55-1.56,5.43-1.47,7.46-2a32.54,32.54,0,0,0,6.91-2.78c.4-.21-.51-1.38-1-1.11Z"/><path class="cls-3" d="M161.38,137.5c4.79-2.92,8,3.81,10.78,6.45,1.67,1.6,3.5,3,4.8,4.9a31.51,31.51,0,0,1,3.18,7.2c.32.92.75-.28.58-.76a37.42,37.42,0,0,0-3-7c-1.56-2.6-3.86-4.11-5.9-6.27-2.66-2.8-5.92-8.88-10.67-6-.4.24-.22,1.69.19,1.44Z"/><path class="cls-3" d="M161.93,149.77a26.25,26.25,0,0,0,4.86,10.67c.36.47.6-.95.33-1.3A24.73,24.73,0,0,1,162.51,149c-.19-.95-.68.28-.58.76Z"/><path class="cls-3" d="M166.19,159.41c1.18,3,.28,6.52.93,9.68a21.4,21.4,0,0,0,3,7.26c.29.45,1.52.89,1,.08a19.85,19.85,0,0,1-3.21-9.2c-.19-2.53.33-5-.62-7.44-.17-.44-1.43-1.15-1.13-.38Z"/><path class="cls-3" d="M149.6,169.66c2.92,4.25,4.42,9.48,8,13.28a18.65,18.65,0,0,0,6.14,4c3.24,1.47,6.5,2.88,9.76,4.32.42.19,1.45-.87,1-1.08-3-1.32-6-2.63-9-4-2.69-1.2-5.27-2.5-7.23-4.78-3.22-3.75-4.7-8.66-7.49-12.71-.19-.27-1.4.61-1.18.92Z"/><path class="cls-3" d="M173.39,191.3a87.87,87.87,0,0,1,5.81,12.1c1,2.59,1.52,6.46,4.39,7.65.42.17,1.42-.92.94-1.11-1.86-.77-2.42-2.62-3-4.38s-1.33-3.66-2.08-5.45a90.57,90.57,0,0,0-4.87-9.76c0,.07-1.2.88-1.16,1Z"/><path class="cls-3" d="M167.11,132.74c3.67,1.54,7.33,2.28,9.89,5.6,2.4,3.13,4.08,6.87,6.14,10.22,2.64,4.29,4.87,8.44,5.29,13.55.39,4.72.07,9.47,2.47,13.74.19.34,1.32-.59,1.07-1-2.61-4.69-1.82-10.05-2.49-15.17-.62-4.72-3.17-8.73-5.61-12.72-2-3.25-3.57-6.95-6-9.89s-6.05-3.79-9.56-5.2c-.24-.1-1,1-1.19.92Z"/><path class="cls-3" d="M190.37,175.23c1.63,3.34,5.08,5.85,7.7,8.38l8.93,8.6c.31.31,1.39-.74,1.09-1l-8.87-8.54c-2.63-2.53-6.07-5-7.69-8.36-.1-.2-1.33.6-1.16.95Z"/><path class="cls-3" d="M207.09,191.25c1.46,6.32-3.25,12.4-8.36,15.51-4.85,2.94-11.15,4.32-16.55,2.17-.46-.18-.28,1.25.2,1.44,11.45,4.57,28.46-6.2,25.43-19.32-.21-.88-.93-.67-.72.2Z"/><path class="cls-3" d="M168.67,131.76q-5.64-2-11.13-4.4c-1.67-.72-3.31-1.55-5-2.2a14.48,14.48,0,0,0-2.58-.78c-.5-.09-2.65.05-3-.21l.36,1.24h-.11c.58.34.42-1.11,0-1.35L147,124a.23.23,0,0,0-.36.1l-.12.19a1.15,1.15,0,0,0,.35,1.25c1,.67,2.86.18,4.13.51a39.47,39.47,0,0,1,5.88,2.41c3.93,1.74,7.92,3.32,12,4.77.48.17.28-1.27-.2-1.45Z"/><path class="cls-3" d="M141.77,160.2c-1-.81-2.41.11-2.88,1.1A1.84,1.84,0,0,0,140.1,164a2.48,2.48,0,0,0,2.44-2.1c.21-1.21-.61-2.46-1.92-1.94a1.22,1.22,0,0,0-.71.66c-.07.25,0,.38.32.31.6-.14,1,.4,1.06.93,0,.29,0,1-.25,1.06-.45.14-.93-.59-1-.92a1.4,1.4,0,0,1,0-.73c.11-.4.37-.31.63-.1s1.4-.75,1.18-.93Z"/><path class="cls-2" d="M103.79,119.4a41.75,41.75,0,0,1,2.07,4.76c.08.22.69.61.55.22a43.52,43.52,0,0,0-2.12-4.91c-.12-.24-.72-.5-.5-.07Z"/><path class="cls-2" d="M104.3,119.42l1.73-1.11c.6-.38,1.41-1.15,2.14-1,.33,0,0-.58-.29-.61-.71-.1-1.29.41-1.86.78l-2.22,1.43c-.2.12.27.7.5.55Z"/><path class="cls-2" d="M106.75,124.54l3.41-1.92c.2-.11-.26-.69-.51-.56l-3.4,1.93c-.2.11.26.69.5.55Z"/><path class="cls-2" d="M107.64,117.23a16.53,16.53,0,0,1,2.47,5.21c.07.23.67.62.56.22a18,18,0,0,0-2.63-5.53c-.2-.29-.69-.32-.4.1Z"/><path class="cls-2" d="M109,130.37c1.32-.74,2.66-1.43,4-2.05.27-.12-.19-.7-.41-.6-1.41.64-2.79,1.33-4.13,2.09-.2.12.26.7.5.56Z"/><path class="cls-2" d="M108.38,130.18c.86,1.47,1.65,3,2.36,4.54.11.25.69.5.49.06q-1.11-2.42-2.44-4.69c-.19-.31-.66-.34-.41.09Z"/><path class="cls-2" d="M111.25,135a25.65,25.65,0,0,0,4-2.21c.2-.13-.27-.71-.5-.56a25.85,25.85,0,0,1-3.92,2.17c-.27.11.19.7.41.6Z"/><path class="cls-2" d="M112.57,128l2.23,4.64c.12.25.71.51.49.07l-2.23-4.64c-.12-.25-.7-.51-.49-.07Z"/><path class="cls-2" d="M99.54,110.43a29.4,29.4,0,0,1,2.28,4.93c.07.22.68.6.55.22a29.67,29.67,0,0,0-2.34-5.09c-.13-.23-.73-.48-.49-.06Z"/><path class="cls-2" d="M102.44,115.69a20.42,20.42,0,0,1,3.83-2.12c.27-.11-.19-.7-.41-.6a20.35,20.35,0,0,0-3.93,2.17c-.2.14.28.71.51.55Z"/><path class="cls-2" d="M100,110.39a19.34,19.34,0,0,1,3.78-2l-.35-.17a8.8,8.8,0,0,1,1.26,2.29c.36.77.7,1.55,1,2.33.11.26.68.52.5.07-.47-1.14-1-2.27-1.54-3.37-.24-.46-.52-1.38-1-1.64s-.58,0-1,.19c-1.07.56-2.13,1.13-3.19,1.7-.2.1.26.68.5.55Z"/><path class="cls-2" d="M108.66,108.31l0,0,.25,0-.06,0,.29.48c.07-.2,1-.54,1.09-.61l1-.47c.69-.32,1.38-.63,2.09-.92.27-.11-.19-.69-.41-.6-.89.37-1.77.76-2.64,1.18-.39.2-1.5.54-1.65,1-.07.17.15.42.28.49l.06,0s.19.1.24,0l0,0c.16-.24-.37-.75-.5-.56Z"/><path class="cls-2" d="M114.72,105.9a47.82,47.82,0,0,1,6.23-3.44c.91-.38,1.89-.65,2.77-1.1.47-.24,1.62-1.26,2.19-1.08.4.12.07-.5-.16-.57-.48-.15-.43-.11-.9,0-.65.21-1.64,1-2.21,1.29s-1.16.44-1.73.67a46.62,46.62,0,0,0-6.7,3.63c-.2.12.27.7.51.56Z"/><path class="cls-2" d="M113.6,118.42l3.68-2c.2-.1-.25-.68-.5-.55l-3.68,1.94c-.2.11.25.69.5.56Z"/><path class="cls-2" d="M119.22,115.47c1-.6,2.1-1.15,3.19-1.65.27-.13-.19-.71-.41-.61-1.12.52-2.21,1.09-3.28,1.71-.2.11.26.69.5.55Z"/><path class="cls-2" d="M123.86,113.24a51.62,51.62,0,0,1,6.8-3.74c.27-.13-.19-.71-.41-.61a54.21,54.21,0,0,0-6.89,3.79c-.2.13.27.71.5.56Z"/><path class="cls-2" d="M117.79,127.9a117.31,117.31,0,0,1,17.65-8.66c.27-.11-.18-.7-.41-.61a119.51,119.51,0,0,0-17.74,8.71c-.2.12.26.7.5.56Z"/><path class="cls-2" d="M129.45,151.36c-2,.18-.45,3.66,1.2,3.16a1.33,1.33,0,0,0,.62-2,2.57,2.57,0,0,0-2.24-1.27c-.34,0,.06.6.3.61a1.67,1.67,0,0,1,1.49.67,1,1,0,0,1-.4,1.32c-1.19.65-2-1.75-.56-1.87.25,0-.15-.63-.41-.61Z"/><path class="cls-2" d="M131,150.73a9.08,9.08,0,0,1,1.46,1.86c.13.22.65.4.45,0a2.74,2.74,0,0,1-.45-1.83,1.11,1.11,0,0,1,1-.88c.25,0-.16-.63-.41-.6a1.34,1.34,0,0,0-1.15,1.16,3.57,3.57,0,0,0,.54,2.08h.45a9.78,9.78,0,0,0-1.73-2.16c-.36-.35-.38.15-.13.39Z"/><path class="cls-2" d="M136.43,148.05a1.69,1.69,0,0,0-1.79,1.8,1.39,1.39,0,0,0,1.19,1.25c1,0,1.42-1.14,1.33-2a10.9,10.9,0,0,0-1.8-4.15c-.08-.14-.6-.43-.47-.07a11.32,11.32,0,0,0,1.85,3.5c.32.4,1.19,1.78,1.86,1.33.2-.14-.28-.71-.51-.56s-1.43-1.52-1.54-1.7a10.75,10.75,0,0,1-1.11-2.35l-.48-.06a8.77,8.77,0,0,1,1.59,3.92,1.24,1.24,0,0,1-.24,1c-.34.44-.49.58-.81.08-.5-.78.47-1.41,1.22-1.41.34,0-.05-.61-.29-.61Z"/><path class="cls-2" d="M138.63,148.11a5.36,5.36,0,0,0,2.24-1.82c.06-.08.12-.2,0-.26-1.14-.66-3,.63-2.48,2a1.51,1.51,0,0,0,1.7.87,3,3,0,0,0,1.71-1.61c.08-.15,0-.18-.15-.18s-.34.2-.42.33c-.29.5-.65,1.09-1.32.93a1.35,1.35,0,0,1-.82-.6c-.57-.91.42-1.67,1.27-1.18v-.25c-.53.65-1.26,1.06-1.78,1.69,0,0-.09.16,0,.12Z"/><path class="cls-2" d="M141.41,145.21l1.34,2c.12.19.71-.25.58-.46a2,2,0,0,1,.66-2.83c.3-.15.41-.61-.05-.38a2.67,2.67,0,0,0-1.19,3.67l.58-.46-1.33-2c0-.07-.65.37-.59.47Z"/><path class="cls-2" d="M105.27,119.37a10.88,10.88,0,0,1,2.51,2.42c.16.2.55-.28.59-.4a72.88,72.88,0,0,1,2.71-7.59c.16-.37-.47,0-.56.16a70.29,70.29,0,0,0-2.75,7.73l.58-.4a11.26,11.26,0,0,0-2.51-2.41c-.18-.13-.69.41-.57.49Z"/><path class="cls-3" d="M160.58,43.24c0,7.91-.2,15.83,0,23.74,0,.44,1.11,1.23,1.09.6-.18-7.91,0-15.82,0-23.74,0-.44-1.1-1.23-1.1-.6Z"/><path class="cls-3" d="M161.43,44.09c11.95-.15,23.91-.34,35.86-.05.63,0-.15-1.09-.6-1.1-11.95-.29-23.91-.1-35.86.05-.63,0,.15,1.1.6,1.1Z"/><path class="cls-3" d="M196.44,43.19q0,12,0,24.07c0,.43,1.1,1.23,1.1.6q0-12,0-24.07c0-.44-1.1-1.23-1.1-.6Z"/><path class="cls-3" d="M161.07,43.65a109.22,109.22,0,0,0,8.12,9.07c2.59,2.47,5.57,5.29,9.14,6.19,4,1,7.16-1.49,10-4a59.15,59.15,0,0,0,9.16-10.38c.29-.42-.73-1.35-1-1a60.16,60.16,0,0,1-7,8.41c-2.54,2.5-5.75,5.87-9.51,6.06-4.3.21-8-3.57-10.87-6.37-2.62-2.57-4.92-5.42-7.28-8.23-.41-.49-1.34-.5-.74.22Z"/><path class="cls-3" d="M174.16,56.3a150.21,150.21,0,0,1-13,10.29c-.36.25.56,1.28,1,1a150.1,150.1,0,0,0,13-10.28c.35-.32-.61-1.32-1-1Z"/><path class="cls-3" d="M184.12,57.22c3.88,3.65,7.92,7.11,12,10.49.4.34,1.44-.57,1.09-.86-4.1-3.38-8.15-6.84-12-10.48-.34-.33-1.39.57-1.09.85Z"/><path class="cls-3" d="M161.42,67.83c12,.38,23.92-.1,35.88.27.62,0-.16-1.08-.6-1.09-12-.38-23.93.1-35.88-.28-.63,0,.15,1.09.6,1.1Z"/><path class="cls-3" d="M178,73.13a52,52,0,0,0-1.44,10.75c0,.34.65,1.1,1,.91,1.36-.69,2.77-1.28,4.1-2,.52-.3-.47-1.4-.88-1.17-1.33.76-2.74,1.36-4.11,2l1,.9A50.43,50.43,0,0,1,179.11,74c.12-.49-1-1.41-1.16-.88Z"/><path class="cls-3" d="M178.11,73.67a40.92,40.92,0,0,1,9.95,5.27c.82.58.82-.38.23-.79a43.32,43.32,0,0,0-10.56-5.6c-.78-.27-.07,1,.38,1.12Z"/><path class="cls-3" d="M187.46,78.05c-1.2.55-2.3,1.3-3.52,1.8-.53.22.43,1.35.89,1.16,1.22-.5,2.31-1.25,3.51-1.79.53-.24-.43-1.37-.88-1.17Z"/><path class="cls-3" d="M180.65,82a28.44,28.44,0,0,0,1.51,3.15,6.17,6.17,0,0,0,1.34,2c1.24,1,3,.24,3.8-.91.32-.45-.78-1.46-1.06-1.06-.52.71-1.91,1.79-2.63.9a15,15,0,0,1-1.84-3.66c-.11-.28-.41-.7-.75-.75s-.51,0-.37.38Z"/><path class="cls-3" d="M183.82,80.24a30.39,30.39,0,0,0,3.1,5.86c.41.59,1.37.6.79-.23A28,28,0,0,1,185,80.62c-.12-.29-.42-.71-.75-.75s-.52,0-.38.37Z"/><path class="cls-3" d="M177.32,72.72a46.31,46.31,0,0,0-1.51,12.06c0,.37.61,1,1,.9a26.94,26.94,0,0,0,4.62-2.07l-.94-.62c.73,1.43,1.41,4.11,2.87,5s3.3-.68,4.46-1.49c.39-.27-.61-1.38-1.06-1.06-1.1.77-2.43,2.17-3.53,1.08-.83-.81-1.21-2.44-1.74-3.48-.11-.2-.63-.79-.94-.62A28.15,28.15,0,0,1,176,84.52l1,.9a45.39,45.39,0,0,1,1.49-11.82c.12-.49-1-1.4-1.16-.88Z"/><path class="cls-3" d="M214.94,63a37.88,37.88,0,0,1-23.63,34.78,36.83,36.83,0,0,1-45.37-53.14,37.84,37.84,0,0,1,37.73-18c18,2.64,31.11,18.36,31.27,36.38,0,.47,1.19,1.33,1.18.65a39.2,39.2,0,0,0-24-35.68,38,38,0,0,0-47.09,54.81,39,39,0,0,0,39,18.37c18.36-2.86,31.83-19.07,32-37.5C216.13,63.16,215,62.3,214.94,63Z"/><path class="cls-3" d="M179.91,100.36c-3.58,4.57-8.17,8.93-14.41,8.44l.38,1.33c2.82-2.54,5-5.4,5.59-9.21.07-.44-.64-1.62-.76-.84-.59,3.65-2.71,6.36-5.39,8.78-.29.26,0,1.29.37,1.32,6.4.5,11.09-3.83,14.78-8.55.3-.38-.26-1.65-.56-1.27Z"/><path class="cls-2" d="M171.59,99.1a10.59,10.59,0,0,1-.35,3l6.8.51a35,35,0,0,0,2.62-3.17Z"/></svg>