<svg id="img" xmlns="http://www.w3.org/2000/svg" viewBox="0 0 300 200"><defs><style>.cls-1{fill:#004234;}.cls-2{fill:#262626;}.cls-3{fill:#fff;}</style></defs><title>ICON_7d</title><path class="cls-1" d="M261.73,82.79l-.33.07c-.42-.22-.84-.44-1.27-.64a2.11,2.11,0,0,0-1.55-.68c-.08,0-.13,0-.15,0h-.11a4.7,4.7,0,0,1-.61-.65c-.11-.12-.54-.36-.54,0v2.66c-.08.1-.15.21-.22.28l-.82.9a.2.2,0,0,0,0,.2l-.4.24c-.15-.16-.36-.28-.47-.21l-.06,0h0a7.37,7.37,0,0,0-1.55,1.14.13.13,0,0,0-.05.12l-1,.58a.2.2,0,0,0-.08.24l-.54.37a.24.24,0,0,0-.06.09h0L247,90a4.81,4.81,0,0,0-3.7-1.58l-.13-.06a4.15,4.15,0,0,0-.8-.61c-.37-.21-.74-.4-1.12-.57l-1.27-.63a9.42,9.42,0,0,0-1.39-.68,4.81,4.81,0,0,0-.59-.6l-.49-.38c-.28-.23-1-.67-1.38-.47l-.05,0c-.55-.63-1.41-1.2-2.1-.78l-3.7,2.27a.48.48,0,0,0-.17.18,13.85,13.85,0,0,0-1.76.25c-1.4.41,1.07,3.07,2.19,2.89a5.29,5.29,0,0,1,.8,0,13.19,13.19,0,0,0,5.3,2.68l1.31.75c1.58.91,3.2,2.19,5,2.64.24.06.64.16.85-.08a3.54,3.54,0,0,0,.81-1.49,4.26,4.26,0,0,0,2.93-1.51h0q5.66-3.16,11.2-6.54a15.66,15.66,0,0,0,3-1.92h0c.19-.05.36-.12.56-.16S262,82.75,261.73,82.79Z"/><path class="cls-1" d="M62.13,45.79,62,45.54a2.79,2.79,0,0,0-3.16-1.29l-.2.07a3.41,3.41,0,0,0-.64.3c-1.42,0-3.23-.43-4.47-.48-.86,0-1.72,0-2.57,0a.89.89,0,0,0-.61-.29,114.14,114.14,0,0,0-13.84-.26,3.12,3.12,0,0,0-.57-.32c-3.67-1.5-6.67,3.61-8.64,5.81a2.72,2.72,0,0,0-.72,2.26,34.06,34.06,0,0,0-3.06,5.18c-1.05,2.21-2.44,5-1.7,7.34l-.06.3a2.4,2.4,0,0,0-.46,1.1c0,.26-.06.5-.09.75h0v.13a17.42,17.42,0,0,0-.12,2.69c-1.43,3.77-.13,8.36,1.27,12.15a18.38,18.38,0,0,0,2.52,6.24A18.7,18.7,0,0,0,30.05,95c2,1.7,4.07,1.93,6.58,2.22,3.24.38,6.44,1,9.67.42l3.73.52a3.14,3.14,0,0,0,2.64-.09l.22-.1c1.61-.71,1.72-3.14.64-4.38.4-.64.62-3.22.75-3.78a3.06,3.06,0,0,0-.1-1.75c.09-.35.17-.72.25-1.11,1.08-5.76,2-11.57,2.8-17.38a5.7,5.7,0,0,0,0-1.16c.87-4.15,1.7-8.29,2.29-12.47a2.49,2.49,0,0,0,1.65-1.84,31.32,31.32,0,0,0,.9-5.48A3.18,3.18,0,0,0,62.13,45.79Zm-13,18.44-.15.11-.77.69a4.84,4.84,0,0,0-.76.37c-1.55.92-3.24,1.79-4.73,2.85a21.77,21.77,0,0,0-7.89-2.46l-1.85-.7c.16-3.57-.4-7.14.05-10.69a1.43,1.43,0,0,0,.15-.11,35.79,35.79,0,0,1,6.47-4.46,2.8,2.8,0,0,0,1.1-.08c1.77-.46,4.89,1.84,6.49,2.6.9.43,1.81.84,2.72,1.22C49.64,57.12,49.37,60.68,49.09,64.23Z"/><path class="cls-1" d="M185.61,59.31c0-2.32-1.24-4.9-2.38-6.87a1.32,1.32,0,0,0-1-.64l-.12-.09a11.78,11.78,0,0,0-.88-2.37,4,4,0,0,0-1.69-1.67c-2-4-5-7.2-8.83-7.77a1.48,1.48,0,0,0-1.7-1.16,6.41,6.41,0,0,0-4.16,2.3,1.58,1.58,0,0,0-.37.68c-2.36.46-5.12,2.45-7.44,4.45a1.65,1.65,0,0,0-.43.06,12,12,0,0,0-5,2.89,1.3,1.3,0,0,0-.41.72A38.31,38.31,0,0,0,145.39,54a1.2,1.2,0,0,0-1.3,0q-6.18,4.38-12.23,8.94a1.66,1.66,0,0,0-.32.33c-.69.49-1.36,1-2,1.55a16.12,16.12,0,0,0-3.69,2,1.4,1.4,0,0,0-.51.66l-1.67,1.08a5.91,5.91,0,0,0-1.66,1.2,4.71,4.71,0,0,0-.73,1,4,4,0,0,0-1.22,1,12.88,12.88,0,0,0-2.37,10.33,4.77,4.77,0,0,0-.17,2.37,18.57,18.57,0,0,0,.57,2.42L118,87a1.31,1.31,0,0,0-.17,1.59l.27.46a1.22,1.22,0,0,0,0,1.38c.31.45.64.87,1,1.29a1.38,1.38,0,0,0,.37.63l1,1A10.62,10.62,0,0,0,124,97.39a12.09,12.09,0,0,0,3.53,3l0,0a27.13,27.13,0,0,0,11.5,6,1.42,1.42,0,0,0,.77,0,1.27,1.27,0,0,0,.67.15c.78.94,2.61.7,2.47-.78l-.25-2.25a3.63,3.63,0,0,0,1-3c-.11-1.06,0-4.64-.78-6.22.8-.76,1.57-1.5,2.31-2.14a4,4,0,0,0,1.38-3,125.47,125.47,0,0,0,10.52-7.07c2.59-1.8,5.3-3.43,7.41-5.7a4,4,0,0,0,2.34-.65,68.49,68.49,0,0,0,10.06-8.14,4.83,4.83,0,0,0,1-1.48,5.09,5.09,0,0,0,2.09-1,3.48,3.48,0,0,0,1-.72,7.1,7.1,0,0,0,.78-1,1.31,1.31,0,0,0,1.34,0,5.37,5.37,0,0,0,1-.79,11,11,0,0,1,1.66-.91C187,61.19,186.59,59.74,185.61,59.31ZM145.12,79.07c-1.09.73-2.22,1.47-3.36,2.08-.18-.1-.35-.2-.53-.28a26.32,26.32,0,0,0-3.83-1.25,5.12,5.12,0,0,0-1.12-1A16.81,16.81,0,0,0,133.6,77a.31.31,0,0,1-.09-.07,1.35,1.35,0,0,0,.14-.69,98,98,0,0,1,0-10.84s0-.1,0-.16a37.27,37.27,0,0,1,6.7-3.7c.6-.26,1.21-.51,1.83-.73l.15-.07a33.26,33.26,0,0,1,9.41,5.13h0a3.52,3.52,0,0,0,0,1.55,27.8,27.8,0,0,0,.25,7C149.67,75.93,147.41,77.52,145.12,79.07ZM173,54.79c0,1.3-.13,2.8-.07,4.26a4.69,4.69,0,0,0-.33.72A4.5,4.5,0,0,0,170.3,61c-.63.62-1.26,1.2-1.91,1.78a5.53,5.53,0,0,0-1.36.48l-.31.15a3.79,3.79,0,0,0-1.24,1.07,5,5,0,0,0-1.62-.78L159,62.35a1.53,1.53,0,0,0-.87-1c-2.82-1.15-1.38-7.08-1.53-9.59a1.64,1.64,0,0,0-.16-.58c2.48-1.53,4.63-3.53,7.07-5.13a1.34,1.34,0,0,0,1.19.71c2.65-.2,5.55,1.75,8.07,3.62a5.15,5.15,0,0,0,.35,3.46A4.62,4.62,0,0,0,173,54.79Z"/><path class="cls-2" d="M190.58,70.22a41.54,41.54,0,0,1-25.86,38.13,40.46,40.46,0,0,1-49.8-58.51A41.49,41.49,0,0,1,156.4,30.28c19.67,3,34,20.22,34.18,39.94,0,.47,1.19,1.33,1.18.65A42.89,42.89,0,0,0,165,31.59a41.62,41.62,0,0,0-51.09,60.15,42.71,42.71,0,0,0,43,20.19c20-3.2,34.73-20.92,34.9-41.06C191.77,70.4,190.58,69.54,190.58,70.22Z"/><path class="cls-2" d="M187,70.22A37.88,37.88,0,0,1,163.31,105a36.83,36.83,0,0,1-45.37-53.14,37.86,37.86,0,0,1,37.74-18c18,2.64,31.1,18.36,31.27,36.38,0,.47,1.19,1.33,1.18.65a39.22,39.22,0,0,0-23.95-35.68A38,38,0,0,0,117.09,90a39,39,0,0,0,39,18.37c18.37-2.86,31.83-19.07,32-37.5C188.14,70.4,187,69.54,187,70.22Z"/><path class="cls-2" d="M144.14,111.89c0,1.11-.09,2.24-.06,3.36,0,.44,1.25-.29,1.24-.77,0-1.14.11-2.28,0-3.41,0-.2-1.18.49-1.2.82Z"/><path class="cls-2" d="M154.38,112.42c0,.94,0,1.89,0,2.83,0,.32.55.06.67,0a1,1,0,0,0,.56-.76v-2.82c0-.32-.55-.07-.66,0a1,1,0,0,0-.58.76Z"/><path class="cls-2" d="M144.12,115.34c2.79,2.61,8.72,2.79,11.28-.3.64-.78-.3-.89-.79-.35-2.23,2.37-7.1,1.78-9.33-.3-.29-.27-1.39.73-1.16,1Z"/><path class="cls-2" d="M146.27,117.13c0,16.91,0,33.83.22,50.74,0,.42,1.18-.37,1.19-.84.24-16.87.1-33.79-.17-50.66,0-.39-1.24.32-1.24.76Z"/><path class="cls-2" d="M146.52,167.15c-.74,2.25,1.63,4.55,3.84,4.12a4.32,4.32,0,0,0,3.42-4.86c-.11-.48-1.29.37-1.21.82.34,1.82-1.16,3.54-3,2.78a3.29,3.29,0,0,1-1.86-3.63c0-.21-1.06.5-1.15.77Z"/><path class="cls-2" d="M152.32,117.15c-.33,16.58.1,33.22.25,49.8,0,.41,1.19-.37,1.19-.84.14-16.57.08-33.19-.23-49.76,0-.24-1.2.42-1.21.8Z"/><path class="cls-2" d="M281.5,61.69a41,41,0,0,1-63.82,42.69,40.88,40.88,0,0,1-14.6-45.3,41.49,41.49,0,0,1,36.63-28.42,40.71,40.71,0,0,1,41.79,31c.11.47,1.32,1.2,1.12.38A42.94,42.94,0,0,0,248,29.91,41.66,41.66,0,0,0,211.52,100a42.4,42.4,0,0,0,46.92,10C277,102.06,287,81.6,282.62,62.07,282.51,61.6,281.31,60.86,281.5,61.69Z"/><path class="cls-2" d="M278.23,63.09a37.18,37.18,0,0,1-17,39.75,37.85,37.85,0,0,1-42-2.08,37,37,0,0,1-12.51-42.2,37.44,37.44,0,0,1,71.43,4.53c.24.94.7-.28.58-.76a37.93,37.93,0,0,0-71.6-7,39.2,39.2,0,0,0,7.58,43.07,38.27,38.27,0,0,0,43.67,7.52c16.17-7.88,24.25-26.29,20.35-43.6C278.6,61.38,278.13,62.6,278.23,63.09Z"/><path class="cls-2" d="M245.63,112.81c.23,1.07.42,2.16.7,3.22.13.5,1.35-.32,1.24-.77-.29-1.12-.46-2.27-.77-3.38,0-.09-1.25.55-1.17.93Z"/><path class="cls-2" d="M255.71,110.92c.22.92.44,1.84.65,2.76.12.49,1.34-.32,1.24-.78-.22-.91-.43-1.83-.65-2.74-.11-.5-1.34.31-1.24.76Z"/><path class="cls-2" d="M246.37,116.12c3.39,2,9.36.71,11.2-2.94.37-.72-.89-.3-1.1.08-1.63,2.86-6.32,3.36-9,1.88-.33-.18-1.3.86-1.1,1Z"/><path class="cls-2" d="M248.89,117.37c3.93,16.45,7.81,32.91,11.8,49.35.12.48,1.3-.39,1.19-.84q-5.64-24.69-11.75-49.28c-.11-.44-1.34.36-1.24.77Z"/><path class="cls-2" d="M260.55,166.1a3.49,3.49,0,0,0,4.91,3,4.13,4.13,0,0,0,2.18-5.34c-.17-.35-1.34.52-1.16.9.63,1.41.16,3.66-1.73,3.65a3.21,3.21,0,0,1-3-3.1c0-.25-1.17.49-1.18.85Z"/><path class="cls-2" d="M254.78,116c3.57,16.21,7.73,32.3,11.63,48.43.11.47,1.29-.39,1.19-.84-3.73-16.18-7.64-32.33-11.62-48.45,0-.15-1.28.51-1.2.86Z"/><path class="cls-2" d="M98.91,70.22a41.53,41.53,0,0,1-25.85,38.13A41,41,0,0,1,26.93,97a41,41,0,0,1,37.8-66.72c19.67,3,34,20.22,34.18,39.94,0,.47,1.19,1.33,1.19.65A42.92,42.92,0,0,0,73.31,31.59,41.62,41.62,0,0,0,22.23,91.74a42.68,42.68,0,0,0,43,20.19c20-3.2,34.74-20.92,34.91-41.06C100.1,70.4,98.92,69.54,98.91,70.22Z"/><path class="cls-2" d="M95.28,70.22A37.88,37.88,0,0,1,71.65,105,37.28,37.28,0,0,1,29.73,94.68,37.38,37.38,0,0,1,64,33.84C82,36.48,95.12,52.2,95.28,70.22c0,.47,1.19,1.33,1.18.65A39.2,39.2,0,0,0,72.51,35.19,38,38,0,0,0,25.42,90a39,39,0,0,0,39.05,18.37c18.36-2.86,31.83-19.07,32-37.5C96.47,70.4,95.29,69.54,95.28,70.22Z"/><path class="cls-2" d="M52.48,111.89c-.06,1.11-.09,2.24-.07,3.36,0,.44,1.25-.29,1.24-.77,0-1.14.11-2.28,0-3.41,0-.2-1.17.49-1.19.82Z"/><path class="cls-2" d="M62.72,112.42v2.83c0,.32.56.06.67,0a1,1,0,0,0,.56-.76c0-.94,0-1.88,0-2.82,0-.32-.56-.07-.67,0a1,1,0,0,0-.57.76Z"/><path class="cls-2" d="M52.45,115.34c2.79,2.61,8.72,2.79,11.28-.3.65-.78-.29-.89-.79-.35-2.22,2.37-7.1,1.78-9.32-.3-.3-.27-1.4.73-1.17,1Z"/><path class="cls-2" d="M54.6,117.13c0,16.91,0,33.83.22,50.74,0,.42,1.18-.37,1.19-.84.24-16.87.11-33.79-.17-50.66,0-.39-1.24.32-1.24.76Z"/><path class="cls-2" d="M54.85,167.15c-.74,2.25,1.63,4.55,3.84,4.12a4.32,4.32,0,0,0,3.42-4.86c-.11-.48-1.29.37-1.2.82.33,1.82-1.17,3.54-3,2.78A3.31,3.31,0,0,1,56,166.38c0-.21-1.06.5-1.15.77Z"/><path class="cls-2" d="M60.65,117.15c-.33,16.58.1,33.22.26,49.8,0,.41,1.18-.37,1.19-.84.14-16.57.07-33.19-.24-49.76,0-.24-1.2.42-1.21.8Z"/><path class="cls-2" d="M76.86,71c0,3.66,0,7.33,0,11,0,.47,1.19,1.33,1.19.65,0-3.67,0-7.33-.06-11,0-.47-1.18-1.33-1.18-.65Z"/><path class="cls-2" d="M78.14,71.93,86,67.2c.39-.24-.58-1.35-1.06-1.06l-7.83,4.73c-.39.24.58,1.35,1.06,1.06Z"/><path class="cls-2" d="M78,83c2.67-1.48,5.24-3.13,7.91-4.6.52-.29-.46-1.4-.88-1.16-2.67,1.47-5.24,3.12-7.91,4.59-.52.29.46,1.4.88,1.17Z"/><path class="cls-2" d="M75.26,65.12c3.46.67,6.93,1.3,10.37,2.11.82.19.09-1-.38-1.13-3.52-.82-7.08-1.47-10.64-2.16-.61-.12.19,1.09.65,1.18Z"/><path class="cls-2" d="M74.49,64a57.2,57.2,0,0,0-8.1,4.5c-.39.24.58,1.36,1.06,1.06a55.76,55.76,0,0,1,7.93-4.4c.52-.23-.43-1.36-.89-1.16Z"/><path class="cls-2" d="M67.27,69.61l10.37,2.23c.83.18.1-1-.38-1.13L66.9,68.49c-.83-.18-.1,1,.37,1.12Z"/><path class="cls-2" d="M66.6,69c.07,3.55.12,7.09.2,10.64,0,.47,1.19,1.33,1.18.65-.08-3.55-.12-7.09-.2-10.64,0-.47-1.2-1.33-1.18-.65Z"/><path class="cls-2" d="M67.58,80.48q5,1.14,9.89,2.32c.82.19.1-1-.38-1.13q-4.94-1.17-9.89-2.31c-.82-.19-.1,1,.38,1.12Z"/><path class="cls-2" d="M84.89,66.65c-.08,3.61,0,7.21,0,10.81,0,.47,1.18,1.33,1.18.65,0-3.6,0-7.21,0-10.81,0-.47-1.17-1.33-1.19-.65Z"/><path class="cls-2" d="M33,43.37c10,.12,20,1.31,30,1.43l-.91-1A403.14,403.14,0,0,0,53,97.88c-.06.51,1.11,1.37,1.16.89a402.63,402.63,0,0,1,9.16-54.12c.1-.42-.5-1-.91-1-10-.12-20-1.3-30-1.42-.67,0,.17,1.18.65,1.18Z"/><path class="cls-2" d="M147.52,90.38l39.12-28.92c.39-.29-.62-1.39-1.06-1.06Q166,74.86,146.45,89.31c-.38.29.62,1.39,1.07,1.07Z"/><path class="cls-2" d="M142.42,70.58q-.15,5.24,0,10.48c0,.47,1.19,1.32,1.18.64q-.11-5.24,0-10.47c0-.48-1.16-1.34-1.18-.65Z"/><path class="cls-2" d="M143.82,71.12A76.26,76.26,0,0,1,152,65.34c.39-.24-.58-1.35-1.06-1.06a76.26,76.26,0,0,0-8.17,5.78c-.38.31.64,1.4,1.06,1.06Z"/><path class="cls-2" d="M134.2,67.3a65.83,65.83,0,0,0,8.94,3.25c.82.19.09-1-.38-1.13a66.77,66.77,0,0,1-8.94-3.24c-.76-.3-.06.95.38,1.12Z"/><path class="cls-2" d="M133.58,78.32c3.14,1,6.13,2.38,9.27,3.38.79.26.08-1-.38-1.12-3.13-1-6.13-2.38-9.26-3.39-.8-.25-.08,1,.37,1.13Z"/><path class="cls-2" d="M142.27,61.16q4.65,1.59,9.16,3.53c.74.32,0-.94-.38-1.12q-4.52-1.95-9.15-3.54c-.79-.27-.08,1,.37,1.13Z"/><path class="cls-2" d="M132.91,65.91l-.18.07.7.32-.15-.17.32.7c.21-.58,1.21-1.09,1.68-1.46.75-.56,1.5-1.12,2.28-1.64a19.37,19.37,0,0,1,5.16-2.49c.53-.16-.39-1.31-.88-1.16a20.15,20.15,0,0,0-5.34,2.59c-.87.58-1.7,1.2-2.52,1.83-.52.41-1.31.8-1.55,1.45-.09.25.18.55.32.71l.15.17c.13.15.49.41.71.32l.18-.08c.53-.21-.42-1.35-.88-1.16Z"/><path class="cls-2" d="M156.89,61.61q4.19,1.74,8.5,3.07c.8.25.08-1-.37-1.12q-4.34-1.34-8.5-3.08c-.76-.31-.06,1,.37,1.13Z"/><path class="cls-2" d="M156.9,51.12l-.1,0,.77,1c0,.35,7.85,2.89,8.64,3.17s.06-1-.38-1.12l-5-1.83c-1.23-.45-2.79-1.36-4.11-1.38-.09,0-.24,0-.25.15l0,.13c-.06.45.39.85.77,1l.1,0c.75.31.05-1-.38-1.13Z"/><path class="cls-2" d="M165.34,54.87,165.11,64c0,.47,1.17,1.33,1.19.65l.22-9.17c0-.48-1.17-1.34-1.18-.65Z"/><path class="cls-2" d="M166.11,55l7-5c.39-.28-.61-1.38-1.06-1.06l-7,5c-.38.28.61,1.38,1.06,1.06Z"/><path class="cls-2" d="M163.74,47.11c2.87-.11,5.75,1.6,8.34,2.68.75.32,0-.94-.38-1.12-2.7-1.13-5.61-2.85-8.61-2.75-.69,0,.17,1.2.65,1.19Z"/><path class="cls-2" d="M168.78,37.73C152.12,47.86,135.46,58.16,120,70.12c-.38.29.63,1.39,1.06,1.06,15.43-12,32.09-22.26,48.75-32.39.38-.24-.58-1.35-1.06-1.06Z"/><path class="cls-2" d="M120.75,69.53c-6,4.26-3.9,13.82-3.65,20,0,.48,1.21,1.32,1.19.65C118,84.1,116,74.74,121.81,70.59c.39-.28-.61-1.38-1.06-1.06Z"/><path class="cls-2" d="M146.29,89.36a8.87,8.87,0,0,0-3.73,6.85c-.35,3.63-.17,7.36-.22,11,0,.47,1.17,1.33,1.18.65,0-3.2,0-6.42.14-9.61.16-3.46,1-5.69,3.69-7.84.39-.31-.63-1.4-1.06-1.06Z"/><path class="cls-2" d="M186.68,67.69a423.56,423.56,0,0,1-37.36,27.48c-.39.26.6,1.37,1.06,1.06a423.56,423.56,0,0,0,37.36-27.48c.38-.32-.65-1.41-1.06-1.06Z"/><path class="cls-2" d="M146.62,89.51c-2.49.42-4.08,4.51-2.44,6.48,1.89,2.27,5.54,1,7.5-.48.39-.28-.62-1.38-1.06-1.06-1.17.86-4.72,2.67-5.67.87-.84-1.58.85-4.36,2.55-4.65.5-.08-.37-1.25-.88-1.16Z"/><path class="cls-2" d="M151.3,89.63a2.54,2.54,0,0,0-3.07.67,2.4,2.4,0,0,0,.52,3,2,2,0,0,0,2.94.11c1-1.07.49-2.57-.25-3.6-.14-.2-.56-.59-.84-.47a.61.61,0,0,0-.41.74,1.24,1.24,0,0,0,.63.82c.18.09.62.18.56-.17l.1-.23-.83-.46a1.86,1.86,0,0,1,0,2.23c-.32.41-1.3,1-1.55.24-.51-1.48,1.43-2.2,2.53-1.73.3.13.43-.11.37-.37a1.24,1.24,0,0,0-.75-.75Z"/><path class="cls-2" d="M158.21,84.81a2.56,2.56,0,0,0-3.07.68,2.38,2.38,0,0,0,.52,3,2,2,0,0,0,2.94.12c1-1.07.49-2.57-.25-3.61-.14-.19-.56-.58-.84-.46a.61.61,0,0,0-.41.74,1.22,1.22,0,0,0,.63.82c.18.09.62.18.56-.18l.1-.22-.83-.47a1.86,1.86,0,0,1,0,2.24c-.31.4-1.29,1-1.54.24-.51-1.49,1.43-2.2,2.52-1.73.31.13.44-.12.38-.38a1.29,1.29,0,0,0-.75-.75Z"/><path class="cls-2" d="M164.51,79.93a2.55,2.55,0,0,0-3.07.68,2.37,2.37,0,0,0,.52,3,2,2,0,0,0,2.94.12c1-1.07.49-2.57-.25-3.61-.14-.19-.56-.58-.84-.46a.6.6,0,0,0-.41.74,1.22,1.22,0,0,0,.63.82c.17.09.62.18.55-.17l.11-.23-.84-.47a1.85,1.85,0,0,1,.05,2.24c-.32.4-1.29,1-1.54.24-.52-1.49,1.43-2.2,2.52-1.73.31.13.43-.12.38-.38a1.29,1.29,0,0,0-.75-.75Z"/><path class="cls-2" d="M170.54,75.88a2.54,2.54,0,0,0-3.07.67,2.37,2.37,0,0,0,.52,3,2,2,0,0,0,2.94.12c1-1.07.49-2.57-.25-3.6-.14-.2-.56-.59-.84-.47a.6.6,0,0,0-.41.74,1.22,1.22,0,0,0,.63.82c.17.09.62.18.55-.17l.11-.23-.84-.47a1.85,1.85,0,0,1,.05,2.24c-.32.4-1.29,1-1.54.24-.51-1.49,1.43-2.2,2.52-1.73.31.13.44-.11.38-.37a1.24,1.24,0,0,0-.75-.75Z"/><path class="cls-2" d="M176.5,71.26a2.55,2.55,0,0,0-3.07.67,2.39,2.39,0,0,0,.52,3,2,2,0,0,0,2.94.11c1-1.07.49-2.56-.25-3.6-.14-.2-.56-.59-.84-.47a.61.61,0,0,0-.41.74,1.19,1.19,0,0,0,.63.82c.17.09.62.18.55-.17l.11-.22-.84-.47a1.85,1.85,0,0,1,0,2.24c-.32.4-1.29,1-1.54.23-.52-1.48,1.43-2.19,2.52-1.73.31.13.44-.11.38-.37a1.29,1.29,0,0,0-.75-.75Z"/><path class="cls-2" d="M182.62,66.86a2.54,2.54,0,0,0-3.07.67,2.39,2.39,0,0,0,.52,3,2,2,0,0,0,2.94.11c1-1.07.49-2.57-.25-3.6-.14-.2-.56-.59-.84-.47a.6.6,0,0,0-.41.74,1.22,1.22,0,0,0,.63.82c.18.09.62.18.55-.17l.11-.23-.84-.46a1.83,1.83,0,0,1,0,2.23c-.32.4-1.29,1-1.54.24C180,68.23,181.9,67.51,183,68c.31.13.44-.11.38-.37a1.24,1.24,0,0,0-.75-.75Z"/><path class="cls-3" d="M121.93,89.83c3.2,1.16,6,3.27,8.84,5.1l8.65,5.57-.29-.52-.26.19c-.2.14.3.69.53.53l.26-.19c.19-.13-.2-.46-.28-.51l-9.48-6.1c-2.63-1.69-5.19-3.56-8.16-4.63-.39-.14,0,.48.19.56Z"/><path class="cls-3" d="M122.13,83q9.74,5.2,19.09,11c.41.26.19-.35,0-.5q-9.36-5.83-19.09-11c-.43-.23-.2.37,0,.49Z"/><path class="cls-3" d="M122.85,74.64q10.74,5.63,20.91,12.25c.41.26.19-.35,0-.5q-10.16-6.61-20.91-12.25c-.43-.23-.2.37,0,.5Z"/><path class="cls-3" d="M130,69.51c1.06.57,2.12,1.12,3.21,1.64.44.21.21-.38,0-.5-1.09-.51-2.15-1.07-3.2-1.64-.44-.23-.21.37,0,.5Z"/><path class="cls-3" d="M147,78.68c1.5.86,3,1.75,4.37,2.75.41.29.41-.19.12-.4-1.45-1-3-2-4.52-2.84-.43-.25-.2.36,0,.49Z"/><path class="cls-3" d="M151.45,70.89l6.76,4.32c.41.26.19-.36,0-.5l-6.76-4.31c-.41-.26-.18.35,0,.49Z"/><path class="cls-3" d="M144.79,58.64c6.59,3.52,13.29,6.91,19.42,11.2.41.29.41-.19.11-.4-6.18-4.33-12.93-7.74-19.56-11.29-.44-.23-.21.36,0,.49Z"/><path class="cls-3" d="M151.76,53.45a30.37,30.37,0,0,1,4.51,2.3c.41.26.19-.35,0-.49a31.29,31.29,0,0,0-4.65-2.37c-.38-.15,0,.47.18.56Z"/><path class="cls-3" d="M169.19,61.77l4.14,2.42c.42.24.2-.36,0-.5l-4.14-2.41c-.42-.25-.2.36,0,.49Z"/><path class="cls-3" d="M159.7,47.3c.42.17.81.4,1.23.58.16.07.2-.06.19-.19s-.24-.31-.38-.37c-.42-.18-.81-.41-1.23-.59-.16-.06-.2.07-.19.19s.24.32.38.38Z"/><path class="cls-3" d="M172.6,53.46q4.08,2.58,8.21,5.11c.41.26.19-.35,0-.49q-4.12-2.53-8.21-5.12c-.41-.26-.19.35,0,.5Z"/><path class="cls-3" d="M167.21,43a150.63,150.63,0,0,1,14.62,8.71c.41.26.19-.36,0-.5a150.63,150.63,0,0,0-14.62-8.71c-.44-.21-.21.38,0,.5Z"/><path class="cls-2" d="M53.27,98a197.84,197.84,0,0,1-22.91-2.24c-.63-.1.18,1.11.65,1.18a197.62,197.62,0,0,0,22.91,2.24c.66,0-.17-1.16-.65-1.18Z"/><path class="cls-3" d="M27.05,81.36a130.68,130.68,0,0,1,13.39,1.41c.31,0-.09-.55-.32-.59a131,131,0,0,0-13.39-1.41c-.33,0,.08.58.32.59Z"/><path class="cls-2" d="M33.3,65.2q4.58,1.67,9.07,3.57c.75.32.05-.94-.38-1.12q-4.49-1.91-9.07-3.58c-.77-.28-.06,1,.38,1.13Z"/><path class="cls-2" d="M41.82,57.79l-.16,9.59c0,.47,1.17,1.34,1.18.65L43,58.44c0-.48-1.17-1.34-1.18-.65Z"/><path class="cls-2" d="M42.85,68.69c2.43-1.79,5.06-3.3,7.38-5.25.38-.32-.65-1.41-1.06-1.06-2.32,1.95-5,3.46-7.38,5.25-.39.29.62,1.39,1.06,1.06Z"/><path class="cls-2" d="M42.86,58.44l7.37-4.77c.39-.25-.59-1.36-1.06-1.06L41.8,57.38c-.38.25.6,1.37,1.06,1.06Z"/><path class="cls-2" d="M34.35,55.27c2.55,1,5.1,2,7.65,3,.76.3.06-1-.38-1.13-2.54-1-5.1-2-7.64-3-.77-.3-.07,1,.37,1.12Z"/><path class="cls-2" d="M32.67,53.79c-.14,3.5-.15,7-.15,10.52,0,.47,1.18,1.33,1.18.65,0-3.51,0-7,.15-10.53,0-.47-1.16-1.33-1.18-.64Z"/><path class="cls-2" d="M33.79,54.64a34.73,34.73,0,0,1,7.78-4.73c.53-.24-.43-1.37-.88-1.16a35.33,35.33,0,0,0-8,4.83c-.39.31.64,1.4,1.06,1.06Z"/><path class="cls-2" d="M41.32,49.89a84,84,0,0,1,8.48,3.3c.89.41.43-.76-.08-1a86.73,86.73,0,0,0-8.78-3.43c-.79-.26-.08,1,.38,1.12Z"/><path class="cls-2" d="M49.17,52.37c0,3.41-.06,6.81-.06,10.22,0,.47,1.18,1.32,1.18.64,0-3.4.06-6.81.06-10.21,0-.47-1.18-1.33-1.18-.65Z"/><path class="cls-2" d="M210.45,77.35A288.56,288.56,0,0,0,243,96.05c.88.43.42-.75-.08-1a286.4,286.4,0,0,1-32.27-18.51c-.83-.55-.83.4-.22.8Z"/><path class="cls-2" d="M242,95.44a58.2,58.2,0,0,0-11.77,10.94c-.34.42.75,1.45,1.06,1.06A58.2,58.2,0,0,1,243.09,96.5c.38-.27-.61-1.38-1.06-1.06Z"/><path class="cls-2" d="M242,96.36a75.9,75.9,0,0,0-.71,11.37c0,.47,1.19,1.33,1.18.65a76.88,76.88,0,0,1,.69-11.14c.07-.51-1.1-1.38-1.16-.88Z"/><path class="cls-2" d="M243.77,97l18.37-.88c.69,0-.17-1.21-.64-1.18l-18.38.87c-.69,0,.17,1.21.65,1.19Z"/><path class="cls-2" d="M242.65,96.32a407.05,407.05,0,0,0,36.73-22.24c.38-.26-.6-1.37-1.07-1.06a407.61,407.61,0,0,1-36.54,22.14c-.53.28.45,1.39.88,1.16Z"/><path class="cls-2" d="M209.72,76.13a22.8,22.8,0,0,0-4.1,6.82c-.18.46,1,1.42,1.16.88a22.5,22.5,0,0,1,4-6.64c.35-.41-.73-1.45-1.06-1.06Z"/><path class="cls-2" d="M210.27,77.51q19.38-12.33,39.3-23.78c.52-.3-.47-1.41-.88-1.17q-20,11.49-39.48,23.89c-.39.25.58,1.36,1.06,1.06Z"/><path class="cls-2" d="M249.39,53.3Q263.47,60.76,278,67.4c.89.41.43-.76-.08-1q-14.47-6.64-28.57-14.11c-.86-.46-.41.74.08,1Z"/><path class="cls-2" d="M262.72,96.12a125.41,125.41,0,0,0,13-8.12c.39-.27-.6-1.37-1.06-1.06a124.82,124.82,0,0,1-12.81,8c-.52.27.45,1.38.88,1.16Z"/><path class="cls-2" d="M206,60.86,209.82,76c.12.46,1.34,1.19,1.13.37l-3.83-15.17c-.12-.46-1.33-1.19-1.13-.37Z"/><path class="cls-2" d="M244.8,34.3,248,51.23c.09.45,1.3,1.26,1.18.64L246,35c-.08-.46-1.3-1.27-1.18-.65Z"/><path class="cls-2" d="M250.26,53.36a155.47,155.47,0,0,1,7.43-14.9c.23-.41-.87-1.41-1.17-.88a155.39,155.39,0,0,0-7.42,14.9c-.2.45.93,1.42,1.16.88Z"/><path class="cls-2" d="M248.76,54.86V68.31c0,.47,1.18,1.33,1.18.64V55.51c0-.47-1.18-1.33-1.18-.65Z"/><path class="cls-2" d="M246.34,67.74c3.5,1.86,7.09,3.56,10.59,5.42.86.45.41-.74-.08-1-3.5-1.86-7.08-3.56-10.59-5.42-.86-.46-.41.74.08,1Z"/><path class="cls-2" d="M256.76,72.91c-3.31,1.92-6.61,3.84-9.77,6-.39.27.6,1.37,1.06,1.06,3.16-2.15,6.46-4.07,9.77-6,.38-.23-.58-1.35-1.06-1.07Z"/><path class="cls-2" d="M245.37,66.71c-2.13,1.36-4.35,2.58-6.54,3.84-1,.59-3.56,1.5-3.92,2.71-.09.31.26.67.47.84a.91.91,0,0,0,.88.25.2.2,0,0,0,.14-.14v-.14c.05-.51-1.12-1.36-1.16-.88l.36.11.47.84c.2-.69,1.56-1.22,2.13-1.56,1.13-.67,2.28-1.31,3.42-2,1.62-.92,3.23-1.85,4.8-2.85.39-.25-.59-1.36-1.06-1.06Z"/><path class="cls-2" d="M236,74.32c3.46,1.92,7,3.59,10.63,5.21.89.4.44-.76-.08-1-3.61-1.62-7.17-3.29-10.63-5.22-.86-.47-.4.73.08,1Z"/><path class="cls-2" d="M246.89,79.41c-.22,3.29-.27,6.59-.48,9.89,0,.47,1.13,1.34,1.18.64.22-3.29.26-6.59.48-9.88,0-.47-1.14-1.34-1.18-.65Z"/><path class="cls-2" d="M234.9,73.7c-.1,3.2-.09,6.4-.31,9.6,0,.47,1.14,1.34,1.19.65.21-3.2.2-6.4.3-9.61,0-.47-1.16-1.33-1.18-.64Z"/><path class="cls-2" d="M235.22,84.13c3.73,2.18,7.67,3.93,11.45,6,.85.47.4-.72-.08-1-3.78-2.08-7.72-3.83-11.45-6-.84-.49-.39.72.08,1Z"/><path class="cls-2" d="M256.75,73.23c-.22,3.44-.67,6.86-.78,10.31,0,.48,1.16,1.34,1.18.65.12-3.45.56-6.87.78-10.31,0-.47-1.14-1.34-1.18-.65Z"/><path class="cls-2" d="M247.44,90.2c3.28-1.76,6.28-4,9.56-5.75.52-.28-.46-1.39-.88-1.16-3.28,1.76-6.28,4-9.56,5.75-.53.28.45,1.39.88,1.16Z"/><path class="cls-2" d="M228.25,87.46c2.36-1.62,5-2.88,7.33-4.51.39-.26-.6-1.37-1.06-1.06-2.37,1.63-5,2.89-7.33,4.51-.39.27.6,1.38,1.06,1.06Z"/><path class="cls-2" d="M257.38,81l6.29,2.84c.89.4.44-.77-.08-1L257.3,80c-.89-.4-.43.76.08,1Z"/><path class="cls-2" d="M241.44,33.14a273,273,0,0,0-33.06,19.92c-.39.27-.19,1.71.19,1.44a271.65,271.65,0,0,1,33.06-19.91c.41-.21.26-1.68-.19-1.45Z"/><path class="cls-2" d="M68.75,52.45l3.13,5.87c.26.49,1.45.94,1,.08l-3.13-5.87c-.26-.49-1.45-.94-1-.08Z"/><path class="cls-2" d="M77.15,51.5v6.62c0,.47,1.19,1.33,1.19.64V52.14c0-.47-1.19-1.33-1.19-.64Z"/><path class="cls-2" d="M84.85,53a26.17,26.17,0,0,1-3.24,5.43c-.33.43.76,1.45,1.06,1.06A26.32,26.32,0,0,0,86,53.9c.2-.45-.93-1.42-1.16-.88Z"/><path class="cls-1" d="M60.49,45.25v.23a.93.93,0,0,0,1.86,0v-.23A.93.93,0,0,0,60.49,45.25Z"/><path class="cls-1" d="M39.31,43.23a6.92,6.92,0,0,0-3.5-.13c-1.18.25-.68,2,.49,1.8a5,5,0,0,1,2.51.13A.93.93,0,0,0,39.31,43.23Z"/><path class="cls-1" d="M32.85,94.82a1,1,0,0,0-1.15-.65l-1.17.42a1,1,0,0,0-.65,1.15.94.94,0,0,0,1.15.65L32.19,96A1,1,0,0,0,32.85,94.82Z"/><path class="cls-3" d="M28.35,73.11,38.9,74.34c.32,0-.09-.57-.33-.59L28,72.52c-.32,0,.08.57.32.59Z"/><path class="cls-3" d="M41.66,74.61a31.59,31.59,0,0,1,8,1c.41.1,0-.51-.19-.57a32.63,32.63,0,0,0-8.17-1c-.34,0,.08.59.32.6Z"/><path class="cls-3" d="M27.73,77.29a76.64,76.64,0,0,1,8.43.55c.32,0-.09-.57-.32-.6a79.17,79.17,0,0,0-8.43-.54c-.34,0,.08.59.32.59Z"/><path class="cls-3" d="M38.3,78.19c1.69.15,3.37.37,5.05.65.31,0-.1-.56-.33-.6-1.67-.27-3.36-.49-5.05-.64-.32,0,.09.57.33.59Z"/><path class="cls-3" d="M45.35,79.22c1.33.21,2.64.48,4,.75.31.06-.09-.54-.32-.59-1.32-.27-2.64-.54-4-.75-.31,0,.1.55.33.59Z"/><path class="cls-2" d="M144,81.32l8.15-5.78c.39-.27-.61-1.38-1.06-1.06L143,80.26c-.39.28.61,1.38,1.06,1.06Z"/><path class="cls-2" d="M151,64.69,150.72,75c0,.47,1.17,1.33,1.19.65l.24-10.26c0-.48-1.17-1.34-1.19-.65Z"/><path class="cls-2" d="M132.75,66.44V77.78c0,.47,1.18,1.33,1.18.65V67.08c0-.47-1.18-1.33-1.18-.64Z"/><path class="cls-2" d="M156.17,51.16,155.94,61c0,.47,1.16,1.34,1.18.65l.23-9.82c0-.47-1.17-1.33-1.18-.65Z"/><path class="cls-2" d="M166.14,64.79c.57-1,2.29-1.84,3.22-2.52l3.46-2.53c.39-.28-.61-1.38-1.06-1.06l-3.87,2.83c-.95.69-2.34,1.35-2.91,2.4-.23.42.87,1.41,1.16.88Z"/><path class="cls-2" d="M171.83,49.63,172.1,59c0,.48,1.2,1.33,1.18.65L173,50.28c0-.47-1.2-1.32-1.18-.65Z"/><path class="cls-2" d="M157,51l-.14-.1.47.84c.12-.57,1-.94,1.46-1.24l1.73-1.18L164,47c.39-.27-.6-1.38-1.06-1.06l-3.88,2.65c-.79.53-2.66,1.33-2.86,2.3-.07.31.23.67.47.84l.13.09c.82.59.81-.37.23-.79Z"/></svg>