<svg xmlns="http://www.w3.org/2000/svg" viewBox="0 0 300 200"><defs><style>.cls-1{isolation:isolate;}.cls-2{fill:#262626;}.cls-3{fill:#004234;mix-blend-mode:multiply;}.cls-4{fill:#fff;}</style></defs><title>ICON_2d</title><g class="cls-1"><g id="img"><path class="cls-2" d="M73,65.36A10.52,10.52,0,0,0,71.84,71c0,3.44.11,6.89.16,10.33l.33,20.82Q72.68,123,73,144c0,.64,1.16-.24,1.15-.67L73.55,105q-.15-10-.29-20c-.05-3.15-.09-6.3-.14-9.45s-.79-7.33.87-10.2c.49-.85-.69-.38-.95.06Z"/><path class="cls-2" d="M72.85,143.64c.37,3.86,11.29-2.93,12.61-3.57l20.87-10.24,41.31-20.24c.45-.22,1.06-1.37.19-.94L111,126.72l-18.22,8.92L83.85,140c-1.34.65-9.54,5.52-9.83,2.77,0-.33-1.21.45-1.17.87Z"/><path class="cls-2" d="M73.91,65.59c9-3.89,17.81-8.53,26.72-12.73s18.06-8.45,27.13-12.59q13.38-6.12,26.84-12.06c2.22-1,4.44-2.12,6.73-3,1.92-.71,3.58-1.49,4.11,1.09a21.74,21.74,0,0,1,0,3.87q0,7.47,0,15c0,.38,1.17-.38,1.17-.86,0-4.1,0-8.19,0-12.29,0-1.91.08-3.83,0-5.73a3.2,3.2,0,0,0-.8-2.59c-1.94-1.54-6.35,1.46-8,2.17q-5.83,2.56-11.66,5.17-23.05,10.29-45.89,21.09c-8.66,4.1-17.68,7.88-26,12.59-.22.12-1.08,1.18-.4.89Z"/><path class="cls-2" d="M118.92,123.81c-.38,4.13-.79,9.22,1,13.08,1.68,3.62,5.49,5.39,9,6.88.25.1.9-.62.63-.74-3.42-1.51-7.09-3.16-8.76-6.74-1.83-3.91-1.24-8.89-1-13.06,0-.07-.75.33-.78.58Z"/><path class="cls-2" d="M134.62,116c-1.51,9.73,9.73,12.85,17,14,.34.06.93-.72.59-.77-7.15-1.18-18.32-4.12-16.83-13.71.07-.42-.74.12-.79.43Z"/><path class="cls-2" d="M129,143.18A125.36,125.36,0,0,0,152.19,130c.38-.27.39-.92-.15-.52a123.65,123.65,0,0,1-22.77,12.94c-.28.12-.75,1-.25.75Z"/><path class="cls-2" d="M117.2,124.66a55.62,55.62,0,0,0-.17,8.66c.09,2,.06,4.16,1,6,1.85,3.44,7,5.65,10.46,7.13.3.13.95-.62.59-.77-3.26-1.42-7.87-3.36-10-6.43-1.42-2.1-1.28-4.86-1.37-7.29a52.14,52.14,0,0,1,.21-7.7c0-.43-.76.12-.79.44Z"/><path class="cls-2" d="M128.76,143.74c0,.73,0,1.46,0,2.19,0,.44.77-.12.78-.43,0-.73,0-1.46,0-2.19,0-.46-.8.11-.79.43Z"/><path class="cls-2" d="M152.16,132.7q-11.31,7-23.16,13c-.33.16-.63,1-.05.66q11.84-6,23.16-13c.31-.18.61-1,0-.66Z"/><path class="cls-2" d="M77.16,133.39q34.47-17.82,70-33.56c.34-.16.65-.93,0-.67q-35.47,15.74-70,33.57c-.32.16-.63,1,0,.66Z"/><path class="cls-2" d="M76.91,68.33q42.95-20.46,86.37-39.91c.34-.15.64-.93.05-.66Q119.92,47.21,77,67.67c-.34.16-.64.94,0,.66Z"/><path class="cls-2" d="M162.93,29.09l-.28,16.35c0,.45.78-.11.79-.43l.28-16.35c0-.45-.78.11-.79.43Z"/><path class="cls-2" d="M77,126.65c.15,2,1.93,1.73,3.39,1.16,2.89-1.12,5.7-2.49,8.53-3.74q9.52-4.23,19-8.62,18.9-8.78,37.47-18.23c.33-.16.63-1,.05-.66q-16.2,8.23-32.64,16-8.1,3.82-16.27,7.51-4.36,2-8.75,3.91l-4.43,2c-.84.36-5.32,2.89-5.52.32,0-.46-.82.11-.79.43Z"/><polygon class="cls-3" points="161.67 88.66 76.64 129.47 76.64 69.09 161.67 28.75 161.67 88.66"/><path class="cls-2" d="M158.85,22.37c-15.62,5.94-31,12.74-46.11,19.81-14.85,6.92-29.68,14.11-44,22.14-.38.21-.91,1.21-.11.79,14.82-7.68,29.59-15.36,44.72-22.41,14.79-6.87,29.82-13.13,44.88-19.37.3-.13,1.29-1.23.59-1Z"/><path class="cls-2" d="M68.51,65.52c1.23.51,2.47,1,3.72,1.49.36.14,1.34-.94,1-1.1-1.24-.51-2.48-1-3.73-1.49-.32-.12-1.27,1-.94,1.1Z"/><path class="cls-4" d="M162,80.62c.1-.18.2-.35.29-.53,1.57-3.1.64-5.35.68-8.62a4.91,4.91,0,0,0-.92-3c.36-1.56.75-3.11,1.19-4.66a5.24,5.24,0,0,0-2.33-5.92,9.82,9.82,0,0,1-.7-3.06c-.07-1.16.11-2.27,0-3.42a5.72,5.72,0,0,1,.75-.66c1-.75,0-2.49-1-1.73-2.42,1.77-4.12,5.14-2.77,7.88a4.77,4.77,0,0,0-3.82,2.41l-.09,0a4.25,4.25,0,0,0-.93,1.42c-1,1.23-1.16,3-1.52,4.55-.42,1.84-.87,5.72-.88,5.76-.6,2.91-1.3,5.57-3.31,7.36-1.64,1.44-3.88,3.5-5.3,5a5.32,5.32,0,0,0-.77,1.87c-.06,1.38,2,3.23,3.52,3.49.26,1.38.68,2.76.88,4.14A4.07,4.07,0,0,0,146,95.34a.9.9,0,0,0,1.56-.32,6.21,6.21,0,0,0,7.57.54c2.83,1.31,6.41-1,7.53-3.76,1.6-4-.47-6.34-.57-10.23A5.75,5.75,0,0,0,162,80.62Z"/><path class="cls-2" d="M149.46,100c.39,2.54,0,7.06,2,9s5.7,1.26,8.15,1.19c6.68-.21,19.85-2.76,22.19,6.05.13.5,1.36-.32,1.24-.76-2-7.48-11.12-6.72-17.13-6.54l-6.42.2c-1.74,0-3.76.32-5.43-.31-3.39-1.26-3-6.68-3.45-9.71,0,.23-1.21.68-1.17.93Z"/><path class="cls-2" d="M203.66,101.93l-2-.8c-.07,0-.51.43-.57.49s-.51.52-.56.5l2.05.8c.06,0,.51-.44.57-.49s.5-.52.56-.5Z"/><path class="cls-2" d="M200.1,102.05c.38,0,.76-1,1.13-1-.38,0-.76,1-1.13,1Z"/><path class="cls-2" d="M200,102c3.63,2,8,.81,10.84-2,3.25-3.09,4.35-7.67,4.47-12,0-.29-1.17.41-1.19.83-.2,3.6-.84,7.56-3.38,10.32a8.05,8.05,0,0,1-9.61,1.82c-.3-.16-1.17,1-1.13,1Z"/><path class="cls-2" d="M208.18,104.46c8.53-1.86,13-8.56,14.66-16.7,1-4.83,2.15-10,1.18-14.94-.92-4.71-3.66-8.84-6.28-12.77-.21-.32-1.42.57-1.17.94,2.14,3.21,4.35,6.5,5.57,10.2,1.32,4,1.09,8.07.41,12.17-1.43,8.64-3.63,17.69-13.3,20.12-.4.1-.91.94-1.07,1Z"/><path class="cls-2" d="M212,48.57a14.31,14.31,0,0,0,10.2,14.66c.38.1,1.35-.92,1-1a14.28,14.28,0,0,1-10.06-14.47c0-.07-1.15.47-1.18.83Z"/><path class="cls-2" d="M212.07,49.69a7,7,0,0,1,10.48-6.9c.35.18,1.25-.88,1.2-.91a8.82,8.82,0,0,0-12.86,8.74c0-.14,1.22-.56,1.18-.93Z"/><path class="cls-2" d="M223.63,42.37c3.73,1.67,5.91,5.11,6.72,9,.88,4.29-.28,13.33-6.81,10.59-.41-.17-1.45.86-1,1,4.95,2.13,8.88-3,9.33-7.44.57-5.49-1.71-11.84-7-14.15-.38-.16-1.23.91-1.17.93Z"/><path class="cls-2" d="M168.22,56.66c-2.19,1.16-3.87,3.15-2.94,5.8,1.65,4.74,8,3.92,11.68,3,.35-.09,1-1,1-1-2.83.53-5.92,1.23-8.65,0A5.57,5.57,0,0,1,167,62.55c-.72-1.1-1.39-4,.1-4.93.42-.25.72-.73,1.15-1Z"/><path class="cls-2" d="M168.83,68.37A17.6,17.6,0,0,0,180.51,68c.38-.15,1.23-1.33.5-1a17.46,17.46,0,0,1-11.13.43c-.32-.09-1.21.94-1,1Z"/><path class="cls-2" d="M204.57,104.33a10.6,10.6,0,0,0,3.33,12.27c.35.28,1.42-.74,1.17-.94a10.73,10.73,0,0,1-3.34-12.08,2.77,2.77,0,0,0-1.16.75Z"/><path class="cls-2" d="M181.84,116.22A25.37,25.37,0,0,1,181,132c-.2.53,1.07-.14,1.23-.54a25.49,25.49,0,0,0,.82-16.16c0,.17-1.26.71-1.2.9Z"/><path class="cls-2" d="M167.51,47.51c4-8.61,14.91-7,22.05-4.14.44.18,1.48-.85,1-1-8.38-3.33-20-3.93-24.24,5.81-.16.38,1-.32,1.16-.64Z"/><path class="cls-2" d="M183.66,45.6a36.42,36.42,0,0,1,6.79-2.78,12.07,12.07,0,0,1,6.89.74,70.54,70.54,0,0,1,10.9,5.26c.38.22,1.47-.79,1-1-4.34-2.51-9.57-5.68-14.64-6.22-3.78-.41-7.67,1.32-10.54,3.68-.12.1-.27.31-.41.37Z"/><path class="cls-2" d="M210.82,50.63a12,12,0,0,0,7.33,13c.36.14,1.37-.9,1-1.06A11.86,11.86,0,0,1,212,49.8c0-.22-1.12.43-1.2.83Z"/><path class="cls-2" d="M183,132.17c8.64-6.15,15.82-15.38,27.47-15,.43,0,1.42-1.06.8-1.08-11.41-.4-20.74,8.5-28.52,15.76-.48.45-.26.65.25.29Z"/><path class="cls-2" d="M173,142.75c-6.54,6.56-9.59,17.09-10,26.1,0,.1.15.16.23.15,23.79-3.08,47.64-16.42,61-36.71.54-.83-.66-.37-1,0-9.85,12.8-21.84,23.07-36.82,29.44a88.19,88.19,0,0,1-11.19,3.9c-2,.54-4,1-6,1.41l-2.28.42c-.72.12-1.44.23-2.17.33a2.56,2.56,0,0,1-.38-2.09c0-4.12,1.6-8.82,3.17-12.56a63,63,0,0,1,6.22-10.64c.37-.56-.63.12-.75.24Z"/><path class="cls-2" d="M179.79,79.5l2.36-2.42h1a4.48,4.48,0,0,1,1.73,1.08,5.18,5.18,0,0,1,1.72,3.26c.4,4-3.13,8.5-7.16,8.68-.42,0-1.4,1.1-.78,1.09,5.22-.1,11.26-7.11,8.65-12.31-1.15-2.3-3.42-3.56-5.78-2.39a4.72,4.72,0,0,0-2.91,3.87c0,.15,1.15-.47,1.18-.85Z"/><path class="cls-2" d="M172.84,74.49c2.07,1.37,4.29,2.48,6.46,3.67.39.22,1.43-.84,1-1.1-2.13-1.16-4.29-2.25-6.31-3.59-.24-.15-1.17,1-1.11,1Z"/><path class="cls-2" d="M173.21,74.22a5,5,0,0,0,2-2.52l-1,.73c2.77,1.57,5.63,3,8.4,4.54.4.22,1.35-.88,1.12-1-2.82-1.61-5.74-3-8.57-4.63-.32-.18-.94.48-1,.73a6.17,6.17,0,0,1-1.1,2c-.25.33-.16.48.2.21Z"/><path class="cls-2" d="M185.44,78.58c2.28,1.31,4.54,2.64,6.8,4,1.39.81,7.31,3.31,6.94,5.11l1.07-.86c-4.16-1.71-8.25-3.55-12.3-5.5-.34-.16-1.36.89-1,1.08,4,2,8.16,3.81,12.32,5.53.41.16,1-.52,1.07-.86.45-2.15-3.42-3.43-4.86-4.26-3-1.73-6-3.45-8.94-5.19-.26-.15-1.14,1-1.12,1Z"/><path class="cls-2" d="M175.51,71.43a24.88,24.88,0,0,0-5.35-.93c-.3,0-1.39.79-1,1.11l4.06,3.13c.4.31,1.41-.79,1.06-1.06l-4.06-3.13-1,1.1a29.76,29.76,0,0,1,5.31.9c.37.09,1.29-1,.93-1.12Z"/><path class="cls-2" d="M189,87.25A10.13,10.13,0,0,1,197.13,96c.27,2.6-2.39,8.16,1.78,8.91.47.08,1.38-1,.93-1.12-3.23-.58-1.78-4.37-1.52-6.52a9.55,9.55,0,0,0-.74-5,10.18,10.18,0,0,0-7.48-6.07c-.31-.06-.83,1-1.12,1Z"/><path class="cls-2" d="M207.21,117.05c1.65-.4,4.33,1.91,5.65,2.72a43.05,43.05,0,0,1,5.19,3.31c2.81,2.36,3.83,6.51,4.44,10,.08.45,1.27-.38,1.19-.85-.65-4-2-8.4-5.42-10.79-1.79-1.23-3.71-2.3-5.57-3.43-1.19-.73-2.84-2.35-4.34-1.91-.44.13-.74.87-1.14,1Z"/><path class="cls-2" d="M181.15,131.5a37.83,37.83,0,0,1-5.05,7.59,27.28,27.28,0,0,0-4.24,5.35c-.36.7.89-.1,1.06-.39,1.52-2.51,3.8-4.42,5.57-6.74a28.08,28.08,0,0,0,3.81-6.69c0,.07-1,.54-1.15.88Z"/><path class="cls-2" d="M151.72,130a5,5,0,0,1,0,3.12c-.13.55.68.06.75-.25a5.5,5.5,0,0,0,0-3.45c-.18-.35-.92.3-.78.58Z"/><path class="cls-2" d="M76.64,68.21c-1.24,4.1-.62,9-.64,13.23q0,7.71.06,15.42.18,15.18.83,30.35c0,.46.8-.12.79-.43q-.63-14.67-.82-29.35-.09-7.22-.08-14.43,0-3.5,0-7c0-2.67-.21-5.49.57-8.07.16-.53-.66,0-.75.25Z"/><path class="cls-2" d="M116.94,164.57c2.48-4.11,9.53-3,13.22-1.63,3,1.11,11.84,6.27,7.13,10.42-.45.4-.09.75.36.35,7.68-6.77-15.38-19.05-21.37-9.09-.34.56.47.26.66-.05Z"/><path class="cls-2" d="M116.07,164.83c-1.12,1.9-2,4.33-.42,6.26,2,2.45,5.51,2,8.32,2.35,4.49.57,9.7,4.55,13.6.34.4-.44.06-.8-.36-.35-3.46,3.73-8.73-.29-12.65-.77-2-.24-4.08,0-6-.77-3.24-1.26-3.56-4.21-1.85-7.11.33-.56-.48-.26-.66.05Z"/><path class="cls-2" d="M116,171.49a5.58,5.58,0,0,0,4.62,3.61c1.72.17,3.34-.19,5,.4,1.4.49,2.68,1.29,4.06,1.83,4.34,1.71,7.71-.92,9.13-5,.18-.53-.65-.05-.75.25-1.13,3.26-3.7,5.26-7.12,4.23-1.65-.5-3.1-1.53-4.73-2.09a13.1,13.1,0,0,0-4.45-.39,5.33,5.33,0,0,1-5-3.43c-.14-.36-.9.28-.77.59Z"/><path class="cls-2" d="M132.52,168.08a1.41,1.41,0,0,0-.63,1.68.9.9,0,0,0,1.44.34,1.47,1.47,0,0,0,.4-1.69c-.31-.7-1.08-.12-1.35.31a1,1,0,0,0,.54,1.56c.56.15,1.38-.32,1.34-1s-1-.83-1.4-.42-.34,1.19.4,1.2c1.52,0,1.41-2.44-.19-2.27a.81.81,0,0,0-.55.42c-.06.13-.12.4.12.37a.77.77,0,0,1,.89.53s0,.37,0,.38h0c.16-.17.15-.26,0-.27s-.21-.18-.26-.12l-.39.3c.22-.07.34.13.5.23l.05.1c.32-.19.39-.28.21-.26l-.26-.05A.75.75,0,0,1,133,169a.5.5,0,0,1,0-.24l-.13.07c0,.06.1.15.13.21a1.52,1.52,0,0,1,.06.47s0,.41,0,.1c.11-.08.1-.12,0-.13l-.13-.06c-.21-.13-.52-.67-.25-.85s.4-.9-.15-.53Z"/><path class="cls-2" d="M225.8,46.83c3.77,0,4.56,7.86,4.51,10.42a14.65,14.65,0,0,1-1.33,6c-1.36,2.73-4.62,4.33-7.06,2-.25-.24-1,.47-.71.71,3.94,3.7,8.21-1.31,9.25-5a17.53,17.53,0,0,0,.07-9.15c-.54-2.11-1.61-5.8-4.3-5.79-.32,0-.89.79-.43.79Z"/><path class="cls-2" d="M206.46,105.41c-.2,3.47,3.87,5.85,6.86,4.19.32-.17.62-1,.05-.66-2.68,1.49-6.29-1-6.12-4,0-.44-.77.12-.79.44Z"/><path class="cls-4" d="M163.5,47.23a6.12,6.12,0,0,0-3.85,2.25c-.39.54-.07,1,.45,1.3l0,0a6.94,6.94,0,0,0-.43,3,.71.71,0,0,0-.32,1c.17.35.3.7.46,1a7.51,7.51,0,0,0,1.33,3.5c.73,1,2.73.3,2.42-.77a27.47,27.47,0,0,0-1.15-3.14c0-.21,0-.42,0-.64a12.06,12.06,0,0,1,.12-2.92.77.77,0,0,0,.31-1.22l-.09-.11a1.37,1.37,0,0,0-.49-.37,3.74,3.74,0,0,1,2-1C165.85,48.83,165.15,46.9,163.5,47.23Z"/><path class="cls-4" d="M152.74,70.78c-.07-1.28-2.07-1.29-2,0a11.7,11.7,0,0,1-.05,2,1,1,0,0,0,1,1,1,1,0,0,0,1-1A11.7,11.7,0,0,0,152.74,70.78Z"/><path class="cls-4" d="M147.68,77.76a7.29,7.29,0,0,1-.93,1.22A1,1,0,0,0,148,80.55l.71-.41a.91.91,0,0,0,.46-1l.27-.38A1,1,0,0,0,147.68,77.76Z"/><path class="cls-4" d="M148.35,95.39c-1.37-1.73-.89-4-1.79-6-.72-1.55-2.68-2.61-3.16-4.16-.38-1.22-2.31-.7-1.93.53.66,2.11,2.86,3,3.54,5.15.35,1.11.17,2.3.49,3.41a7.07,7.07,0,0,0,1.43,2.44C147.73,97.81,149.14,96.39,148.35,95.39Z"/><path class="cls-2" d="M149.81,76.8c-1.42,2.37-3.25,3.74-5.3,5.46a5.72,5.72,0,0,0-2,2.73,2.62,2.62,0,0,0,1.13,3.07c.64.43,4.84,1.57,3.39,3.28-.65.77.29.75.73.23a1.86,1.86,0,0,0,.54-2.1c-.62-1.8-2.8-1.57-4-2.7-2.52-2.39,2.22-4.93,3.68-6.35a18.87,18.87,0,0,0,3-3.92c.41-.67-.9-.06-1.12.3Z"/><path class="cls-2" d="M157.05,57.61c-2.6,1.74-3.87,4.44-4.54,7.44-1.07,4.76-.88,9.39-3.87,13.53-.58.8.64.27.92-.07,5-6,1.94-15.06,7.74-20.57.46-.44.3-.69-.25-.33Z"/><path class="cls-2" d="M147.09,91.06a3.28,3.28,0,0,0-.13,3.56c.7,1.51,2.56,2.72,2.43,4.52,0,.37,1.2-.32,1.24-.76.29-2.73-4.35-4.57-2.53-7.51.4-.65-.83-.06-1,.19Z"/><path class="cls-2" d="M161.72,57.15c-1.78-.14-2.37-2.12-2-3.65.53-2.28,2.41-3.84,4.29-5,.54-.34.83-1.22-.05-.69a11.82,11.82,0,0,0-5,5.17c-.73,1.71-.86,5,1.67,5.15.36,0,.79-1,1.15-1Z"/><path class="cls-2" d="M163.83,58.42c-1-2.22-.2-5.37,2.28-6.21.32-.12,1.3-1.2.58-1-3.33,1-5.53,4.83-4,8.15,0,0,1.27-.7,1.15-1Z"/><path class="cls-2" d="M68.11,64.77c0,16.13.21,32.25.36,48.38.07,7.86.13,15.72.14,23.58,0,1.62-.5,4.16.43,5.64s2.93,1.92,4.44,2.36c.78.23,0-1-.41-1.09-1.2-.34-3-.57-3.3-1.95a11.61,11.61,0,0,1,0-2.43c0-3.42,0-6.84,0-10.25q-.06-10.71-.17-21.41c-.14-14-.3-28.1-.31-42.16,0-.43-1.15-1.31-1.15-.67Z"/><path class="cls-2" d="M159.28,23c1.55.38,3.15.65,4.72.93.43.08,1.36-1,.95-1.1-1.55-.32-3.11-.67-4.68-.89-.33,0-1.2,1-1,1.06Z"/></g></g></svg>