<svg xmlns="http://www.w3.org/2000/svg" viewBox="0 0 300 200"><defs><style>.cls-1{isolation:isolate;}.cls-2{fill:#262626;}.cls-3{fill:#004234;mix-blend-mode:multiply;}.cls-4{fill:#fff;}</style></defs><title>ICON_1d</title><g class="cls-1"><g id="img"><path class="cls-2" d="M182.64,114.7c-3.56,3.79-6.74,10.27-4.47,15.39.17.39,1.41,1.14,1.09.42-2.15-4.85,1.1-11.19,4.44-14.75.33-.35-.74-1.4-1.06-1.06Z"/><path class="cls-2" d="M178.12,131.45a17.13,17.13,0,0,1-2.51,4.19c-.78.94-2.1,1.76-2.64,2.89-1.05,2.18,1.2,3.68,3,4.21.45.13,1.64-.72,1-.91-1.71-.51-3.35-1.63-2.35-3.47a14.61,14.61,0,0,1,2-2.45,17.91,17.91,0,0,0,2.87-4.69c.26-.6-1.14-.21-1.33.23Z"/><path class="cls-2" d="M176,142.74c1.74.69.33,3.27.1,4.35-.36,1.63.9,2.21,1.64,3.44.28.46,1.61-.23,1.35-.66-.48-.78-1.35-1.33-1.59-2.22-.28-1.05.47-1.93.65-2.94s0-2.43-1.16-2.88c-.43-.17-1.64.66-1,.91Z"/><path class="cls-2" d="M178.45,151.12c1.45,2.53.61,5.34,1.31,8a5.55,5.55,0,0,0,5,4.11c3,.38,6.12-.89,9-1.61,4.49-1.12,9-1.82,13.61-1,.46.08,1.63-.79,1-.91-6.56-1.15-12.55.77-18.87,2.22-3.86.89-8,.18-8.57-4.36-.32-2.46.12-4.9-1.16-7.14-.27-.46-1.6.21-1.35.66Z"/><path class="cls-2" d="M207.36,160.6a3.86,3.86,0,0,1,2.33,1.77,5.21,5.21,0,0,1,.25,2.88,14.6,14.6,0,0,1-1.11,4.09c-.93,2.16-2.54,3.78-3.7,5.78-.31.54,1.1.18,1.33-.22,1.78-3.06,3.94-5.29,4.67-8.9.56-2.72.22-6-3-6.34-.48-.06-1.56.84-.72.94Z"/><path class="cls-2" d="M182.14,109.52c-.21,2.09-1,4.87.45,6.67a4.22,4.22,0,0,0,4.48,1.27c.7-.18,1-1.08,0-.83a3.3,3.3,0,0,1-3.79-2.21c-.51-1.62,0-3.71.21-5.35.05-.53-1.33-.06-1.39.45Z"/><path class="cls-2" d="M196.73,114.38c-2.83.69-7.56,1.49-9.86-.75-2.09-2-1.92-5.45-.62-7.84.3-.56-1.11-.19-1.33.22-1.43,2.63-1.58,6.57.93,8.66s7.51,1.35,10.48.62c.52-.12,1.34-1.14.4-.91Z"/><path class="cls-2" d="M184.69,103a6.65,6.65,0,0,0,3.69,5.6c.88.43.34-.72-.12-1a4.42,4.42,0,0,1-2.42-4c0-.43-1.17-1.3-1.15-.67Z"/><path class="cls-2" d="M184.71,103.65c5.68,4.17,11.93.69,17.61-1.55,7.72-3,17.42-4.35,24,1.92.64.61,1.12.15.47-.48-4.7-4.51-11.17-5.87-17.5-4.84a47.89,47.89,0,0,0-11,3.61c-4.16,1.78-9.23,3.61-13.32.6-.82-.6-.74.34-.18.74Z"/><path class="cls-2" d="M227.42,104.77c8.12,5.14,11.33,15.16,8.71,24.26-2.24,7.74-9.46,13.51-9.18,22,0,.43,1.18,1.3,1.16.67-.19-5.78,3.31-10.37,6.13-15.11a26,26,0,0,0,4-12.66,23.15,23.15,0,0,0-10.9-20.13c-.82-.52-.3.68.12,1Z"/><path class="cls-2" d="M227.16,150.8a28.19,28.19,0,0,1-6.25,1l1,.91a20.29,20.29,0,0,0-5.48-9.48c-.63-.62-1.12-.15-.48.48a17.8,17.8,0,0,1,4.81,8.33,1.19,1.19,0,0,0,1,.91,28.78,28.78,0,0,0,6.26-1c.47-.12-.44-1.27-.9-1.15Z"/><path class="cls-2" d="M211.83,132.4c-.31-3.93-1-7.76-4.28-10.27a12.83,12.83,0,0,0-4.63-2.12c-3.17-.8-8.1-.21-9.38-4-.14-.41-1.35-1.19-1.09-.42,1,3,3.45,4.38,6.47,4.89,2.65.45,5.32.52,7.71,1.94,3.35,2,3.77,5.83,4,9.34,0,.43,1.21,1.29,1.16.68Z"/><path class="cls-2" d="M211.36,133.31c1.94-1.87,4.16-.26,4.82,1.62a6.27,6.27,0,0,1-.84,5.13,26.89,26.89,0,0,1-2.48,3.52c-.45.56-1.26,1.53-2.16,1.08-.72-.36-.94-1.88-1.07-2.53-.09-.44-1.46.1-1.35.65.38,1.91,1.57,4,3.76,2.86,1.16-.59,2-2,2.74-3a16.71,16.71,0,0,0,2.56-4.17c.83-2.24.63-5.35-1.78-6.56a4.6,4.6,0,0,0-5.17,1.14c-.7.68.57.63,1,.25Z"/><path class="cls-2" d="M225.49,152.32a11.22,11.22,0,0,0,7.78,10.35c.45.14,1.65-.7,1-.91a10.74,10.74,0,0,1-7.39-9.9c0-.56-1.41,0-1.39.46Z"/><path class="cls-2" d="M204.91,176.25c4.62,4.87,12.05,1.6,16.82-1.34a34.66,34.66,0,0,0,12-12.63c.47-.85-.73-.4-1,.08a31.65,31.65,0,0,1-10.91,11.55c-4.52,2.8-11.47,5.89-15.84,1.28-.35-.38-1.42.67-1.06,1.06Z"/><path class="cls-2" d="M129.5,140.22c1.59-.68,4.82-2.53,4.09-4.74-.47-1.46-2.74-1.86-3.84-2.57a7.51,7.51,0,0,1-3.75-6.25c0-.67-1.17.18-1.18.65a7.4,7.4,0,0,0,2.63,5.69,9.69,9.69,0,0,0,2.36,1.59,8.84,8.84,0,0,1,1.91.91c1.55,1.37-.61,3.07-1.84,3.6-.43.18-1.13,1.44-.38,1.12Z"/><path class="cls-2" d="M117.4,110.31c7.5,1.88,7.67,10.72,7.41,16.91,0,.47,1.13,1.3,1.15.89.31-7.37-.66-16.81-9.24-19-.54-.13.26,1.06.68,1.16Z"/><path class="cls-2" d="M128.41,140.56a4.23,4.23,0,0,0-.46,3.7,7.32,7.32,0,0,0,.88,1.31c.9,1.36-.08,2.12-1.16,3-.55.43-.57,1.41.23.8,1-.78,2.39-1.77,2.58-3.14a2.21,2.21,0,0,0-.59-1.67c-.92-1.33-1.41-2.43-.49-4,.49-.84-.72-.39-1,.08Z"/><path class="cls-2" d="M126.55,150.42c-1.56,1.14-1.92,2.7-2.29,4.51a6,6,0,0,1-.7,2.43c-1.18,1.49-3,1.14-4.44.72-1.72-.49-3.37-1.25-5-1.88-3.27-1.23-12-4.54-12.79,1.45-.08.64,1.12-.18,1.18-.65.47-3.75,8.93-.31,10.73.37,2.42.91,5.16,2.47,7.84,2.22a4.38,4.38,0,0,0,3.37-2.08c1.15-1.82.59-5,2.37-6.3.58-.41.59-1.39-.23-.79Z"/><path class="cls-2" d="M101.14,157.94c-.25,3.58,1.74,6.56,4.52,8.66a32.26,32.26,0,0,0,4.37,2.63c1.92,1,4.53,1.89,5.35,4.11.19.52,1.34-.42,1.16-.89-1-2.76-4.75-3.84-7.1-5.18-3.74-2.11-7.45-5.25-7.12-10,.05-.66-1.15.17-1.18.65Z"/><path class="cls-2" d="M114.86,108.33c1.78,9.13-14.44,9.24-11.93,19,.1.41,1.3,1.22,1.16.67-2.47-9.58,13.75-9.64,11.93-19-.08-.42-1.27-1.25-1.16-.67Z"/><path class="cls-2" d="M102.81,127.64c1.48,6.62-1.06,14.12-4,20a47.32,47.32,0,0,1-12.17,15.45c-3,2.52-9,6-8.65,10.63a3.58,3.58,0,0,0,3.61,3.36c2.24.13,4.2-1.25,5.95-2.49.58-.41.59-1.38-.23-.79-1.56,1.1-3.52,2.49-5.57,2a3.14,3.14,0,0,1-2.49-3.74c.43-3,4.44-5.6,6.64-7.4a52.67,52.67,0,0,0,9.94-10.45C101.08,146.86,106,136,104,126.76c-.12-.51-1.28.38-1.17.88Z"/><path class="cls-2" d="M69.4,163.58c-2.86,2.6-4.39,6.62-2.74,10.32a7.38,7.38,0,0,0,9.87,3.75c.42-.19,1.12-1.45.37-1.13a6.74,6.74,0,0,1-8.57-2.59,7.61,7.61,0,0,1,1.6-9.82c.67-.6.13-1.13-.53-.53Z"/><path class="cls-2" d="M109.12,102.05a18.89,18.89,0,0,1,16.76,4.43c.65.59,1.14.13.48-.48a20.38,20.38,0,0,0-18.14-5.1c-.46.1.43,1.25.9,1.15Z"/><path class="cls-2" d="M118.56,107.46a16.48,16.48,0,0,0,3.57.27,11.8,11.8,0,0,1,2.43-.11c1.82.4,2,2,1.81,3.42-.3,2.42-.58,4.11.52,6.38.23.46,1.38,1,1,.12-1.18-2.42-.18-4.21-.24-6.64a4.78,4.78,0,0,0-1.17-3c-2.11-2.41-5.74-1.09-8.55-1.58-.58-.1.25,1.09.68,1.16Z"/><path class="cls-2" d="M107.07,101c-12.18-8.25-26.6.71-32,12.55-3.47,7.53-2.87,15.43-3.3,23.48s-3.25,14.8-7.47,21.69c-1.61,2.64-3,5.56-2.21,8.71a6.67,6.67,0,0,0,4.26,4.79c.77.27,0-.94-.41-1.08-5.94-2-1.67-9.63.3-12.74a43.89,43.89,0,0,0,4.55-9.12c2.83-8.07,1.74-16.34,2.65-24.67.84-7.74,4.39-15.54,10.56-20.45,6.74-5.36,15.77-7.27,23.24-2.21.8.54.29-.68-.12-1Z"/><path class="cls-2" d="M87.29,166.33c7.15,7.17,19.55,9.88,29.37,8.29.39-.07,1.36-1.17.77-1.1-9.86,1.22-21.76-.9-29-8.15-.27-.27-1.38.73-1.15,1Z"/><path class="cls-2" d="M220,121.77a12.06,12.06,0,0,1-2.42,4.72c-.23.27,0,.42.23.48a1.21,1.21,0,0,0,.95-.47,12.59,12.59,0,0,0,2.57-5c.18-.67-1.2-.23-1.33.23Z"/><path class="cls-2" d="M223.62,125.83a30.26,30.26,0,0,1-3.23,1.72c-.2.09-.64.39-.51.67s.66.09.84,0a35.27,35.27,0,0,0,3.58-1.93c.2-.12.48-.42.26-.64s-.76,0-.94.17Z"/><path class="cls-2" d="M221.67,131.22a23.12,23.12,0,0,0,5.33-1.07c.67-.22,1-1.14,0-.83a20.45,20.45,0,0,1-4.65,1,1.2,1.2,0,0,0-1,.46c-.11.23-.12.51.24.48Z"/><path class="cls-3" d="M139.23,41.49s11.92,2.27,19.84,11a28.51,28.51,0,0,1,7.42,23.15,55.52,55.52,0,0,0,17,1.78s0,3.8,6.41,6.45c-1.78-2.5-3.47-5-3-6.56,4.59-.11,35-.4,35.09-25.21S192.12,22.59,182,22,149.25,22.25,139.23,41.49Z"/><path class="cls-2" d="M146.11,93.58a11.56,11.56,0,0,1-3,6.48c-.3.33.5,1.34.88,1.19,3.34-1.34,6.49-3.51,6.91-7.35.05-.43-1-1.41-1.09-.77-.4,3.58-3.54,5.66-6.61,6.89l.88,1.19a12,12,0,0,0,3.08-6.64c.06-.47-1-1.39-1.07-1Z"/><path class="cls-2" d="M186.62,77.75a11.52,11.52,0,0,0,3.06,6.63l1-1c-2.77-1.11-6.2-3.08-6.65-6.33-.05-.33-1.2.47-1.17.86.3,3.36,4.08,5.46,6.87,6.57.35.14,1.35-.71,1-1.05a12.12,12.12,0,0,1-3-6.49c-.06-.32-1.21.47-1.18.86Z"/><path class="cls-2" d="M94.28,91.14c-9.08-6-15.31-15.94-12.12-27s13-18.07,23.76-20.85c19.69-5.09,49.61-1.6,57.22,20.68,3.8,11.11-1.51,24.15-12.6,28.58-.66.26-.89,1.18.05.82a24.18,24.18,0,0,0,15.18-24.13c-.93-11.12-9.54-20.11-19.39-24.44-11.32-5-25.13-5.4-37.15-3.08-10.86,2.09-21.3,7.68-26.5,17.83a23.31,23.31,0,0,0-1.92,17.37c2,6.48,6.85,11.55,12.38,15.22.38.25,1.53-.68,1.09-1Z"/><path class="cls-2" d="M145.83,93.37A38.52,38.52,0,0,1,131,96c-.41,0,.3,1.21.79,1.22a38.33,38.33,0,0,0,14.86-2.65c.5-.2-.38-1.39-.79-1.22Z"/><path class="cls-2" d="M187.25,77.93c10.3.17,21.89-1.7,29.19-9.67a23.36,23.36,0,0,0,4.43-24.15c-7.81-20.65-33.56-24.87-52.83-22-11.69,1.76-23.79,7.53-29.21,18.62-.19.41.84,1.46,1.07,1C149.13,22.83,175.73,20,194,24c10.25,2.21,20.15,7.87,24.91,17.56a22.83,22.83,0,0,1-3,25.06c-7.18,8.36-19,10.29-29.48,10.12-.41,0,.31,1.21.79,1.22Z"/><circle class="cls-4" cx="91.22" cy="90.02" r="0.89"/><circle class="cls-4" cx="87.64" cy="86.39" r="0.89"/><circle class="cls-4" cx="84.62" cy="82.87" r="0.89"/><circle class="cls-4" cx="82.16" cy="78.84" r="0.89"/><circle class="cls-4" cx="81.27" cy="74.76" r="0.89"/><circle class="cls-4" cx="80.58" cy="70.68" r="0.89"/><circle class="cls-4" cx="81.01" cy="66.6" r="0.89"/><circle class="cls-4" cx="82.16" cy="62.52" r="0.89"/><circle class="cls-4" cx="83.73" cy="58.79" r="0.89"/><circle class="cls-4" cx="86.16" cy="54.9" r="0.89"/><circle class="cls-4" cx="89.16" cy="51.76" r="0.89"/><circle class="cls-4" cx="92.3" cy="49.23" r="0.89"/><circle class="cls-4" cx="95.57" cy="47.08" r="0.89"/><circle class="cls-4" cx="99.07" cy="45.1" r="0.89"/><circle class="cls-4" cx="102.81" cy="43.62" r="0.89"/><circle class="cls-4" cx="106.54" cy="42.73" r="0.89"/><circle class="cls-4" cx="110.28" cy="41.84" r="0.89"/><circle class="cls-4" cx="113.87" cy="41.33" r="0.89"/><circle class="cls-4" cx="117.65" cy="40.95" r="0.89"/><circle class="cls-4" cx="121.66" cy="40.93" r="0.89"/><circle class="cls-4" cx="125.49" cy="40.93" r="0.89"/><circle class="cls-4" cx="129.37" cy="40.95" r="0.89"/><circle class="cls-4" cx="133.26" cy="41.59" r="0.89"/><circle class="cls-4" cx="137.16" cy="42.48" r="0.89"/><circle class="cls-4" cx="140.82" cy="43.37" r="0.89"/><circle class="cls-4" cx="144.3" cy="44.67" r="0.89"/><circle class="cls-4" cx="147.68" cy="46.16" r="0.89"/><circle class="cls-4" cx="150.83" cy="47.97" r="0.89"/><circle class="cls-4" cx="153.66" cy="49.75" r="0.89"/><circle class="cls-4" cx="156.3" cy="52.11" r="0.89"/><circle class="cls-4" cx="158.53" cy="54.39" r="0.89"/><circle class="cls-4" cx="160.57" cy="56.99" r="0.89"/><circle class="cls-4" cx="162.35" cy="59.82" r="0.89"/><circle class="cls-4" cx="163.73" cy="63.25" r="0.89"/><circle class="cls-4" cx="164.62" cy="66.68" r="0.89"/><circle class="cls-4" cx="165.14" cy="69.83" r="0.89"/><circle class="cls-4" cx="165.14" cy="73.36" r="0.89"/><circle class="cls-4" cx="164.62" cy="76.54" r="0.89"/><circle class="cls-4" cx="163.4" cy="79.7" r="0.89"/><circle class="cls-4" cx="161.96" cy="82.87" r="0.89"/><circle class="cls-4" cx="159.9" cy="85.91" r="0.89"/><circle class="cls-4" cx="157.11" cy="88.9" r="0.89"/><circle class="cls-4" cx="154.07" cy="91.15" r="0.89"/><circle class="cls-4" cx="150.81" cy="92.62" r="0.89"/><circle class="cls-4" cx="143.54" cy="94.87" r="0.89"/><circle class="cls-4" cx="149.92" cy="95.28" r="0.89"/><circle class="cls-4" cx="148.35" cy="97.63" r="0.89"/><circle class="cls-4" cx="145.86" cy="99.74" r="0.89"/><circle class="cls-4" cx="144.6" cy="99.2" r="0.89"/><circle class="cls-4" cx="146.67" cy="93.98" r="0.89"/><circle class="cls-4" cx="145.86" cy="96.97" r="0.89"/><circle class="cls-4" cx="140.41" cy="95.76" r="0.89"/><circle class="cls-4" cx="136.7" cy="96.42" r="0.89"/><circle class="cls-4" cx="133.48" cy="96.65" r="0.89"/><path class="cls-2" d="M97.6,65.42c3.07,4.91,4.55,10.5,6.93,15.74.12.25,1.32-.58,1.13-1-2.38-5.23-3.85-10.81-6.93-15.72-.22-.36-1.4.55-1.13,1Z"/><path class="cls-2" d="M97.79,65.49c6.23.6,12.47,1.32,18.72,1.79.39,0,1.25-1,1-1-6.31-.73-12.65-1.24-19-1.85-.43,0-1.39,1-.75,1.11Z"/><path class="cls-2" d="M106.07,80.92c4.13-4.4,7.23-9.62,11.31-14.06.68-.75-.28-.71-.74-.21-4.07,4.44-7.26,9.59-11.29,14.07-.68.76.27.68.72.2Z"/><path class="cls-4" d="M208.73,67.27c-1.56-2.5-3-5-4.49-7.59-.16-.27-1.35.61-1.13,1,1.48,2.54,2.93,5.09,4.49,7.58.22.36,1.4-.55,1.13-1Z"/><path class="cls-4" d="M208.54,67.2c-3.11,0-6.25-.16-9.36,0-.37,0-1.24,1-1,1,3.2.13,6.42.07,9.62.08.43,0,1.38-1.1.75-1.11Z"/><path class="cls-4" d="M203.32,60.07c-1.88,2.38-3.18,5.13-5,7.53-.61.8.32.76.73.21,1.87-2.45,3.28-5.2,5.11-7.68.52-.72-.54-.42-.83-.06Z"/><path class="cls-2" d="M120.59,60c2.16,3.41,4.07,7,6.22,10.39.23.37,1.42-.53,1.15-1-2.15-3.42-4.07-7-6.22-10.4-.1-.17-1.31.7-1.15,1Z"/><path class="cls-2" d="M127.45,70.31c5.77-3.54,11.7-6.82,17.45-10.39.58-.36.74-1.3-.13-.77C139,62.66,133.1,66,127.33,69.56c-.59.35-.75,1.28.12.75Z"/><path class="cls-2" d="M121.21,59.89c5.61-3.52,11.44-6.55,17.2-9.8.61-.34.75-1.27-.13-.77-5.71,3.22-11.86,5.94-17.15,9.86-.51.37-.8,1.26.08.71Z"/><path class="cls-2" d="M137.77,50.19c2.15,3.28,4.39,6.51,6.49,9.83.18.29,1.38-.6,1.15-1-2.1-3.32-4.35-6.54-6.49-9.83-.23-.35-1.42.56-1.15,1Z"/><path class="cls-4" d="M186.69,68.23c2.66,0,5.32.17,8,.12.43,0,1.39-1.11.77-1.1-2.56.06-5.14-.19-7.69,0-.37,0-1.15,1-1.05,1Z"/><path class="cls-4" d="M195.66,67.4c0-4.39,0-8.78,0-13.17,0-.44-1.23.3-1.22.79.05,4.4,0,8.79,0,13.18,0,.43,1.22-.32,1.22-.8Z"/><path class="cls-4" d="M187.82,67.32c0-4.37-.06-8.73,0-13.09,0-.43-1.22.29-1.23.79-.07,4.37,0,8.74,0,13.11,0,.38,1.2-.36,1.21-.81Z"/><path class="cls-4" d="M186.82,55.17c2.6-.07,5.21.06,7.8,0,.36,0,1.21-1,.92-1-2.64-.13-5.3-.13-7.94,0-.41,0-1.37,1.11-.78,1.09Z"/><path class="cls-2" d="M139.24,87.34c-6.29,3.55-12.67-4.94-7.55-10,2.67-2.65,7.29-2.13,9.8.51,2.8,3,2.84,8.61-1.83,9.82-.41.11-1.29,1.25-.5,1a7.06,7.06,0,0,0,5.22-8.91A8.12,8.12,0,0,0,129,84.92c1.46,4.1,6.48,5.38,10.06,3.35.43-.24,1-1.4.2-.93Z"/><path class="cls-4" d="M180.53,67.11c-3.25,1.8-6.95-2.69-4.19-5.36a3.76,3.76,0,0,1,5.06.27c1.45,1.39,1.91,4.56-.57,5.23-.4.11-1.29,1.25-.5,1a4.41,4.41,0,0,0,3.41-5.17,4.69,4.69,0,0,0-6.43-2.95,5,5,0,0,0-3,5.7,4.06,4.06,0,0,0,6,2.18c.43-.24,1-1.41.2-.94Z"/><path class="cls-2" d="M167.14,76.31a48.26,48.26,0,0,0,17.05,2.16c.44,0-.31-1.25-.79-1.22a47.81,47.81,0,0,1-16.84-2.15c-.54-.18.16,1.08.58,1.21Z"/><path class="cls-4" d="M161,33.69c14.14.93,28.4,1.49,42.56,1.88.42,0,1.45-1,.82-1.06-14.06-.83-28.24-1.59-42.32-1.81-.39,0-1.26,1-1.06,1Z"/><path class="cls-4" d="M161.32,40.9c14.29-.17,28.49.46,42.77.88.42,0,1.44-1,.81-1.07-14.19-.67-28.54-1.55-42.75-.84-.38,0-1.4,1-.83,1Z"/><path class="cls-4" d="M162,47.7c13.8-.18,27.81.09,41.58,1.17.43,0,1.43-1,.81-1.07-6.92-.54-13.87-.7-20.8-.9s-13.89-.6-20.78-.26c-.4,0-1.41,1.07-.81,1.06Z"/><path class="cls-2" d="M108.31,92.78a43.36,43.36,0,0,1,9.14-6.39A39.28,39.28,0,0,1,128.08,83c.42-.06,1.34-1.18.77-1.09-7.38,1.18-16.63,4.6-21.17,10.91-.37.52.5,0,.63-.08Z"/><path class="cls-2" d="M143.51,79.88c5.79-.84,11.22-2.07,17.05-.54.47.12,1.45-.93,1-1a29.56,29.56,0,0,0-9.74-.71c-2.55.19-5.9.23-7.93,1.93-.08.06-.3.35-.4.37Z"/><path class="cls-2" d="M107.59,44.73c8,1.13,15.28,3.54,20.87,9.68.31.34,1.46-.61,1.18-.93a30.84,30.84,0,0,0-20.91-9.68c-.39,0-1,1-1.14.93Z"/><path class="cls-2" d="M138.71,63.27c5.6,3.07,11.43,8.46,12.55,15.09.05.3,1.24-.46,1.19-.83-.84-6.61-7.13-12.37-12.7-15.27-.32-.16-1.38.82-1,1Z"/><path class="cls-2" d="M101.3,72.2A38,38,0,0,0,84,79.28c-.52.41-.48,1.1.27.64a46.72,46.72,0,0,1,16.56-6.69c.42-.07,1.34-1.16.52-1Z"/><path class="cls-2" d="M97.25,47.43a33.5,33.5,0,0,1,10.31,18.76c.09.48,1.31-.33,1.23-.79A33.71,33.71,0,0,0,98.43,46.51c-.36-.34-1.49.63-1.18.92Z"/><path class="cls-2" d="M112.33,73.66A23.42,23.42,0,0,1,122,84.28c.16.35,1.38-.48,1.16-1a23.61,23.61,0,0,0-9.84-10.72c-.39-.22-1.48.79-1,1Z"/><path class="cls-2" d="M142.1,56a21.24,21.24,0,0,1,15.52.64c.4.2,1.44-.86,1-1.1-4.46-2.26-11.54-2.59-16.1-.49-.29.13-1.09,1.23-.38.95Z"/></g></g></svg>