<svg id="img" xmlns="http://www.w3.org/2000/svg" viewBox="0 0 300 200"><defs><style>.cls-1{fill:#262626;}.cls-2{fill:#004234;}</style></defs><title>ICON_3d</title><path class="cls-1" d="M228.31,76.18a70,70,0,0,1-17.6,41.34,66.15,66.15,0,0,1-27.89,18c-13.41,4.5-27.89,4.75-41.84,3.37-15.13-1.49-31.59-6.55-46,.84a35.28,35.28,0,0,0-14.42,13.82c-3.33,5.83-6.38,14.77-2.61,21,.27.45,1.64-.11,1.42-.46-3.68-6.1-.7-14.85,2.55-20.54a33.33,33.33,0,0,1,15.3-13.95c8.42-3.72,17.91-3.16,26.82-2,8,1,16,2.38,24.1,2.76,22.75,1.08,46.24-4.27,62.47-21.27A70.5,70.5,0,0,0,229.76,76c0-.54-1.42-.26-1.45.18Z"/><path class="cls-1" d="M228.21,76.12a69.74,69.74,0,0,1-17.83,41.49c-10.71,11.78-25.79,18.73-41.42,20.9a114.16,114.16,0,0,1-23.88.53c-7.61-.56-15.1-2-22.68-2.84-7.26-.82-14.76-1.06-21.83,1.07a35.46,35.46,0,0,0-24.08,26.6,17.81,17.81,0,0,0,.12,7.89c.22.79,1.16,4.49,2.62,3,.84-.89-.76-2.8-1-3.71-1.16-4.42.11-9.26,1.86-13.35a34.21,34.21,0,0,1,13.71-16c14.34-8.61,32.13-3.1,47.57-1.54,13.79,1.4,28,.67,41.23-3.58a66.61,66.61,0,0,0,32.89-22.84,71.71,71.71,0,0,0,10.24-18.58,70.13,70.13,0,0,0,2.81-9.62c.32-1.51.6-3,.82-4.54.14-1,1-4.19.51-5a.88.88,0,0,0-1.61,0c-.08.12,0,.59.11.43,1.2-1.74,1.15.77,1.15,1.18a17,17,0,0,1-.27,2.45c-.25,1.89-.58,3.78-1,5.64a69.82,69.82,0,0,1-3.45,11.06,71.32,71.32,0,0,1-11,18.5A67.19,67.19,0,0,1,180,136.86c-13.16,3.72-27,4.1-40.53,2.58-13.92-1.57-29.58-6-42.95.29-10.08,4.75-18.71,15.94-18.91,27.39a15.75,15.75,0,0,0,.22,3.07c.18,1,1.15,2.56,1.15,3.49,0,1.6-1.15.16-1.58-.54a10.11,10.11,0,0,1-.91-3.34,19.61,19.61,0,0,1,.57-7.23A35.44,35.44,0,0,1,88,144.82c11.2-9.84,25.68-9.41,39.56-7.45,14.84,2.1,29.71,3.79,44.62,1.14,15.21-2.71,29.63-10.17,39.72-22a70.37,70.37,0,0,0,16.56-40.24C228.44,76,228.23,75.78,228.21,76.12Z"/><path class="cls-1" d="M96.77,94.66C86,102,80.8,114.55,78.46,126.9c-1.44,7.62-1.25,15.42-2.66,23a60.77,60.77,0,0,1-3.39,11.56c-1.24,3.11-2.76,6.47-2,9.88.83,3.62,6.62,7.55,9.43,3.6.31-.45-.79-1.46-1.07-1.06a3.43,3.43,0,0,1-4.11,1.23c-3.18-1-3.63-4.22-3.06-7.11.77-3.9,2.82-7.53,3.94-11.35,2.46-8.39,2.21-17,3.49-25.6,2-13.41,6.67-27.15,18.32-35.06.38-.26-.15-1.69-.61-1.37Z"/><path class="cls-1" d="M96.55,85c.52,0,1.56-.79.59-.79-.53,0-1.56.79-.59.79Z"/><path class="cls-1" d="M228.31,76.18c-3.69,6.94-12,12.92-19.9,13.39-.71,0-1.22.85-.21.79,8.58-.57,17.56-6.84,21.56-14.36.19-.36-1.22-.25-1.45.18Z"/><path class="cls-1" d="M228.14,76a27.23,27.23,0,0,1-10,10.16,23.93,23.93,0,0,1-7,2.8c-.73.16-3.84,0-3.64,1.18a.44.44,0,0,0,.31.31c2.18.4,4.93-.58,7-1.34a28.89,28.89,0,0,0,6.41-3.38,29.65,29.65,0,0,0,5.89-5.35c.65-.78,3.17-3.43,2.81-4.48a.44.44,0,0,0-.3-.26,1.62,1.62,0,0,0-1.45.36c-.12.09.23.46.35.35,1.35-1.15.1,1.15-.21,1.62a26.94,26.94,0,0,1-1.8,2.34,29.8,29.8,0,0,1-5,4.63,29.13,29.13,0,0,1-6.28,3.52,25.33,25.33,0,0,1-3.19,1c-.7.18-2.55.86-3.23.58s1.66-.55,2-.6a21.06,21.06,0,0,0,3.23-.86,26.55,26.55,0,0,0,5.2-2.52,27.11,27.11,0,0,0,9.33-9.76C228.58,76.21,228.2,75.89,228.14,76Z"/><path class="cls-1" d="M136.08,65.11c-3.55.35-7,1.79-10.42,2.88q-5.68,1.82-11.32,3.79Q103.39,75.62,92.65,80c-1,.37-.06.76.56.51q11-4.43,22.23-8.34,5.41-1.87,10.87-3.64c3.25-1,6.76-1.76,9.78-3.36,0,0,0,0,0,0Z"/><path class="cls-1" d="M136.08,65c-3.62.46-7,1.76-10.44,2.89-3.63,1.19-7.27,2.38-10.88,3.64q-5.7,2-11.33,4.12c-1.8.68-3.61,1.37-5.41,2.07S93.85,79,92.23,80.11c0,0,0,.15,0,.21.52,1.24,6.14-1.75,7.2-2.17q6.2-2.4,12.46-4.63t12.64-4.32c3.87-1.26,7.93-2.12,11.6-4,0,0,0-.14,0-.18v0c0-.15-.12,0-.1.13s-19.45,6.44-21.06,7q-5.59,2-11.15,4-2.67,1-5.33,2c-.58.22-5.39,2.51-5.76,2.16s3.77-1.87,4.42-2.12c1.8-.71,3.6-1.4,5.41-2.09q5.41-2.05,10.88-4,5.22-1.84,10.49-3.55c4-1.3,8-2.91,12.15-3.44C136.17,65.22,136.16,65,136.08,65Z"/><path class="cls-1" d="M96.13,79.58q0,12.54,0,25.07c0,.54,1.43.16,1.43-.29q0-12.6,0-25.22c0-.28-1.43,0-1.43.44Z"/><path class="cls-1" d="M135.87,66c8.19,2.86,16.45,5.6,24.54,8.74.4.15,1.72-.47,1.15-.7-8.05-3.25-16.35-5.87-24.55-8.73-.4-.14-1.71.5-1.14.69Z"/><path class="cls-1" d="M208.3,104.18c-12.82-.39-25.68-.08-38.5-.09H110.69c-4.53,0-9.06,0-13.58,0-.52,0-1.5.79-.53.79,12.38,0,24.75,0,37.13,0q29.79,0,59.6,0c4.69,0,9.4.07,14.09-.08.29,0,1.62-.62.9-.65Z"/><path class="cls-1" d="M160.24,63.35c6.5,2.61,13,5.28,19.5,7.81.4.16,1.73-.44,1.16-.68-6.47-2.67-13-5.22-19.51-7.81-.4-.16-1.71.45-1.15.68Z"/><path class="cls-1" d="M179.77,61.51c10.62,3.63,21.23,7.29,31.87,10.87.4.14,1.72-.48,1.16-.67-10.61-3.66-21.25-7.24-31.87-10.86-.4-.14-1.72.47-1.16.66Z"/><path class="cls-1" d="M134.68,65.56c.19,13.07.32,26.13.56,39.2,0,.28,1.42,0,1.41-.5-.13-13.05-.35-26.1-.54-39.15,0,.1-1.43.26-1.43.45Z"/><path class="cls-1" d="M179.7,61.44c0,3.22,0,6.44.06,9.66,0,.54,1.43.13,1.42-.32,0-3.27,0-6.55-.06-9.82,0-.32-1.42,0-1.42.48Z"/><path class="cls-1" d="M160.12,63.27q.15,5.4.31,10.78c0,.53,1.42.09,1.41-.36q-.14-5.44-.29-10.89c0-.3-1.44,0-1.43.47Z"/><path class="cls-1" d="M206.86,70.67q0,17,0,34c0,.5,1.42.1,1.42-.33q0-17,0-34.08c0-.3-1.44-.06-1.44.41Z"/><path class="cls-1" d="M194.68,46a21.07,21.07,0,0,0-2.88,10.93c0,2.88,0,5.75,0,8.63,0,.26,1.42,0,1.42-.47,0-2.29,0-4.57,0-6.86a24.79,24.79,0,0,1,.47-6.83,35.87,35.87,0,0,1,2.39-5.69c.09-.19-1.23,0-1.42.29Z"/><path class="cls-1" d="M195.22,46.15c1.09,0,3.43-.38,4.19.51s.93,2.58,1.21,3.58a28.66,28.66,0,0,1,.73,7.78c0,3.63,0,7,0,10.6,0,.54,1.44.16,1.44-.28,0-3.1,0-5.91,0-9a49.33,49.33,0,0,0-.15-6.88,31.85,31.85,0,0,0-2-6.82c-.07-.17-.29-.18-.44-.19l-4.39,0c-.51,0-1.53.76-.56.77Z"/><path class="cls-1" d="M196.39,45a22.77,22.77,0,0,0-13.61-11.79,14.22,14.22,0,0,0-9.16,0c-3.08,1.2-5.33,3.71-7.7,5.9-5.77,5.36-12.38,7.11-20.09,5.86-3.17-.51-7.14-1.6-9.9.7a4.56,4.56,0,0,0-1.28,5.9c.27.48,1.48.93,1,.08-1-1.67-.16-3.48,1.11-4.7s3.34-1.54,5.22-1.47c3,.12,5.89,1,8.9,1.14a21.39,21.39,0,0,0,13.85-4.49c4.65-3.56,7.94-8.76,14.49-8.5,7,.27,13.16,5.15,16.18,11.27.25.5,1.43,1,1,.07Z"/><path class="cls-1" d="M135.3,49.18c-.78-6.45,1-12.29,6-16.6A34.45,34.45,0,0,1,160,24.83c7.72-.86,16.59,0,23.63,3.42A27.69,27.69,0,0,1,197.82,45c.14.45,1.38,1.17,1.13.37a30.38,30.38,0,0,0-12.18-16.29c-6.93-4.58-15.93-6-24.1-5.68-7.87.28-15.79,2.65-21.94,7.71-5.38,4.43-7.44,10.58-6.62,17.42.06.46,1.27,1.29,1.19.64Z"/><path class="cls-2" d="M187.77,32.12c-5.88-5-14.41-6-21.8-4.75-8.65,1.49-16.21,6-23.48,10.63-1.64,1.06.95,1.18,1.8.64C156.62,30.79,171.35,24,184.9,33c.53.35,2.51-1.19,2.87-.89Z"/><path class="cls-2" d="M144.9,32.1a39.6,39.6,0,0,1-4.08,7.23c-.4.56.39.71.79.72a2.53,2.53,0,0,0,1.88-.85,39,39,0,0,0,4.28-7.61c.33-.77-2.49-.39-2.87.51Z"/><path class="cls-2" d="M141.28,40c3,.23,6-1.09,9-.86a2.6,2.6,0,0,0,2-.62c.31-.4.42-.86-.28-.91-3.06-.24-6,1.07-9,.84a2.57,2.57,0,0,0-2,.64c-.32.42-.41.86.29.91Z"/><path class="cls-1" d="M125.37,75.82a22.27,22.27,0,0,0-4.94,1.08c-.17,0-.71.28-.61.55s.63.14.82.09A18,18,0,0,0,125.31,76c.09,0,.3-.21.06-.21Z"/><path class="cls-1" d="M124.05,76.62c0,3.09,0,6.18,0,9.28,0,.45,1.41.06,1.42-.33.1-3.14.09-6.27,0-9.41,0-.24-1.43,0-1.43.46Z"/><path class="cls-1" d="M119.65,77.35l.09,9.11c0,.54,1.43.15,1.43-.29l-.09-9.28c0-.09-1.43.11-1.43.46Z"/><path class="cls-1" d="M125.51,85.69a13.89,13.89,0,0,0-4.73.7c-.21.06-.8.22-.8.52s.42.28.63.22c.84-.21,1.69-.4,2.55-.54a6.46,6.46,0,0,0,2.17-.58c.08-.05.5-.28.18-.32Z"/><path class="cls-1" d="M125.2,88.45a6.75,6.75,0,0,0-4.57.93c-.47.37-.37.81-.34,1.36l.17,3c0,.38,1.45,0,1.42-.49-.06-1-.13-2.1-.19-3.15,0-.62.24-.6.84-.74s1.21-.15,1.82-.22c.15,0,1.35-.6.85-.66Z"/><path class="cls-1" d="M123.75,89a39.36,39.36,0,0,1,.17,4.73c0,.53,1.41.15,1.42-.3a38.16,38.16,0,0,0-.17-4.9c0-.24-1.46.07-1.42.47Z"/><path class="cls-1" d="M125.17,93.11a6.78,6.78,0,0,0-4,.45c-.17.07-.52.29-.39.52s.62.09.79,0c1-.34,2.15-.28,3.18-.68,0,0,.59-.29.44-.32Z"/><path class="cls-1" d="M115.14,78.08c.14,3,.32,6,.53,8.92,0,.39,1.46,0,1.42-.48-.21-3-.38-5.93-.52-8.89,0-.31-1.45,0-1.43.45Z"/><path class="cls-1" d="M115.62,77.61c.11,0,.52-.07.18,0l-.41.07c-.34.06-.66.16-1,.25a10.25,10.25,0,0,0-2,.66c-.42.21-.29.5.15.47a12.45,12.45,0,0,0,3.09-.8c.17-.06.65-.23.62-.48s-.46-.18-.61-.15Z"/><path class="cls-1" d="M112.16,78.8l.3,8.77c0,.39,1.44.06,1.42-.47-.1-2.91-.19-5.83-.29-8.75,0-.21-1.45.05-1.43.45Z"/><path class="cls-1" d="M117,86.43a13.4,13.4,0,0,0-3.52.1c-.28,0-.8.14-.93.44s.14.39.4.35c1.06-.14,2.13-.09,3.18-.25a1.75,1.75,0,0,0,.85-.33c.09-.09.27-.28,0-.31Z"/><path class="cls-1" d="M116.9,89.44a19.57,19.57,0,0,0-2.42.34,3,3,0,0,0-1.4.44c-.4.35-.3.7-.29,1.21,0,.9,0,1.8.08,2.7,0,.29,1.43,0,1.42-.47s0-1.24-.05-1.87a4.48,4.48,0,0,1,0-1.55l-.26.3c-.32.09-.36.11-.13.06l.45-.08.73-.13a10.81,10.81,0,0,0,1.49-.37c.2-.07,1-.62.37-.58Z"/><path class="cls-1" d="M116,89.77v2.16a5.63,5.63,0,0,1-.06,2.13l.56-.36c.43-.15-.15,0-.32,0a5.88,5.88,0,0,0-1,.07,6.11,6.11,0,0,0-1.82.61c-.91.49,0,.72.57.47a9.08,9.08,0,0,1,2.46-.35,1.42,1.42,0,0,0,1-.56c.28-.45.11-1.38.11-1.89,0-.9,0-1.81,0-2.72,0-.07-1.42.14-1.42.49Z"/><path class="cls-1" d="M107.71,80q.33,3.57.65,7.16c0,.4,1.47,0,1.42-.47l-.63-7.13c0-.31-1.47,0-1.44.44Z"/><path class="cls-1" d="M110,87c-.13.07-.54-.12-.69-.14a3.15,3.15,0,0,0-.44,0,5.86,5.86,0,0,0-.93.09,7.24,7.24,0,0,0-1.74.57c-.18.08-.57.33-.37.56s.76,0,1-.06a4.16,4.16,0,0,1,1.38-.37A5.14,5.14,0,0,0,110,87Z"/><path class="cls-1" d="M109,79.29a27.44,27.44,0,0,0-3.14.09c-.29,0-1,.19-1,.61a70.94,70.94,0,0,1,.49,8.37c0,.5,1.43.11,1.43-.3a67.24,67.24,0,0,0-.49-8.51l-1,.61a16.39,16.39,0,0,0,3-.35c.11,0,1.15-.5.73-.52Z"/><path class="cls-1" d="M109.63,90.6a21.25,21.25,0,0,0-2.76.13c-.31,0-1,.21-1,.64l.31,3.94c0,.35,1.45,0,1.42-.49l-.3-3.93-1,.63a14.64,14.64,0,0,0,2.72-.32c.17,0,1.3-.57.57-.6Z"/><path class="cls-1" d="M108.91,90.93l-.06,4,1.14-.54a7.16,7.16,0,0,0-3.32.57c-.19.08-.55.32-.36.56s.76,0,1-.07a4,4,0,0,1,1.88-.27c.27,0,1.13-.14,1.14-.54,0-1.39,0-2.78,0-4.17,0-.2-1.41,0-1.42.48Z"/><path class="cls-1" d="M154.1,88.7c-2.28-.3-4.56-.63-6.85-.91-.41-.05-1.68.65-.87.77,2.28.34,4.57.62,6.86.93.43.05,1.66-.68.86-.79Z"/><path class="cls-1" d="M146.35,88.88c.12,5.19.22,10.38.36,15.57,0,.48,1.42,0,1.41-.37-.09-5.22-.22-10.44-.34-15.66,0-.18-1.44.06-1.43.46Z"/><path class="cls-1" d="M153.28,89.46q.12,7.56.27,15.12c0,.53,1.42.1,1.42-.34q-.12-7.62-.26-15.23c0-.3-1.44,0-1.43.45Z"/><path class="cls-1" d="M180.32,89.21A83.51,83.51,0,0,0,166.8,87c-.43,0-1.68.71-.86.8,4.41.5,8.74,1.37,13.13,2,.32,0,1.38-.56,1.25-.6Z"/><path class="cls-1" d="M166.05,88.14c.23,5.53-.13,10.82,0,16.35,0,.54,1.44.12,1.43-.32-.14-5.57.23-10.92,0-16.48,0-.33-1.44,0-1.43.45Z"/><path class="cls-1" d="M172.76,89.32c.05,5,.12,10.07.18,15.1,0,.54,1.42.13,1.42-.32-.06-5.08-.11-10.17-.18-15.25,0,0-1.42.21-1.42.47Z"/><path class="cls-1" d="M179,89.9c-.15,5,0,9.64,0,14.73,0,.39,1.43,0,1.41-.51-.19-4.93,0-9.67.07-14.68,0-.28-1.42,0-1.43.46Z"/><path class="cls-1" d="M199.28,89.57a55.3,55.3,0,0,0-7.37-1c-.41,0-1.68.67-.86.79,1.37.19,2.74.33,4.12.5a10,10,0,0,0,3.12.19,3.75,3.75,0,0,0,1-.49Z"/><path class="cls-1" d="M191.08,89.47c0,5.13.1,9.91.17,15,0,.52,1.41.09,1.41-.35,0-5.17-.09-10-.16-15.16,0,0-1.42.21-1.42.47Z"/><path class="cls-1" d="M197.81,90.2q0,7,.07,14.09c0,.5,1.41.08,1.41-.35,0-4.74,0-9.48-.06-14.22,0-.13-1.42.1-1.42.48Z"/><path class="cls-2" d="M172.41,110.46c-4,6.91-12.6,8.86-20,8.59-8.68-.32-16.53-5-25.15-5.73-12.89-1.15-26.19,2.85-35.38,12.14a46.54,46.54,0,0,0-11.09,19.29c-.28.88,2.58.43,2.87-.49,4.2-13.41,13.94-24.46,27.85-28a43.75,43.75,0,0,1,23.26.71c7.29,2.14,14.2,4.48,21.89,3.59,7.38-.84,14.89-3.87,18.66-10.61.19-.34-2.45-.21-2.86.49Z"/><path class="cls-2" d="M173.41,109.3a49.43,49.43,0,0,0-.1,9.73c.08,1,2.41-.73,2.33-1.76a46.32,46.32,0,0,1,.14-9.27c.14-1.29-2.26.35-2.37,1.3Z"/><path class="cls-2" d="M174.31,107.54a27.44,27.44,0,0,1-8.08,3.17,2.41,2.41,0,0,0-1.64,1.26c-.16.33-.38,1.26.35,1.1a30.54,30.54,0,0,0,9.21-3.54c.47-.27,1.37-1,1.26-1.64s-.59-.65-1.1-.35Z"/><path class="cls-1" d="M159.85,63.07c-5.22,1.83-9.63,3.33-14.81,5.26-.79.3-.28.8.37.59,5.31-1.78,9.71-3.47,15-5.33,1-.33.08-.75-.55-.52Z"/><path class="cls-1" d="M179.73,61.27c-3.95,1.07-7.92,2.55-11.75,4-.8.3-.29.73.35.53,3.92-1.2,8-2.47,11.75-4,.79-.33.28-.65-.35-.48Z"/></svg>