<svg id="img" xmlns="http://www.w3.org/2000/svg" viewBox="0 0 300 200"><defs><style>.cls-1{fill:#262626;}.cls-2{fill:#fff;}.cls-3{fill:#004234;}</style></defs><title>ICON_8d</title><path class="cls-1" d="M91.85,112.84a52.12,52.12,0,0,1,42.36,52.6c0,.9.65.89.68,0a53.29,53.29,0,0,0-43-54.1c-.41-.08-.5,1.4,0,1.5Z"/><path class="cls-1" d="M94.41,93.51c7.91-1.44,16.8,2.48,23.36,6.64A68.69,68.69,0,0,1,135,116.32c10.86,14,19.61,32.61,16.16,50.73-.09.48.41,1.7.59.75,2.69-14.14-1.57-28.32-8.45-40.65-6.43-11.53-15.19-22.42-26.67-29.25-6.3-3.74-14.79-7.25-22.24-5.89-.5.1-.41,1.58,0,1.5Z"/><path class="cls-1" d="M102.6,77.89c20.19-3.53,37.46,9.91,48.33,25.6.33.48.58-.93.33-1.29-10.93-15.79-28.36-29.36-48.67-25.81-.5.09-.41,1.58,0,1.5Z"/><path class="cls-1" d="M154,109.84A51,51,0,0,1,164.69,130c.25.94.71-.27.58-.76a52.49,52.49,0,0,0-11-20.72c-.4-.47-.62,1-.33,1.3Z"/><path class="cls-1" d="M165.72,133.09A55.85,55.85,0,0,1,167.5,164c-.12.49,1,1.4,1.16.88a56.83,56.83,0,0,0-1.81-31.4c-.15-.45-1.39-1.16-1.13-.37Z"/><path class="cls-1" d="M114.46,64.86C125,59.44,138.07,66.23,147,72.07c9.73,6.39,18.7,15,23.92,25.48.36.72.67-.68.47-1.07C166.07,85.8,157,77.12,147.14,70.62c-9-5.91-22.24-12.69-32.87-7.2-.41.21-.26,1.67.19,1.44Z"/><path class="cls-1" d="M173.78,112a15.2,15.2,0,0,1,2.5,6c.17,1,.77.27.65-.41a17.17,17.17,0,0,0-2.82-6.86c-.34-.48-.58.93-.33,1.29Z"/><path class="cls-1" d="M182.6,158.05c2.18-7,2.78-14.22,0-21.14-.18-.43-1.44-1.14-1.13-.38,2.75,6.77,2.12,13.79,0,20.64-.15.48,1,1.41,1.17.88Z"/><path class="cls-1" d="M192.17,121.05a37.4,37.4,0,0,1,2.53,24c-.12.49,1,1.4,1.17.88a38.69,38.69,0,0,0-2.7-24.82c-.24-.51-1.4-1-1-.07Z"/><path class="cls-1" d="M201.93,114a17.45,17.45,0,0,1,2.41,10.22c0,.47,1.14,1.34,1.18.65A18.64,18.64,0,0,0,202.93,114c-.28-.47-1.49-.92-1-.08Z"/><path class="cls-1" d="M135.4,55.14c6.16-1.28,12.67,1,18.38,3.2a67.9,67.9,0,0,1,13.77,7.08,72.6,72.6,0,0,1,21.54,23.42c.29.48.56-.92.33-1.3A73.38,73.38,0,0,0,167.72,64a67.55,67.55,0,0,0-14.11-7.21c-5.67-2.11-12.13-4.38-18.22-3.12-.5.1-.4,1.58,0,1.5Z"/><path class="cls-1" d="M97.21,132.81A39.35,39.35,0,0,1,119.14,159c.24.94.7-.27.58-.76a40.31,40.31,0,0,0-22.34-26.87c-.46-.21-.59,1.26-.17,1.45Z"/><path class="cls-1" d="M197,76.84c-16.52-1.88-34.3,3.87-48.54,12a95.79,95.79,0,0,0-34.18,33.05A97.25,97.25,0,0,0,103.71,146c-.14.48,1,1.41,1.16.88a96.41,96.41,0,0,1,63.21-65c9.46-3,19.69-4.91,29.61-3.77.64.07-.18-1.13-.65-1.19Z"/><path class="cls-1" d="M105.18,145.85A80.21,80.21,0,0,1,117,98.07a69.48,69.48,0,0,1,38-29.56,94.3,94.3,0,0,1,28.57-4.07c.68,0-.17-1.19-.65-1.19-16.7,0-33.45,3.56-47.39,13.15-14.16,9.75-23.83,24.56-28.56,41a78.44,78.44,0,0,0-3,27.84c0,.46,1.23,1.3,1.18.64Z"/><path class="cls-1" d="M104.6,146c-5.79-18.35-5.7-38.56,2.67-56.13a62.26,62.26,0,0,1,17.59-22.48A58.71,58.71,0,0,1,147.76,57c6.76-1.53,14.47-2.51,21.3-.79.82.2.09-1-.38-1.13-5.84-1.47-12.24-1-18.12,0a62.15,62.15,0,0,0-23.24,8.73c-16.32,10.45-25.93,30-27.67,48.91a83.67,83.67,0,0,0,3.83,32.84c.14.45,1.37,1.18,1.12.38Z"/><path class="cls-1" d="M105,146.1q22.25-18.28,45.62-35.12c.39-.28-.61-1.38-1.06-1.06Q126.16,126.75,103.91,145c-.38.31.64,1.4,1.06,1.06Z"/><path class="cls-1" d="M104.81,146.2l.55.32.14.65c.8-1,3.64-.8,4.85-1q2.3-.41,4.56-.93a88.47,88.47,0,0,0,8.88-2.6,116.29,116.29,0,0,0,17.37-7.84c11.12-6.06,21.42-13.46,31.64-20.89.39-.29-.61-1.39-1.06-1.06-10.62,7.72-21.34,15.43-33,21.6a112.17,112.17,0,0,1-17.06,7.43,83.72,83.72,0,0,1-8.93,2.47c-1.65.36-3.32.67-5,.92-1.07.16-2.64,0-3.36.85-.16.19,0,.48.13.64.31.42.58.69,1.12.65.1,0,.24,0,.26-.15l0-.17c.07-.5-1.09-1.38-1.16-.88Z"/><path class="cls-1" d="M105.72,146.79a68.7,68.7,0,0,0,44.13,12.67A66.76,66.76,0,0,0,190.1,142.3a67.53,67.53,0,0,0,15-19.63c.21-.43-.9-1.41-1.17-.88-13.54,26.7-43.94,41.4-73.25,35.11A66.39,66.39,0,0,1,106,146c-.82-.58-.81.38-.23.8Z"/><path class="cls-1" d="M206.78,109.8a58.16,58.16,0,0,1-36.68,53.62c-22.54,8.77-48.95,2.18-64.5-16.4s-17.42-45.6-5-66.19a58.11,58.11,0,0,1,58.94-27.1,57.11,57.11,0,0,1,46.59,47.44,59.36,59.36,0,0,1,.64,8.63c0,.47,1.19,1.33,1.19.65a59.52,59.52,0,0,0-37.3-54.64,58.09,58.09,0,0,0-71.09,84.1A59.3,59.3,0,0,0,160,167.64a58.53,58.53,0,0,0,47.27-48.1,61.52,61.52,0,0,0,.7-9.09C208,110,206.79,109.12,206.78,109.8Z"/><path class="cls-1" d="M102,51.65c2.32-1.33,4.46-2.95,6.78-4.28.52-.3-.47-1.4-.88-1.16-2.32,1.33-4.47,2.94-6.79,4.27-.51.3.47,1.4.89,1.17Z"/><path class="cls-1" d="M101,50.62c-.36,3.36.35,6.68,0,10,0,.51,1.12,1.37,1.17.88.34-3.34-.37-6.66,0-10,0-.51-1.11-1.37-1.17-.89Z"/><path class="cls-1" d="M101.5,61.44l1.64,3c.13.26.49.66.82.63s.3-.31.17-.55l-1.64-3c-.14-.26-.5-.66-.82-.63s-.3.31-.17.55Z"/><path class="cls-1" d="M104.05,65.35q4.41-3.46,9-6.65c.39-.27-.61-1.38-1.06-1.07q-4.6,3.19-9,6.66c-.39.31.63,1.4,1.06,1.06Z"/><path class="cls-1" d="M106.57,48.07a78.24,78.24,0,0,1,5.48,9.52c.24.51,1.41,1,1,.08a80.1,80.1,0,0,0-5.68-9.83c-.39-.6-1.34-.61-.79.23Z"/><path class="cls-1" d="M105.7,42.13c.54,1.57,1.52,2.91,2.06,4.47a1.19,1.19,0,0,0,.75.75c.28,0,.48-.05.37-.37-.53-1.57-1.52-2.91-2-4.48-.15-.44-1.39-1.16-1.13-.37Z"/><path class="cls-1" d="M106.59,43q4.88-2.82,9.82-5.51l4.18-2.23c.83-.44,4.6-3,5.41-2.53l-.62-.94-.09.21c-.18.45.95,1.41,1.17.88l.08-.2c.14-.35-.38-.81-.62-.94-1.07-.59-1.85.1-2.85.62q-3.16,1.61-6.29,3.29c-3.79,2-7.54,4.14-11.25,6.29-.39.23.57,1.35,1.06,1.06Z"/><path class="cls-1" d="M125.21,32.18l6.49,12.39c.26.49,1.45,1,1,.08L126.2,32.26c-.25-.49-1.44-.94-1-.08Z"/><path class="cls-1" d="M110.39,53.07q10-5.32,19.52-11.45c.39-.25-.59-1.36-1.06-1.06q-9.43,6.07-19.34,11.34c-.53.28.46,1.39.88,1.17Z"/><path class="cls-1" d="M110.07,59.61c-1.65.47-1.91,2.38-1.45,3.82S111,67,112.81,66.2c3-1.4.11-7.48-2.74-6.59-.53.16.39,1.31.88,1.16.93-.29,1.51.82,1.77,1.56A2.1,2.1,0,0,1,112,65c-2.17,1.24-3.51-3.5-1-4.2.52-.15-.39-1.3-.88-1.16Z"/><path class="cls-1" d="M113,58.75c4.7-2.54,9.26-5.31,14-7.85.52-.28-.46-1.39-.88-1.16-4.7,2.53-9.26,5.31-14,7.84-.52.29.46,1.4.88,1.17Z"/><path class="cls-1" d="M129.64,48.77c-.95-1.35-2.95-1.11-3.14.67A5.61,5.61,0,0,0,129,54.58c2,1,3.19-.81,2.68-2.65s-1.53-3.77-3.44-4.15c-.61-.13.18,1.09.64,1.18.92.19,1.48,1.78,1.68,2.6.26,1.09-.34,2.68-1.66,1.85a3.55,3.55,0,0,1-1.18-2.63,1.82,1.82,0,0,1,.26-1.33c.1-.12.81-.57.9-.45.41.58,1.37.59.79-.23Z"/><path class="cls-1" d="M131.56,44l.76,1.35c.16.29.44.55.16.87a2.81,2.81,0,0,1-.74.41l-2.23,1.2c-.52.28.46,1.39.88,1.16l1.7-.91a7.27,7.27,0,0,0,1.45-.8.86.86,0,0,0,.2-1.07,14.83,14.83,0,0,0-1.19-2.13c-.13-.24-.5-.68-.82-.63s-.32.29-.17.55Z"/><path class="cls-1" d="M135.85,43.83A27.45,27.45,0,0,1,151.63,42c.62.11-.19-1.1-.65-1.19a27.89,27.89,0,0,0-16,1.84c-.53.22.42,1.36.88,1.16Z"/><path class="cls-1" d="M134.56,40.61a28.64,28.64,0,0,1,12.88-1.56c.65.07-.17-1.13-.64-1.18a29.27,29.27,0,0,0-13.12,1.57c-.53.19.41,1.34.88,1.17Z"/><path class="cls-1" d="M149.63,39.24a10.26,10.26,0,0,1,5.46.91c.89.41.43-.76-.08-1a11.64,11.64,0,0,0-6.26-1.07c-.48.05.37,1.22.88,1.16Z"/><path class="cls-1" d="M103.79,50.13q1.39,2.44,2.71,4.94c.26.48,1.45.94,1,.07-.88-1.66-1.78-3.3-2.71-4.94-.27-.47-1.48-.92-1-.07Z"/><path class="cls-1" d="M102.15,59.08q2.75-1.66,5.38-3.49c.39-.27-.61-1.38-1.06-1.06q-2.64,1.83-5.38,3.49c-.39.23.58,1.35,1.06,1.06Z"/><path class="cls-1" d="M107.72,46.28q3.11,5.05,5.8,10.33c.25.5,1.43,1,1,.08q-2.7-5.28-5.8-10.33c-.28-.46-1.5-.91-1-.08Z"/><path class="cls-2" d="M232.29,126c-4-7.68-12-11.68-20.62-14.13a30.35,30.35,0,0,0-7.39-3.46,20.42,20.42,0,0,0-7.92-.88c2-4.49,5-8.76,5.75-13.59.32-2.06.44-9.44-5.46-10.18-11.22-1.41-16.26,8.73-20.6,18.38a80.74,80.74,0,0,0-26.19,4.66q-2.54.56-5.07,1.22c-.71.12-1.41.25-2.11.41-4.81-1.13-9.61.18-13.75,3a13.54,13.54,0,0,0-4.2,4.32,3.87,3.87,0,0,0-1.74,3,1.71,1.71,0,0,0,1,1.61,6,6,0,0,0,.7,1.54c.77,1.23,2.53,1.14,4.43.49.39,1.36,2.52,1.36,4.12,1.05a152.19,152.19,0,0,1,24.49-2.63c.06,1,1,1.65,2.71,1.61l1.73,1.48L159.51,130l-.8,1.82-.2,0c-4.89.45-11.24,3.29-13.19,8.12-.57,1.43-.12,2.17,1.33,2.57.47.13.95.25,1.43.35-.49.34-1,.67-1.47,1-1.22.9-3.58,2.71-3.11,4.5a1.6,1.6,0,0,0,.36.67c-.45.21-.91.41-1.36.63a51,51,0,0,1-6.47,2.36,79.84,79.84,0,0,1-12.1,2.25,99.44,99.44,0,0,1-11.7.71,3.43,3.43,0,0,0-1.6,0c-2.29,0-4.68-.44-6.95-.27a11.28,11.28,0,0,0-2,.33c-.72-.26-1.44-.53-2.16-.85-2.62-1.13-11.77,6.31-11.58,6.44,11.36,7.59,24.77,7,37.68,4.46,9.18-1.79,18.08-4.19,24.71-9.93a31.2,31.2,0,0,0,6-3.91c.47-.4,2.36-2.25,4.1-4.21a100.09,100.09,0,0,1,12.77-1c2.4,0,12.34-4.57,8.59-7.89-1.67-1.48-4.45-3.21-5.93-5a16.15,16.15,0,0,0,2-1.7l2.77-2.81c1.59-1.49,2.81-2.64,3.68-3.48,1.33.35,6.26,1.32,6.75,1.42L206,129.9a9.29,9.29,0,0,0,5.34-.83,39.37,39.37,0,0,0,10.52,4.06C224.36,133.73,234.17,129.63,232.29,126Z"/><path class="cls-2" d="M154.52,148.09c.4-.38.79-.74,1.17-1.14.65-.7-.64-.39-1.29-.2.32-.2.64-.4.95-.62,1.07-.73,1.84-2.32-.21-1.75-10.84,3-20.17,7.49-31.21,10A69.25,69.25,0,0,1,104.45,156c-6.34-.5-12.46-2.44-18.54-4.19-1.34-.38-5.29,2.16-3.23,2.87,1.47.51,2.94,1,4.42,1.48-.55.43-.86.87-.65,1.12a13.74,13.74,0,0,0,4,3.13c-1.46.58-2.89,1.81-1.94,2.35a25.79,25.79,0,0,0,7.07,2.67c-.49.39-.77.71-.56.76,11.09,2.44,25.16,3.57,37-.22,7.73-2,19.79-7.48,26.19-13.06.44-.38-2.42-2-2.58-2.12.24-.47-.54-.52-1.14-.39.73-.71,1.43-1.44,2.1-2.2C157.44,147.28,155.27,147.84,154.52,148.09Z"/><path class="cls-2" d="M204.2,121.44l-.45-.12c1.93-3.37,3-7.46-.94-9.92-1.32-.82-3.12-1-4.73-1.5q-.51-1.5-1-3c.72-.38,1.32-.88,1.43-1.39.34-1.56.67-3.12,1-4.67a1.1,1.1,0,0,0,.28-.39c0-.11.07-.23.11-.34h0v0a37.28,37.28,0,0,0,1.39-5.3c1.81-2.51,1.71-6.45-1.8-7.76a1.58,1.58,0,0,0-.35-.06c.18-.37,0-.69-.65-.86q-.36-.09-.72-.15c0-.21-.2-.39-.54-.53a5,5,0,0,0-1.95-.33,2,2,0,0,0-.71-.57,2.71,2.71,0,0,0-2.1.08A5.09,5.09,0,0,0,190,85.88a1.86,1.86,0,0,0-.73,1.23c-6.6,3.18-11.68,11.14-15.21,17.86-3.11,0-6.21.17-9.31.35h0l-.33,0a4.8,4.8,0,0,0-2.76-1.44,5.18,5.18,0,0,0-4.23,1.89,2.76,2.76,0,0,0-.25.44,17.64,17.64,0,0,0-3.44.63,96.32,96.32,0,0,0-14.85,1.32c-3.92.59-8.27.7-10.67,4.27-1.19,1.77-4.24,6.44-1.18,7.7,2.61,1.06,4.8-1.64,7-3,3.91.32,7.94.06,11.77.09a40.12,40.12,0,0,0,5.75-.12c.77.08,1.55.13,2.32.15a4.51,4.51,0,0,0,0,.52,2.7,2.7,0,0,0,.53,1.45,3,3,0,0,0,3.2.74,7,7,0,0,0,3.51-2.25l.5-.62c2.45.14,4.89.31,7.34.47a54.31,54.31,0,0,0-6,11.71,42.77,42.77,0,0,0-3,5.92,1.52,1.52,0,0,0-.06.2c-2.82.7-5.64,1.28-8.54,1.73-.76.12-4.41,2.6-2.19,3a50,50,0,0,0,9.36.76,6.73,6.73,0,0,0-.6,2.91c-.94,1.49,1.39,2.38,3.09,1.12,1.25-.93,2.51-1.84,3.76-2.75a52.18,52.18,0,0,0,11.07,1.79c1.08.07,4.5-1.57,3-3a18.62,18.62,0,0,0-7-4.38c.61-.56,1.21-1.12,1.79-1.71.31-.32.42-.54.42-.71A112.4,112.4,0,0,0,185.92,121l10.72,2.27a5.85,5.85,0,0,1,1.22,1.59c.75,1.48,3.27.07,4-.81C203.47,123.55,205.72,121.89,204.2,121.44Z"/><path class="cls-1" d="M71.32,120.72a24.67,24.67,0,0,0-3.2,7.57c-.12.49.36,1.7.59.76a23,23,0,0,1,3-7c.23-.36,0-1.78-.35-1.29Z"/><path class="cls-1" d="M77.4,119.1a6.93,6.93,0,0,0-2.3,3.44c-.08.26-.1.82.13,1s.39,0,.46-.27a5.74,5.74,0,0,1,1.9-2.75c.37-.3.15-1.72-.19-1.44Z"/><path class="cls-3" d="M229.12,123.18c-9.46-3.48-15.61-6-23.09-8.66l.19-.36-.18-.09a1,1,0,0,0,.37-.26,1.28,1.28,0,0,0-.25-1.67,2.93,2.93,0,0,0-1.72-.62,1.19,1.19,0,0,0-.75.08.47.47,0,0,0-.21.65l.09.29a.25.25,0,0,0-.09.28l-.24-.12c-.05.12-.11.25-.17.37-2.45-1-7-2.94-9.75-4.06,0,0,.31-.66,1.33-2.38,3.07-5.2,5.85-11,5.06-17-.17-1.25-.66-2.67-1.86-3.06l-.55,0c-2.67-1-5.77-.11-8,1.61a24.43,24.43,0,0,0-5.43,6.56c-2.3,3.59-4.52,7.22-6.71,10.87l-13.91,1.47-.13.23.1-.31a1.09,1.09,0,0,0,.42-.66,1.39,1.39,0,0,0-1.12-1.45,3.66,3.66,0,0,0-2,.24,1.61,1.61,0,0,0-.91.56,1,1,0,0,0,.07,1.06c-.09.29-.17.57-.25.86l-29,4,.37,0a15,15,0,0,0-3,6,1.42,1.42,0,0,0,0,.91c.36.71,1.47.32,2-.3s.94-1.46,1.73-1.51l.09-.31q12.38,0,24.74.07a5.71,5.71,0,0,0,.73,2c.45.57,1.61.3,1.65-.31.73-.21,1.24-1.14,1.51-2,3.07.13,7.41.57,10.33.8q-2.59,4.66-5.07,9.4a72.86,72.86,0,0,0-4.38,9.71,87.82,87.82,0,0,0-9.78,1.9c-.63.13-1.43.49-1.33,1.13,2.72.4,5.48.63,10,.87-.08.38-.17.76-.24,1.15a2.83,2.83,0,0,0,.23,2.11,1.16,1.16,0,0,0,1.52.27c1.42-.92,2.83-1.93,4.21-3a77.13,77.13,0,0,0,11.08,2.18c.25-.44-.21-.93-.63-1.22-1.68-1.14-4.47-2.87-6.62-4.12a135.91,135.91,0,0,0,16.57-17.83c3.57.5,8.51,1.46,12.7,2.25a7.4,7.4,0,0,0-.4,1.37.92.92,0,0,0,.13.77.74.74,0,0,0,.66.15,2.82,2.82,0,0,0,1.64-1.39c.1-.15.21-.3.31-.46,1.14.21,2.17.4,3,.54h0c7.63,1.58,14.37,2.7,21.64,4.16l-.08.34a2.27,2.27,0,0,0,0,1.1.77.77,0,0,0,.88.51,1.12,1.12,0,0,0,.55-.67c.58-1.34,2-3.5,2.33-4.92Z"/><path class="cls-1" d="M74.7,124.74c-3,4.85-3,11-.81,16.17,2.41,5.86,7.37,10.1,13,12.77,13.44,6.37,29.79,5.32,43.81,1.64a123.46,123.46,0,0,0,24.61-9.55c.44-.23,1-1.37.15-1-16.59,7.94-34.85,14.09-53.48,11.68-8.37-1.08-17.17-3.9-23-10.32-5.36-5.9-7.2-14.68-3.2-21.78.39-.69-.89,0-1.08.34Z"/><path class="cls-1" d="M67.77,131.18c-2.37,14.78,9.91,25.51,22.42,30.4a66.86,66.86,0,0,0,41.65,2A65.76,65.76,0,0,0,153,153.48c.38-.27.18-1.71-.19-1.44a67.08,67.08,0,0,1-47,12,59.29,59.29,0,0,1-23.87-8c-8.35-5.18-15.17-14.09-13.51-24.42.1-.67-.5-1.39-.66-.39Z"/><path class="cls-1" d="M197.89,87c2.68,1.37,1.16,7.55.54,9.71a37.24,37.24,0,0,1-3.5,7.94,119.48,119.48,0,0,1-10.07,15,130.9,130.9,0,0,1-24.31,23.94c-.39.29.62,1.39,1.06,1.06A130.87,130.87,0,0,0,189.45,116c3.66-5.19,7.46-10.76,9.61-16.77,1.28-3.57,3.14-11-1.24-13.22-.88-.44-.42.74.07,1Z"/><path class="cls-1" d="M197.11,86c-6.74-2.11-11.16,4-14.32,9q-6.1,9.56-11.67,19.45c-3.7,6.59-7.74,13.3-10.35,20.42-.78,2.12-2.64,6.08-1.37,8.29.59,1,2,1.76,2.85.66.34-.43-.76-1.45-1.06-1.06l-.88-1.08c.07-.43.16-.86.26-1.29q.23-1.08.54-2.13a37.57,37.57,0,0,1,1.3-3.74c1-2.47,2.18-4.85,3.4-7.21q4.2-8.11,8.78-16,4.46-7.71,9.26-15.23c3-4.62,7.2-11,13.64-8.94.79.25.08-1-.38-1.12Z"/><path class="cls-1" d="M175.91,105.12l-13.15,1.39c-.48,0,.37,1.22.89,1.16l13.14-1.38c.48-.06-.37-1.22-.88-1.17Z"/><path class="cls-1" d="M159.19,105.92l-2.06,7.15c-.41,1.42-1.38,3.34-.91,4.84.42,1.32,2.94,2.45,3,.43,0-.47-1.16-1.33-1.18-.65-.7-.15-.88-.5-.53-1l.26-.9c.29-1,.6-2.08.9-3.13l1.67-5.8c.14-.49-1-1.41-1.16-.89Z"/><path class="cls-1" d="M158.44,118.87c1.89-.08,2.28-2,2.78-3.56l2.84-8.79c.16-.48-1-1.41-1.16-.88l-2.1,6.47c-.5,1.55-1,5.49-3,5.58-.68,0,.17,1.2.65,1.18Z"/><path class="cls-1" d="M159.22,107,130,111.07c-.49.06.37,1.23.88,1.16l29.22-4.06c.49-.07-.37-1.24-.88-1.16Z"/><path class="cls-1" d="M130.28,111.16a16.08,16.08,0,0,0-2.39,4c-.42,1-1.16,2.49-.57,3.54a1.72,1.72,0,0,0,1.81.89c1.29-.27,1.5-1.9,2.76-2.15.51-.11-.38-1.27-.88-1.17-.74.15-1,.59-1.5,1.14-.25.3-.54.86-1,.92s-.24-.07-.08-.58a15.93,15.93,0,0,1,2.88-5.48c.34-.42-.75-1.45-1.06-1.06Z"/><path class="cls-1" d="M156,116q-12.36-.12-24.73-.07c-.68,0,.17,1.19.65,1.18q12.36,0,24.73.07c.68,0-.17-1.18-.65-1.18Z"/><path class="cls-1" d="M160.72,117.26q4.93-.08,9.86.21c.66,0-.17-1.16-.65-1.19-3.28-.19-6.57-.26-9.85-.2-.68,0,.17,1.19.64,1.18Z"/><path class="cls-1" d="M161.47,106.92c-.46,0-2,0-1.21-.85a3.14,3.14,0,0,1,1.75-.61c.44,0,1.15,0,1,.63a1,1,0,0,1-.42.48,3.58,3.58,0,0,1-1.5.41c-.48,0,.37,1.22.88,1.16,1.05-.11,2.5-.55,2.25-1.9a2.68,2.68,0,0,0-2.93-2c-1.11.12-2.76.62-2.26,2s1.85,1.76,3.14,1.78c.67,0-.17-1.18-.65-1.19Z"/><path class="cls-1" d="M160,135.65l-6.85,1.41c-1.2.24-3.49.23-3.77,1.74-.08.46.49,1,.91,1a67.14,67.14,0,0,0,9.07.67c.68,0-.17-1.18-.65-1.19a65.56,65.56,0,0,1-9.07-.67l.91,1c.25-1.4,3.89-1.54,5-1.77l5.33-1.1c.51-.1-.38-1.27-.88-1.16Z"/><path class="cls-1" d="M169.21,138.18c1.25.71,7.08,3.33,6.94,4.89l1-.8a89.12,89.12,0,0,1-11.25-1.73c-.48-.11-1.49.93-1,1a81,81,0,0,0,11.48,1.78,1.16,1.16,0,0,0,1-.79c.1-1.17-.89-1.59-1.78-2.17-1.7-1.12-3.44-2.18-5.23-3.15-.37-.2-1.32.85-1.18.93Z"/><path class="cls-1" d="M185.56,120.14l12.44,2c.47.07,1.43-1,1-1-4.12-.69-8.24-1.5-12.4-2-.38-.05-1.28,1-1.06,1Z"/><path class="cls-1" d="M193.24,109.65c3.24,1.31,6.41,2.84,9.68,4.1.49.19.59-1.28.17-1.45-3.27-1.26-6.44-2.78-9.68-4.09-.49-.2-.6,1.27-.17,1.44Z"/><path class="cls-1" d="M203,112.17c-1.17,2.67-2.67,5.18-3.87,7.83-.41.91-1.87,3.67-.76,4.69,2,1.85,7.34-8.5,8.1-10,.2-.38-.12-1.78-.48-1.06a58.12,58.12,0,0,1-3.1,5.21c-.4.61-2.47,4.53-3.29,4.44-1.42-.15,1.24-4.72,1.5-5.23.82-1.59,1.67-3.18,2.39-4.82.17-.39-.16-1.79-.49-1.06Z"/><path class="cls-1" d="M203.39,111.89c-.92,1,.36,2.38,1.27,2.83a1.51,1.51,0,0,0,2.29-1.26,2.3,2.3,0,0,0-1.78-2.57c-.54-.13-1.35-.32-1.78.16a1.7,1.7,0,0,0-.14,1.73c.12.28.35.24.48,0a1.39,1.39,0,0,0,0-1.06l-.06-.13.1.53V112l-.09.53c.26-.75,2.78.19,2.56.68s-1,.28-1.32.14-1.08-.57-1.16-.94v.76l0,.06c.29-.33.07-1.76-.35-1.3Z"/><path class="cls-1" d="M205.8,115.19C213.59,118,221.28,121,229,123.9c.5.18.59-1.29.17-1.45-7.76-2.86-15.45-5.93-23.24-8.71-.5-.18-.59,1.3-.17,1.45Z"/><path class="cls-1" d="M201.43,123.05c8.1,1.73,16.26,3.11,24.38,4.73.41.08.5-1.4,0-1.5-8.12-1.62-16.28-3-24.38-4.73-.4-.08-.5,1.39,0,1.5Z"/><path class="cls-1" d="M225.4,127.17a2.78,2.78,0,0,0,.42,2.27c.63.62,1.2.16,1.55-.47a24.17,24.17,0,0,0,2.44-5.2c.13-.49-.34-1.69-.59-.76a12.86,12.86,0,0,1-1.25,2.78c-.23.42-.46.83-.67,1.26a4.66,4.66,0,0,1-.25.5c-.24.33-1.13,1.18-1,0,.08-.67-.53-1.4-.65-.39Z"/></svg>