<svg id="img" xmlns="http://www.w3.org/2000/svg" viewBox="0 0 300 200"><defs><style>.cls-1{fill:#262626;}.cls-2{fill:#004234;}.cls-3{fill:#fff;}</style></defs><title>ICON_4d</title><path class="cls-1" d="M137.86,77l-.59,37.16c0,.47,1.17,1.33,1.18.65L139,77.63c0-.47-1.17-1.33-1.18-.65Z"/><path class="cls-1" d="M170.26,90.25q.17,12-.69,23.88c0,.47,1.13,1.34,1.18.65q.85-11.93.7-23.88c0-.47-1.2-1.33-1.19-.65Z"/><path class="cls-1" d="M109.15,70.66c.07,3.71.21,7.43.27,11.15,0,.68.85,1.29.83.28-.07-3.72-.21-7.44-.28-11.16,0-.68-.84-1.29-.82-.27Z"/><path class="cls-1" d="M85,66.37l-.5,12.27c0,.49.86,1.61.9.64L85.9,67c0-.49-.86-1.61-.9-.64Z"/><path class="cls-1" d="M138.81,75.42Q157,84,175.37,92.13c.76.34.12-.95-.31-1.14q-18.39-8.11-36.56-16.71c-.74-.35-.11.94.31,1.14Z"/><path class="cls-1" d="M109.83,82.61c9.4-2.84,18.91-5.28,28.51-7.39.41-.09,1.35-1.18.56-1-9.61,2.06-19.12,4.54-28.53,7.38-.4.12-1.3,1.25-.54,1Z"/><path class="cls-1" d="M84.88,79.79c7.94-2.57,15.79-5.37,23.65-8.16.48-.17,1.16-1.25.24-.93-7.78,2.71-15.51,5.53-23.35,8-.4.13-1.29,1.28-.54,1Z"/><path class="cls-1" d="M54.82,78.1c5.08-1.41,10-3.62,15-5.44s9.93-3.47,14.78-5.47c.42-.17,1.24-1.19.3-.88-5,1.63-9.88,3.62-14.8,5.43S60,75,55.33,77.27c-.2.1-1.23,1-.51.83Z"/><path class="cls-1" d="M60.86,114.69c5.75-.13,11.56.28,17.31.39q11.35.21,22.7.35c16.95.22,33.9.4,50.85.67,6.11.1,12.22.17,18.33.39.46,0,1.51-1,.88-1-29.74-1.09-59.54-.86-89.3-1.37-6.57-.11-13.32-.74-19.88-.4-.37,0-1.43,1-.89,1Z"/><path class="cls-1" d="M117.61,96.32q0,8.31-.36,16.6c0,.5.66,1.61.71.65q.38-8.47.36-17c0-.68-.71-1.29-.71-.28Z"/><path class="cls-1" d="M124.34,94.73,124,113.62c0,.49.69,1.61.7.64l.33-18.88c0-.5-.69-1.61-.71-.65Z"/><path class="cls-1" d="M145.94,85c-.24,3.39-.41,6.79-.56,10.18,0,.5.67,1.62.71.65.14-3.4.31-6.8.55-10.19,0-.5-.63-1.61-.7-.64Z"/><path class="cls-1" d="M148.15,86.42c-.37,3.16-.67,6.31-.78,9.49,0,.49.67,1.61.7.64.12-3.17.41-6.32.78-9.48.06-.51-.59-1.61-.7-.65Z"/><path class="cls-1" d="M154.72,88a72.82,72.82,0,0,1-.74,9.2c-.07.5.57,1.6.71.64a74.41,74.41,0,0,0,.74-9.2c0-.49-.69-1.61-.71-.64Z"/><path class="cls-1" d="M156.91,89.24q-.51,4.41-.85,8.84c0,.5.63,1.61.71.65.22-3,.51-5.9.85-8.84,0-.51-.6-1.61-.71-.65Z"/><path class="cls-1" d="M162.27,90.85c-.19,2.81-.33,5.62-.52,8.44,0,.5.64,1.61.7.64.19-2.81.34-5.63.53-8.44,0-.5-.64-1.61-.71-.64Z"/><path class="cls-1" d="M164,92.08c-.07,2.43-.26,4.84-.52,7.25-.06.5.6,1.61.7.64.27-2.41.45-4.82.52-7.24,0-.5-.68-1.61-.7-.65Z"/><path class="cls-1" d="M145.29,98.74c-.06,1.83-.14,3.65-.2,5.48,0,.26,0,.84.3,1s.4-.06.4-.35c.07-1.82.15-3.65.21-5.48,0-.26,0-.84-.3-1s-.4.06-.41.35Z"/><path class="cls-1" d="M147.29,98.92c-.11,1.82-.27,3.65-.38,5.47,0,.5.64,1.61.7.64.12-1.82.27-3.64.39-5.47,0-.5-.64-1.61-.71-.64Z"/><path class="cls-1" d="M161.83,102.47c-.08,1.49-.2,3-.27,4.46,0,.26,0,.85.3,1s.39-.06.4-.35c.08-1.48.2-3,.27-4.46,0-.25,0-.85-.3-1s-.39.05-.4.34Z"/><path class="cls-1" d="M163.63,103.17c-.06,1.28-.2,2.54-.25,3.81,0,.26,0,.85.3,1s.39-.06.4-.34c.06-1.27.2-2.54.26-3.81,0-.26,0-.85-.3-1s-.4.06-.41.34Z"/><path class="cls-1" d="M154.2,100.56c0,1.6-.14,3.2-.19,4.8,0,.26,0,.86.3,1s.4,0,.41-.34c.05-1.61.13-3.21.18-4.81,0-.26,0-.85-.29-1s-.4.05-.41.35Z"/><path class="cls-1" d="M156.11,101.93c-.11,1.51-.22,3-.2,4.5,0,.68.71,1.3.71.28,0-1.39.1-2.75.19-4.14,0-.25,0-.85-.29-1s-.39.06-.41.35Z"/><path class="cls-1" d="M162.9,91.79l1.4.68c.29.14.45-.08.39-.35a1.26,1.26,0,0,0-.71-.79l-1.4-.68c-.29-.14-.45.09-.39.35a1.29,1.29,0,0,0,.71.79Z"/><path class="cls-1" d="M155.34,88.4l2.31,1.07c.3.13.46-.09.4-.36a1.29,1.29,0,0,0-.71-.79L155,87.26c-.29-.13-.45.08-.39.36a1.22,1.22,0,0,0,.71.78Z"/><path class="cls-1" d="M146.39,85.84l1.85,1c.22.13.54.19.57-.14a1.16,1.16,0,0,0-.59-.85l-1.86-1.06c-.22-.13-.53-.19-.56.14a1.2,1.2,0,0,0,.59.86Z"/><path class="cls-1" d="M145.92,96.2a4.9,4.9,0,0,0,2.14.65c.67,0-.11-1.19-.59-1.21a3.58,3.58,0,0,1-1.57-.43c-.22-.12-.54-.19-.56.14s.33.71.58.85Z"/><path class="cls-1" d="M154.59,98.38l2.29.63c.82.22.16-1-.31-1.15l-2.3-.62c-.82-.23-.15,1,.32,1.14Z"/><path class="cls-1" d="M162.59,100.91a4.55,4.55,0,0,1,1.41.34c.29.12.45-.07.39-.36a1.22,1.22,0,0,0-.71-.78A5.11,5.11,0,0,0,162,99.7c-.66-.06.11,1.17.59,1.21Z"/><path class="cls-1" d="M145.91,98.93l1.87.65c.3.1.46-.06.4-.35a1.24,1.24,0,0,0-.71-.79l-1.87-.65c-.3-.11-.46.06-.4.35a1.27,1.27,0,0,0,.71.79Z"/><path class="cls-1" d="M154.86,101.31a4.35,4.35,0,0,1,1.43.58c.21.14.53.18.56-.14s-.34-.7-.59-.85a5.67,5.67,0,0,0-2-.8c-.34-.07-.28.35-.2.54a1.18,1.18,0,0,0,.79.67Z"/><path class="cls-1" d="M162.59,103.45l1.26.44c.29.1.45-.06.39-.35a1.24,1.24,0,0,0-.71-.79l-1.26-.44c-.29-.1-.46.06-.39.35a1.19,1.19,0,0,0,.71.79Z"/><path class="cls-1" d="M145.76,105.65a9,9,0,0,1,1.36.25c.82.23.15-1-.31-1.14a11.34,11.34,0,0,0-1.64-.33c-.34,0-.29.34-.2.54a1.19,1.19,0,0,0,.79.68Z"/><path class="cls-1" d="M154.85,107.15a4.42,4.42,0,0,1,1.25.16c.81.24.14-1-.32-1.14a5.61,5.61,0,0,0-1.52-.24c-.69,0,.11,1.22.59,1.22Z"/><path class="cls-1" d="M162,108a6.85,6.85,0,0,0,1.91.29c.68,0-.11-1.22-.59-1.22a6,6,0,0,1-1.64-.21c-.81-.23-.15,1,.32,1.14Z"/><path class="cls-1" d="M152.69,65.51c.16,5.18-.23,10.42-.38,15.6,0,.89.65.89.67,0,.16-5.18.54-10.41.39-15.6,0-.88-.7-.89-.68,0Z"/><path class="cls-1" d="M161.25,66.59c.16,5.92-.23,11.89-.38,17.82,0,.47,1.16,1.33,1.18.65.15-5.93.54-11.9.38-17.82,0-.47-1.2-1.32-1.18-.65Z"/><path class="cls-1" d="M156.13,56.93a18.19,18.19,0,0,0-3.37,10c0,.9.64.88.68,0a15.87,15.87,0,0,1,3-8.73c.25-.35,0-1.78-.35-1.29Z"/><path class="cls-1" d="M159.46,57.86a27,27,0,0,1,1.92,10.2c0,.47,1.19,1.33,1.19.65a27.75,27.75,0,0,0-2-10.47c-.17-.43-1.43-1.14-1.13-.38Z"/><path class="cls-1" d="M156.15,58.5a10.68,10.68,0,0,1,3.78.2c.39.09.5-1.39,0-1.5a10.68,10.68,0,0,0-3.78-.2c-.49.06-.44,1.56,0,1.5Z"/><path class="cls-1" d="M156.64,56a17.94,17.94,0,0,0-10-8c-5.51-1.67-10.3.48-15.1,3.12-5.65,3.11-11.81,5.68-18.4,5.08-7.17-.66-12.49-5.46-16.45-11.13-.41-.58-1.38-.6-.8.23,2.87,4.1,6.42,7.91,11,10.15a22.26,22.26,0,0,0,15.27,1.19c6-1.51,10.85-5.53,16.7-7.4,6.56-2.09,13.26,1,16.78,6.73.28.46,1.5.91,1,.08Z"/><path class="cls-1" d="M157,55.87c-.41-11.13-16.58-13.21-24.93-12-5.85.82-11.15,3.77-17.05,4.33a30.69,30.69,0,0,1-18.37-4.22c-.38-.22-1.49.76-1,1a31.56,31.56,0,0,0,15,4.44c5.32.15,10-1.44,15-3a32.64,32.64,0,0,1,18.24-.71c5.67,1.47,11.46,4.54,11.91,11,0,.34,1.23-.39,1.21-.8Z"/><path class="cls-1" d="M85,34.53c3,7.67,9.86,10.92,17.82,10,8.19-.91,16.7-5.15,24.64-1,.4.21,1.49-.79,1-1-6.92-3.64-14.43-1-21.57.38-4.36.86-9,1.28-13.12-.67a15.52,15.52,0,0,1-7.61-8.66c-.12-.31-1.37.45-1.19.91Z"/><path class="cls-1" d="M86.3,34.59l0-1.52-.86,0a21.71,21.71,0,0,0,17.9,5.64c9-1.06,19-2.5,25.6,5.27l0-.69-.43-.09c-.77-.67-.76.33-.23.79s.71.63,1.54.46c.32-.06.06-.58,0-.7-4.62-5.4-11.24-7.47-18.22-7.23-4.18.15-8.29,1.27-12.48,1.27A19.4,19.4,0,0,1,86,32.49c-.19-.17-.85-.61-.86-.06v1.51c0,.47,1.17,1.33,1.18.65Z"/><path class="cls-1" d="M118.23,97a18.16,18.16,0,0,1,6.29-1.33c.48,0,.47-1.52,0-1.5a18.65,18.65,0,0,0-6.47,1.38c-.41.17-.31,1.65.18,1.45Z"/><path class="cls-1" d="M103.54,92.18l-.5,22.34c0,.9.66.9.68,0l.5-22.34c0-.9-.66-.9-.68,0Z"/><path class="cls-1" d="M90.5,94.31l-.52,20c0,.89.65.89.68,0l.52-20c0-.89-.65-.89-.68,0Z"/><path class="cls-1" d="M74.15,96.86Q74.06,105,74,113.11c0,.89.67.9.68,0,0-5.41.13-10.83.18-16.25,0-.89-.66-.9-.67,0Z"/><path class="cls-1" d="M67.33,97.71l-.26,16.17c0,.89.66.9.67,0L68,97.71c0-.89-.66-.89-.68,0Z"/><path class="cls-1" d="M67.36,97.92c2.18-.38,4.35-.85,6.52-1.27.42-.08,1.36-1.17.57-1-2.17.43-4.36.81-6.52,1.28-.38.09-1.37,1.14-.57,1Z"/><path class="cls-1" d="M90.46,94.22c4.13-.61,8.18-1.43,12.35-1.8.41,0,1.43-1,.87-1a54.66,54.66,0,0,0-12.41,1.92c-.22.07-1.22,1-.81.89Z"/><path class="cls-1" d="M96.49,93.63c-.2,7-.3,14.05-.37,21.07,0,.32.6-.38.61-.79.19-7,.32-14,.37-21.06,0-.15-.6.42-.61.78Z"/><path class="cls-1" d="M61,75.56q-.15,18.76.1,37.54c0,.47,1.2,1.33,1.19.65Q62,95,62.15,76.21c0-.47-1.18-1.33-1.18-.65Z"/><path class="cls-2" d="M219.74,133.35c0-.13,0-.19-.09-.22,0-1.2-.76-1.84-2.17-2.45a30.25,30.25,0,0,0-8.9-2.34c-1.5-.14-2.7-.25-3.94.62s-2.22,1.72-2.12,3.2a.52.52,0,0,0,0,.11c.9,3.89,4.27,5.22,7.72,6.6,2.45,1,6.13,2.19,7.72-.73a.34.34,0,0,0,0-.12,10.49,10.49,0,0,0,.56-1.11A19.37,19.37,0,0,0,219.74,133.35Zm-2.9-1.5a.67.67,0,0,0-.26.28,3.57,3.57,0,0,0-.1.35l-.19.1s0-.09.05-.13,0-.07,0-.07a4.49,4.49,0,0,1,.31-.67Zm.86.64-.24.15c0-.1.06-.2.08-.3Zm.71,1.44-.09,0h0c0-.09.05-.18.08-.27A.82.82,0,0,1,218.41,133.93Zm-10.77.77.09-.13c0,.09-.06.19-.08.29A.86.86,0,0,1,207.64,134.7Zm9.45,3.07h0l0,0S217.09,137.78,217.09,137.77Zm-.78-6.19a2.16,2.16,0,0,0-.8.64,6.51,6.51,0,0,0-.48.95h0l-.13.09a12.34,12.34,0,0,0,1-1.91l.45.21Zm-1.2-.38a3.39,3.39,0,0,0-.82.46c.11-.31.21-.57.28-.78l.65.22Zm-1.17-.5v0h0Zm-1-.15,0-.12h0A.76.76,0,0,0,213,130.55Zm-.88-.34a1.38,1.38,0,0,0-.06.16l-.06,0-.15.1c0-.11.07-.22.11-.33Zm-1.78,0c.06-.15.13-.29.2-.43l.38.1A3.51,3.51,0,0,0,210.32,130.23Zm-.59.1c.05-.23.11-.46.17-.68l.61.15C210.4,130,210,130.17,209.73,130.33Zm-4.18,3.47c0-.17.07-.49.12-.8,0,.26-.09.53-.12.8Zm-.06.67c0,.07,0,.14,0,.22a1.59,1.59,0,0,0-.13-.13Zm.89,1h0Zm1.34.45c0-.34-.05-.68-.07-1a.09.09,0,0,0,.07.1l.11,0c-.05.42-.07.85-.1,1.28l-.16-.08A.43.43,0,0,0,207.72,135.89Zm2.82,1.49.13-.17c.1.34.3.53.63.5a.72.72,0,0,0,.24-.1c.06,0,.2,0,.37-.07.08.27.24.42.52.37l.06,0a2.64,2.64,0,0,0,0,.55c-.74-.27-1.47-.58-2.13-.88Zm3.38,1.23a2.26,2.26,0,0,0,0,.26l-.22-.06Zm-4.74-9.12-.16.11a3.66,3.66,0,0,0-.59.49,8.64,8.64,0,0,0-.56.67c.08-.48.18-1,.31-1.44,0-.09-1.12.37-1.23.77s-.18.75-.25,1.12c-.12.1-.22.21-.21.32l0,.16-.07,0c-.18.12-.6.37-.67.62a.64.64,0,0,1,0-.09c.09-.41.19-.82.28-1.23.15-.63.29-1.26.43-1.89A13.58,13.58,0,0,1,209.18,129.49Zm-3.7-.28a.37.37,0,0,0-.08.15c-.25,1-.49,2-.74,3a1.24,1.24,0,0,1,0,.16,9.57,9.57,0,0,1,.59-2.73c.06-.2-.52.13-.55.15-.22.14-.58.36-.67.63s-.17.51-.24.75A1.82,1.82,0,0,1,205.48,129.21Z"/><path class="cls-2" d="M226.06,135.36a7.5,7.5,0,0,0-3.31-2.34c-.33-.14-1.11.52-1.13.85a.44.44,0,0,0-.12.17c-.93,2.29-1.83,4.63-2.62,7,0,.16.06.17.23.11-.16.2-.23.39-.07.43,2.66.69,5.68.69,7.1-2.1a3.72,3.72,0,0,0,0-4S226.09,135.36,226.06,135.36ZM222.34,141a2.5,2.5,0,0,0,.46-.39,2.13,2.13,0,0,0,.66-.32l0,.24-.22.12-.52.3-.07,0Zm-.47-2.19a.2.2,0,0,0,0,.07l0,.08a1.77,1.77,0,0,1-.06.17A3,3,0,0,1,221.87,138.76Zm2.7,1.46h0a.1.1,0,0,0-.05,0Zm-.27-4.61c0,.06-.06.13-.1.2a.71.71,0,0,0-.33.1l-.13.07.12-.41c0-.1-.06-.1-.16-.07a2.39,2.39,0,0,1,.12-.22.69.69,0,0,0,.06-.13,3.54,3.54,0,0,1,.47.38A.56.56,0,0,0,224.3,135.61Zm-.67-.59a.55.55,0,0,0-.23.09l.1-.21.18.12Zm-.56.08.12-.25c0-.06,0-.09,0-.11l.24.13Zm-.22-.26-.23.13c0-.15.11-.3.16-.46l.41.22A.8.8,0,0,0,222.85,134.84Z"/><path class="cls-2" d="M249.29,136.9l0,0a11,11,0,0,0,1.17-1.1,20.66,20.66,0,0,0,2.32-2.87c.09-.14.08-.24,0-.31.34-.92.07-1.76-.89-2.77a28.74,28.74,0,0,0-6.41-4.93c-1.88-1.09-3.41-2.07-5.5-1.32a3.7,3.7,0,0,0-2.65,2.36.51.51,0,0,0-.09.18c-.57,4,2.36,6.58,5.13,9.1C244.34,137,246.93,139,249.29,136.9Zm-4.49-10.81a1.22,1.22,0,0,0-.19.13,12.27,12.27,0,0,0-3.34,4.56l-.12.06a3.48,3.48,0,0,1,.39-1.24c.21-.38.42-.76.65-1.13a10.94,10.94,0,0,1,2.13-2.66Zm1.66,1.08a17.76,17.76,0,0,0-3.26,3.28l.1-.18c.25-.41.52-.81.79-1.2a28,28,0,0,1,1.79-2.28Zm-3.79,2.7a12.43,12.43,0,0,1,2.47-3.56l.24.16A39.58,39.58,0,0,0,242.67,129.87Zm-1-2c-.25.35-.53.74-.81,1.15a25.45,25.45,0,0,1,2.59-3.65l.45.25A11.06,11.06,0,0,0,241.71,127.86Zm1.13-2.45a10.9,10.9,0,0,0-1.38,1.42,9.77,9.77,0,0,1,1.32-1.85c.14.06.28.15.41.22Zm-3.6,3.56a1.5,1.5,0,0,0,.32-.19c-.09.24-.18.47-.25.71l-.24-.47Zm.22.78.08,0a.59.59,0,0,1,0,.08A.21.21,0,0,1,239.46,129.75Zm1.63,1.89a1.3,1.3,0,0,0,.6-.23,7.6,7.6,0,0,0-.35.7c-.13-.13-.25-.27-.37-.4Zm2.08,0c.66-1.47,3-3.67,3.65-4.24l.17.11a2,2,0,0,0-.4.26,22,22,0,0,0-2.9,3.2C243.58,131.14,243.37,131.39,243.17,131.66ZM246,129l-1.82,2.65c-.08.13-.24.32-.4.53A10.2,10.2,0,0,1,246,129Zm1.53-1.08.6.43a1.3,1.3,0,0,0-.3.19,20.72,20.72,0,0,0-2.86,3.21C245.71,130.47,247.15,128.54,247.57,127.93Zm.86,8.77a1.4,1.4,0,0,1-.29.09.55.55,0,0,0,.17-.18l.3-.6a.74.74,0,0,0,.3,0l.08,0a1.36,1.36,0,0,0,.47-.2l.15-.09C249.22,136,248.81,136.33,248.43,136.7Zm-2.86-3.24c.15-.25.29-.49.45-.73Zm5.42-1.8c.08-.12.16-.23.23-.35l.1.17A3.27,3.27,0,0,0,251,131.66Zm-.52-1.15-.1.11a1.65,1.65,0,0,0-.43.18l.47-.51.15.15Zm-.94-.76a18,18,0,0,0-2.18,2.35c.61-1,1.27-1.92,2-2.84a5,5,0,0,1,.42.37Zm-.84-.66-.06.07c-.4.31-.78.64-1.15,1,.4-.46.81-.91,1.25-1.34l.17.13A.83.83,0,0,0,248.69,129.09Zm-4.31,6,.36-.2-.18.34Zm2.29,1.43s0,.05,0,.07l-.09,0Zm.23.09s0,0,0,.06l-.13-.05Zm3.4-1.77v0s0,0-.11,0l.23-.22c.12-.12.31-.29.11-.37a.37.37,0,0,0-.19,0s0,0-.08,0l0,0,.06-.16.24-.44c.33-.26.66-.69.71-.69a.68.68,0,0,0-.36.17,8.61,8.61,0,0,1,.55-.68c.11-.12.11-.18.06-.22l.07,0,.09-.07a1.61,1.61,0,0,1-.09,1.06A17,17,0,0,1,250.3,134.88Zm-8.77-10.53a18.33,18.33,0,0,0-2.77,3.83,6,6,0,0,1-.21-1,1,1,0,0,0,.08-.14,8.48,8.48,0,0,1,2-2.84l.06-.08a1.17,1.17,0,0,1,.27,0A2.15,2.15,0,0,1,241.53,124.35Zm-1.29-.12,0,0a4.94,4.94,0,0,0-.49.3,6,6,0,0,0-1,.88,2.75,2.75,0,0,0-.22.26c0-.12,0-.22,0-.34h0C238.66,124.81,239.52,124.39,240.24,124.23Zm2.55,9.4a.82.82,0,0,0,.49-.18.54.54,0,0,0,.18.37c.06.06.16,0,.26,0-.08.16-.18.31-.26.47Z"/><path class="cls-2" d="M249.5,140c-.12.17-.1.24,0,.26-.11.15-.16.29-.07.36,2.41,1.7,5.09,2.59,7.37.17a4.31,4.31,0,0,0,1.38-3.76,7.15,7.15,0,0,0-2.38-3.41c-.22-.21-.76.11-1.05.44l-.1.08A71.1,71.1,0,0,0,249.5,140Zm5.43-5.13.23.24-.06.06c-1.07,1.23-2.15,2.46-3.21,3.7-.22.27-.47.52-.68.8l0,0-.22.27-.4-.27A48.74,48.74,0,0,0,254.93,134.85Zm1.1,4.26a5.6,5.6,0,0,1,.91-.84,1.93,1.93,0,0,1,0,.24A5.87,5.87,0,0,0,256,139.11Zm.72-1.77c-.16.08-.33.2-.38.23q-.49.38-1,.78l1.14-1.46A3,3,0,0,1,256.75,137.34Zm-3.81,3.51a.5.5,0,0,0,.11.1l0,.05-.19-.07Zm1.71.33s0,0,0,.06h-.06Zm1.13-.42,0-.07.22-.16a1.6,1.6,0,0,1-.27.25A0,0,0,0,0,255.78,140.76Z"/><path class="cls-2" d="M265.06,151.83c-.29-.15-1,.4-1.12.76a.53.53,0,0,0-.1.12c-1.14,2.25-2.25,4.54-3.25,6.86-.06.15,0,.17.16.13-.14.19-.19.36,0,.42,2.63.92,5.58,1.12,7.21-1.59C269.8,155.41,267.8,153.24,265.06,151.83Zm1.1,3.19,0,0s0,0-.05,0Zm1.12,1.69-.07,0,.18-.48c0,.1,0,.21,0,.31Zm-4.66,2.67Zm.24,0a.83.83,0,0,0,.38-.18,1.21,1.21,0,0,0,.05.34l-.64-.18A.46.46,0,0,0,262.86,159.41Zm-1.15-.31h0a54.2,54.2,0,0,0,2.92-5.92l.18.1a.6.6,0,0,0-.17.19c-.35.76-.68,1.53-1,2.31a26.49,26.49,0,0,0-1.58,3.42l-.28-.09Z"/><path class="cls-2" d="M260.74,155a19.91,19.91,0,0,0,1.31-3.13c0-.12,0-.19-.08-.21.12-1.19-.63-1.91-2-2.63-.53-.29-1.08-.55-1.63-.8l0-.06,0,.05a29.23,29.23,0,0,0-7-2.27c-1.44-.27-2.55-.5-3.79.22s-2.46,1.61-2.5,3.12a.24.24,0,0,0,0,.16c.58,4.05,4.06,5.69,7.44,7.36,2.41,1.19,5.63,2.37,7.4-.31a.93.93,0,0,0,.05-.1A13.21,13.21,0,0,0,260.74,155Zm-5.56,1.69a3.58,3.58,0,0,0,.38-.27s0,0,0,0,.22.07.31.05a1.22,1.22,0,0,0,.34-.1c0,.15-.07.3-.1.45s0,.06.06.07l0,.11A10.23,10.23,0,0,1,255.18,156.72Zm-4.87-9.23a18.68,18.68,0,0,0-1.21,1.83,17.11,17.11,0,0,1,1.23-2.41c.22,0,.44.1.66.15A2.5,2.5,0,0,0,250.31,147.49Zm-3.22,2.73c-.05.23-.09.45-.12.67-.08-.16-.16-.33-.23-.5A2.23,2.23,0,0,0,247.09,150.22Zm.83,1.72a2.17,2.17,0,0,0-.07.24,1.13,1.13,0,0,1-.1-.13Zm1.24,1.08c-.68-.19,1-2.8,1.27-3.22l1.41-2.51.84.26-.11.18a2.94,2.94,0,0,0-.84.44,10.09,10.09,0,0,0-2.49,5.24l-.1-.08C249.24,153.18,249.28,153.06,249.16,153Zm4.9-5.06a.71.71,0,0,0-.09.07.3.3,0,0,0,0-.08Zm3.11,1.09h0l-.12.29a1.42,1.42,0,0,0-.47.33c-.24.37-.45.76-.66,1.15a21.24,21.24,0,0,1,.92-1.93Zm1.66.84a1.56,1.56,0,0,0-.25.17c0-.08.07-.17.12-.26Zm.62,5.27a2.82,2.82,0,0,0,.31-.21c-.14.28-.28.55-.43.82C259.36,155.56,259.41,155.36,259.45,155.16Zm.35-4.56-.09.05,0-.09A.1.1,0,0,1,259.8,150.6ZM251,153.69a.69.69,0,0,0-.34.08c.1-.28.2-.56.31-.84l.18-.38c-.1.31-.21.62-.3.93,0,.15,0,.2.16.19Zm-1.45-.09.14-.07,0,.07,0,.06Zm5.05-5.47h0Zm-3.8,6.08-.06.14-.07,0Zm1,.41a.31.31,0,0,0,.19,0,1.63,1.63,0,0,0-.1.41l-.4-.24A1,1,0,0,0,251.78,154.62Zm1.69.73c0,.17-.08.34-.11.51-.13-.06-.25-.13-.37-.2A2,2,0,0,0,253.47,155.35Zm.68.46a1.42,1.42,0,0,0,0,.2l-.15.16-.26-.13A2.74,2.74,0,0,0,254.15,155.81Zm4.28-6.16a2.48,2.48,0,0,0-.38.17l0-.12c.06-.14-.08-.14-.29-.06l.11-.26Zm-9-2.9a2.22,2.22,0,0,0-.29.17A5.56,5.56,0,0,0,248,148.1a7.18,7.18,0,0,1,.85-1.4Zm-.88-.06-.12.06c-.17.12-.33.25-.48.38a4.36,4.36,0,0,0-1.6,1.79,1.17,1.17,0,0,1-.05-.2h0l0-.05C246.21,147.15,247.23,146.69,248.51,146.69Zm8.39,10.53.09-.07.31-.26-.06.29c0,.08.17,0,.39-.06.05.18.81-.14,1.12-.5l.08,0c-.06.08-.14.19-.22.32A2.16,2.16,0,0,1,256.9,157.22Z"/><path class="cls-2" d="M205.63,117.61c2,1.6,4.77,3.52,7,1.34a1.37,1.37,0,0,0,.21-.24,10.76,10.76,0,0,0,.88-.9,20,20,0,0,0,2.2-3c.09-.15.08-.25,0-.31.37-1.22-.32-2.12-1.61-3.21a30.89,30.89,0,0,0-6.39-4.16h0l-.46-.24-.63-.29c0-.08,0-.13-.16-.07-1.65-.72-2.9-1-4.69,0a3.34,3.34,0,0,0-1.91,2.2.33.33,0,0,0-.09.19,6.74,6.74,0,0,0,1.2,4.46v.08s0,0,0,0a10.27,10.27,0,0,0,1,1.22h0s0,0,.05.05A33.82,33.82,0,0,0,205.63,117.61Zm-2-10.79a3.25,3.25,0,0,0-.88.58c-.08.12-.15.25-.23.38.05-.11.09-.23.14-.34a4.46,4.46,0,0,1,.73-.71l.29.06Zm0,.7a3.35,3.35,0,0,1,.66-.58l.51.16a1.63,1.63,0,0,0-.71.47c-.1.18-.18.36-.27.54s-.39.32-.58.5C203.38,108.25,203.51,107.88,203.65,107.52Zm3.8.83-.08,0,0-.05ZM210.76,119l.26-.17a.08.08,0,0,0,.07,0L211,119A1,1,0,0,1,210.76,119Zm-1.08-.29.11-.08s0,0,0,0a1,1,0,0,0,.46,0c0,.09-.07.17-.1.26Zm-4.6-3.48a1.64,1.64,0,0,0,.53-.55l.25-.14c-.05.18-.08.36-.12.55s-.17.35-.24.53Zm4.25,2.35c-.05,0-.15,0-.35.09l0,0v0h0a1.24,1.24,0,0,0,.43-.27Zm-4-8.75a2,2,0,0,1-.1.21l-.15.12.11-.18Zm9,4.8a2.19,2.19,0,0,0-.8.65c-.23.33-.45.67-.67,1a.3.3,0,0,0-.08.08,18.92,18.92,0,0,1,1.4-2.08,2.59,2.59,0,0,1,.19.31Zm-6,3.18a2.36,2.36,0,0,1,.22-1.14l.11-.08a.08.08,0,0,1,0,0c-.1.19.06.19.2.15Zm1-2.35c.11-.24.22-.47.35-.7.27-.42.56-.84.85-1.25l.24-.29-.63,1.13Q209.72,113.92,209.34,114.49Zm-2.51.91h0c0-.25.1-.49.15-.73s.23-.46.36-.68C207.15,114.46,207,114.93,206.83,115.4Zm-1-5.5a14.42,14.42,0,0,1,.56-1.36l.08-.05C206.24,109,206,109.43,205.82,109.9Zm-1.56,4.3c0,.09,0,.17,0,.25l-.2-.18A.73.73,0,0,0,204.26,114.2Zm2.3,1.81.15-.14c-.07.23-.12.47-.18.71l-.34-.3Zm.53,1Zm2.11,1c0,.14-.1.28-.14.42l-.17-.1A1.89,1.89,0,0,0,209.2,118Zm5.43-3.81-.06,0,.05-.07Zm-1-1.1c.07-.09.13-.19.19-.28l.07.09A1.34,1.34,0,0,0,213.65,113.09Zm-.48-.69c-.58.8-1.11,1.63-1.62,2.49l-.15.2a22.23,22.23,0,0,1,1.37-2.48c.14-.12.27-.25.41-.36l.07-.07.07.08A1.06,1.06,0,0,0,213.17,112.4Zm-.77-.47c-.24.32-.46.66-.69,1s-.4.46-.59.7a3.5,3.5,0,0,0-.3.24l0,0,.43-.83a13.92,13.92,0,0,1,1.27-1.53l.2.16A1.46,1.46,0,0,0,212.4,111.93Zm-.28-.59a.3.3,0,0,0,0-.08l0,0Zm-1-.48c-.09.11-.18.23-.28.34l.33-.67.17.12Zm-1,.14c-.44.78-.86,1.57-1.27,2.37-.14.2-.29.4-.42.61a24,24,0,0,1,1.85-4l.74.47A2.5,2.5,0,0,0,210.07,111Zm-2.3.72a20.9,20.9,0,0,1,1.08-2.48l.06-.07.85.49A11.41,11.41,0,0,0,207.77,111.72Zm-1.17-3.55-.06,0,.09-.2a.36.36,0,0,0,0-.09l0,0A2.14,2.14,0,0,1,206.6,108.17ZM206,108s0,0,0,0-.06,0-.1,0l0,0c.41-.52-.83.22-1,.42s-.11.16-.17.23l-.13.09c.07-.23.15-.47.23-.7l.81-.53c.25.11.49.22.72.34Zm-2.56,5.69a1.75,1.75,0,0,0,.28-.19l.18-.17c0,.25-.08.49-.09.74C203.72,114,203.6,113.85,203.48,113.72ZM213,117.5c-.16.19-.33.37-.5.55l.06-.1c.11-.12.17-.2.17-.26a16.36,16.36,0,0,1,1.44-1.77h0C213.81,116.46,213.42,117,213,117.5Zm-4.76-8.7c-.14.22-.27.45-.4.67a9,9,0,0,0-1.46,1.5v0c.14-.4.3-.8.45-1.2s.47-.85.74-1.27l0,0,.62.35Zm-6.57-1.65,0,0Zm.73,5.25a22,22,0,0,1,.46-2.44l.41-.48a19.67,19.67,0,0,0-.79,3Z"/><path class="cls-2" d="M213,122c-.12.18-.1.25,0,.26-.09.17-.12.32,0,.41l.51.29c0,.1.06.11.17.1a10.81,10.81,0,0,0,1.25.58.12.12,0,0,0,.09,0,4.45,4.45,0,0,0,5.24-1.17,4.35,4.35,0,0,0,1.24-3.94,7.21,7.21,0,0,0-2.57-3.24c-.26-.22-.88.2-1.13.56a.69.69,0,0,0-.13.11C216.08,117.9,214.41,119.88,213,122Zm5.14-5.41.48.44,0,0a32.37,32.37,0,0,0-2.82,3,12,12,0,0,1,.83-1.38c.16-.21.32-.42.47-.64a11,11,0,0,1,.88-.93c.38-.35.35-.47.16-.46ZM215,122.15l.49-.51c-.11.2-.19.41-.29.61Zm-.87-.5h0l0-.06Zm5.83-2.41c.06,0,.11-.12.18-.18l0,0,0,.08Zm-.3-.29c.2-.27.19-.48-.35-.11l-.2.15c.19-.2.38-.41.58-.61l.09-.09a3.62,3.62,0,0,1,.24.43A1.56,1.56,0,0,0,219.63,119Zm-.36-.74c.24-.29-.1-.27-.45-.11.09-.11.16-.22.26-.33a1.29,1.29,0,0,0,.13-.18c.14.16.27.33.4.5A1.54,1.54,0,0,0,219.27,118.21Zm-.22-.79-.1,0,.06-.07Zm-.05,5.22.06-.07.23-.39a1.73,1.73,0,0,0,.51-.39A2.53,2.53,0,0,1,219,122.64Z"/><path class="cls-3" d="M179.5,123.7c-.82-3.7-4.43-7.21-7.81-8.66-6.51-2.8-13.35-3-20.26-4.05-5.87-.85-12.72-6-18.6-3.82a3,3,0,0,0-1.84,1.55,42.9,42.9,0,0,1-11-2.52,5.69,5.69,0,0,0-1.74-.36c-1-.5-1.88-1-2.81-1.63-1.78-1.15-6.74-2.32-6.17,1.58h0c-1.68-.86-3.36-1.14-4.73-.38l-1.84,1c-4.07.67-8.16,2.53-12.46,5.1a9,9,0,0,0-1.82-1.12c-4.75-2.32-11.28-1.19-16.56,0a75.28,75.28,0,0,0-11.57-11c-2.59-2-9.29-4.12-7.62,1.67-3.29,3.06.64,9.92,3.2,12.62a13.86,13.86,0,0,0,5.72,6.72c1.46.86,3.18,1.41,4.44,1a27.53,27.53,0,0,0,5,3.28,4,4,0,0,0,1.64.45c2.38,2.22,5.81,4.48,7.51,2.36a17.24,17.24,0,0,0,2.14-3.34,2.87,2.87,0,0,0,.22-.62c2.61-.29,5.23-.41,7.78-.91l1.33,1a12.21,12.21,0,0,0,5.09,1.9c5.51.59,11.86-3.55,16.85-6.6a3,3,0,0,1,1.91.31c1.88,1.37,4.64,3.4,7,1.86.34.22.68.45,1,.66a19,19,0,0,0,3.68,1.59,12.45,12.45,0,0,0,7.73-.09l.12,0c.67,0,1.34.06,2,0a3.16,3.16,0,0,0,2.64-1,59,59,0,0,0,7.74-.08,1.85,1.85,0,0,0,.72-.19,10.94,10.94,0,0,0,1.25.51,46.3,46.3,0,0,0,8.47,2c5.86.85,11.77.87,17.29,3.25C178.36,129,180.18,126.77,179.5,123.7Z"/><path class="cls-1" d="M67.67,117.24a21.78,21.78,0,0,1,23.4-4.5c.48.2.6-1.27.18-1.45A22.16,22.16,0,0,0,67.33,116c-.31.3-.11,1.74.34,1.29Z"/><path class="cls-1" d="M85,116.51c-1.29,3.45,1.87,6.11,4.93,7,5,1.52,9.94-.9,14-3.69.39-.27.2-1.71-.18-1.45-2.81,1.94-5.88,3.69-9.33,4a11.06,11.06,0,0,1-5-.61c-1.46-.55-4.64-2.29-3.9-4.28.15-.39-.2-1.8-.47-1.06Z"/><path class="cls-1" d="M103,120.43c5.82,4.8,12.77,8.64,20.55,7.23.5-.09.42-1.58,0-1.5-7.72,1.4-14.6-2.42-20.37-7.18-.32-.27-.55,1.14-.18,1.45Z"/><path class="cls-1" d="M85.21,117.26c4.65-2.33,8.3-4.09,13.07-6.19.41-.18.39-1.65-.09-1.44-4.77,2.1-8.5,3.85-13.16,6.19-.41.2-.5,1.78,0,1.55Z"/><path class="cls-1" d="M98,111.17c2.74-1.11,6.85-4.25,10.39-5.86,3.74-1.7,8.85,1.61,12.14,3.41.43.23.59-1.22.18-1.45-2.91-1.58-7.75-4.73-11.23-3.92-1.88.44-3.68,1.9-5.31,2.88-2.06,1.23-4.25,2.34-6.31,3.57-.4.24-.27,1.62.14,1.37Z"/><path class="cls-1" d="M120.74,108.84a26.48,26.48,0,0,0,9.18,1.75c3.34,0,6.54-1.06,9.87-1,.47,0,.48-1.5,0-1.5-3,0-6,.94-9,1a26.25,26.25,0,0,1-9.88-1.68c-.49-.19-.6,1.29-.18,1.44Z"/><path class="cls-1" d="M137.54,109.63a83.62,83.62,0,0,1,25,4.71c.51.18.61-1.3.18-1.45a84.15,84.15,0,0,0-25.13-4.76c-.46,0-.48,1.48,0,1.5Z"/><path class="cls-1" d="M164.29,114.63c6.92,2.21,14.12,3.38,21,5.59.52.16.6-1.31.18-1.45-6.91-2.2-14.12-3.38-21-5.59-.51-.16-.6,1.32-.18,1.45Z"/><path class="cls-1" d="M185,120.3c5.5,4.08,2.7,13.87-.35,18.64A22.08,22.08,0,0,1,172,148.16c-.51.14-.38,1.61,0,1.5a22.54,22.54,0,0,0,15.28-14c1.79-5,2.82-13.15-2.07-16.78-.35-.27-.56,1.15-.18,1.44Z"/><path class="cls-1" d="M143.18,135.38c9.91,2.78,20.17,6.58,27.95,13.54.31.27.54-1.12.18-1.44-7.83-7-18.16-10.8-28.13-13.6-.38-.11-.51,1.35,0,1.5Z"/><path class="cls-1" d="M113.93,127.8l4.29,6.06c.34.48.59-.93.34-1.29l-4.29-6.07c-.34-.48-.6.94-.34,1.3Z"/><path class="cls-1" d="M118.55,134.08a16.19,16.19,0,0,1,10.16,3.48c.34.27.56-1.14.18-1.44a16.45,16.45,0,0,0-10.34-3.54c-.47,0-.48,1.5,0,1.5Z"/><path class="cls-1" d="M129.26,137.7c4.22.1,10.31-5.33,14-2,.3.28.54-1.12.18-1.44-3.8-3.44-10,2-14.17,1.94-.47,0-.49,1.49,0,1.5Z"/><path class="cls-1" d="M143.63,136.16c.88.66-3.61,3.54-3.94,3.81a34.88,34.88,0,0,0-3.56,3.31c-1.33,1.38-2.65,2.86-4.7,2.94-1.73.07-3.33-.76-5.09-.64-.49,0-.46,1.53,0,1.5,2.51-.17,4.86,1.36,7.26,0s4.12-4,6.27-5.68c1.45-1.17,7.29-4.19,3.94-6.7-.35-.27-.56,1.15-.18,1.44Z"/><path class="cls-1" d="M124.61,144.08a31.42,31.42,0,0,1-5.47-.56c-.42-.07-.5,1.42,0,1.5a31.42,31.42,0,0,0,5.47.56c.47,0,.48-1.5,0-1.5Z"/><path class="cls-1" d="M108.53,136.8c1.87,1.76,3.72,3.55,5.6,5.3,1.49,1.39,3,2.62,5,2.92.43.07.5-1.42,0-1.5-2.32-.33-3.91-2-5.54-3.54l-4.73-4.48c-.46-.44-.66,1-.34,1.3Z"/><path class="cls-1" d="M139.8,144.2c-2.83,3.25-6.59,7.09-10.72,8.6-2.29.84-4.7.19-7-.2l-7.76-1.32c-.64-.11.12,1.14.59,1.22l8.25,1.39c2.25.38,4.53.93,6.75.12,4.22-1.56,8-5.38,10.9-8.7.36-.41-.68-1.49-1-1.11Z"/><path class="cls-1" d="M105.31,146.28a13.39,13.39,0,0,0,8.25,5.75c.61.14-.13-1.11-.59-1.22a11,11,0,0,1-6.86-4.72c-.39-.59-1.36-.66-.8.19Z"/><path class="cls-1" d="M130.76,154.47c-1,3.35-4.6,3.71-7.58,3.81a21.64,21.64,0,0,0-8.22,1.64c-.54.23.37,1.4.82,1.21,3.52-1.52,6.87-1.32,10.58-1.78,2.46-.3,4.77-1.44,5.52-3.94.15-.48-1-1.45-1.12-.94Z"/><path class="cls-1" d="M115.79,159.76c-3.51,1.77-6.36-3.23-9.68-3.91-.62-.13.12,1.12.59,1.21,3.38.7,6,5.88,9.92,3.9.53-.27-.4-1.42-.83-1.2Z"/><path class="cls-1" d="M124.21,159.6a85.52,85.52,0,0,1-9.77,3.87c-1.81.59-3.08,1.17-4.75,0a7.84,7.84,0,0,0-2.11-1.4c-.79-.27-.14,1,.32,1.14,1.24.43,1.85,1.7,3,2.18a4.38,4.38,0,0,0,3-.26A83,83,0,0,0,125,160.81c.54-.25-.38-1.41-.82-1.21Z"/><path class="cls-1" d="M106.68,161.73a34.65,34.65,0,0,1-13.78-9.35c-2.49-2.8-4.28-6.61-8.19-7.59-.6-.15.13,1.1.59,1.21,2.83.71,4.29,3.54,6,5.65A36.07,36.07,0,0,0,96,156.41a37.38,37.38,0,0,0,11,6.46c.78.29.13-1-.31-1.14Z"/><path class="cls-1" d="M82.86,143.94c-3.15-1.84-6.63-1.61-10.09-2.33-3.84-.81-6.09-4.22-9.53-5.88-.74-.36-.1.94.32,1.14,3,1.48,5,4.48,8.23,5.55,3.65,1.19,7.68.52,11.09,2.52.85.49.45-.72,0-1Z"/><path class="cls-1" d="M50.61,92c-5-3.87-12.48,1.78-15.51,5.76a19.3,19.3,0,0,0-1.9,19.77c.23.5,1.39,1,1,.13a18.45,18.45,0,0,1,1.47-18.17,19,19,0,0,1,5.11-5c2.38-1.57,6.86-3.86,9.57-1.73.79.62.84-.34.27-.79Z"/><path class="cls-1" d="M80.05,143.16c-2.32,1.13-2.07,4.78-1.5,6.87a9.39,9.39,0,0,0,5.14,6.14c.76.33.11-1-.32-1.15a7.2,7.2,0,0,1-4-6.26c-.1-1.46,0-3.65,1.49-4.39.53-.26-.39-1.42-.82-1.21Z"/><path class="cls-1" d="M81.21,144.37c3.71,1.06,6.45,3.65,6.48,7.69,0,.47,1.15,1.37,1.15.7,0-4.76-3.53-8.27-8-9.53-.81-.23-.15,1,.32,1.14Z"/><path class="cls-1" d="M94.18,159.56c.18-4.16-4.29-8.57-8.56-7.07-2.25.78-2.78,3.14-1.71,5.14s3.21,2.93,5.34,3.35c.63.13-.12-1.12-.58-1.21-1.82-.37-4.16-1.22-4.18-3.48,0-1.8,1.51-2.7,3.12-2.83A5.13,5.13,0,0,1,93,158.85c0,.48,1.12,1.39,1.15.71Z"/><path class="cls-1" d="M89.25,161c2.77.68,4.85,2.29,7.11,4,.8.6.85-.35.27-.78-2.54-1.88-4.85-3.62-8-4.38-.61-.15.12,1.1.58,1.21Z"/><path class="cls-1" d="M98,158.31c-3.42,1.9-2.64,6.63.87,7.94a8.13,8.13,0,0,0,3.22.24,15.19,15.19,0,0,1,5.7,1.11c2,.63,3.59-.06,5.27-1.21.4-.28-.55-1.43-1-1.12-1.46,1-2.77,1.65-4.59,1.18-1.19-.3-2.25-.92-3.48-1.12-1.42-.24-3,.29-4.36,0-4-.94-3.08-4.52-.62-5.88.4-.22-.52-1.38-1-1.11Z"/><path class="cls-1" d="M33.31,118c1.28,1.94,3.76,2.92,5.69,4.09q4.08,2.48,8.13,5c5.36,3.3,10.71,6.62,16.12,9.83.84.5.45-.72,0-1C58.35,133,53.54,130,48.71,127c-2.49-1.53-5-3.06-7.47-4.58l-3.33-2c-1.19-.71-3-1.46-3.8-2.64-.39-.59-1.36-.65-.8.19Z"/><path class="cls-1" d="M50.63,93.35c6.85,6.74,14.61,12.5,21.6,19.09.47.44.65-1,.34-1.3-7-6.58-14.75-12.35-21.61-19.09-.45-.44-.65,1-.33,1.3Z"/><path class="cls-1" d="M84.59,67a122.24,122.24,0,0,0,15,6.58c.4.15,1.69-.52,1.12-.73a148.23,148.23,0,0,1-14.81-6.44c-.36-.17-1.54.48-1.33.59Z"/><path class="cls-1" d="M109,71.33c5.36,2.1,10.63,4.35,15.9,6.68.36.16,1.52-.52,1.22-.67-5.22-2.45-10.57-4.66-16-6.67-.34-.13-1.63.47-1.14.66Z"/></svg>