<svg id="img" xmlns="http://www.w3.org/2000/svg" viewBox="0 0 300 154"><defs><style>.cls-1{fill:#262626;}.cls-2{fill:#fff;}.cls-3{fill:#004234;}</style></defs><title>ICON_5d</title><path class="cls-1" d="M78.6,104.13c25.57,8.92,51.22,17.58,76.79,26.5.79.28.13-1-.32-1.14-25.56-8.92-51.22-17.58-76.78-26.5-.79-.28-.14,1,.31,1.14Z"/><path class="cls-1" d="M77.87,48c-.38,18.47-.27,36.95-1.26,55.4,0,.47,1.11,1.39,1.15.71,1-18.45.88-36.93,1.26-55.4,0-.47-1.13-1.39-1.15-.71Z"/><path class="cls-2" d="M84.39,104.11a8.46,8.46,0,0,0-1.93-.46c0-.17-.08-.31-.36-.31h-.88c.23-.27.31-.52,0-.62-.58-.19-1.19-.39-1.8-.56,0-.17-.17-.27-.43-.26a.61.61,0,0,0-.49-.1h0l0-.63a12.91,12.91,0,0,0,.11-2.25h0a1.07,1.07,0,0,0,.28-.33c.18-.18.29-.38.2-.56a.33.33,0,0,0-.3-.14l0-.14,0,0A.74.74,0,0,0,79,97.3c.59-.47,1.27-1.22.45-1.27l-.32,0a1.81,1.81,0,0,0,.53-.58.48.48,0,0,0-.11-.65.71.71,0,0,0,.09-.33,1.12,1.12,0,0,0,.2-.37c.07-.14,0-.26-.15-.33h0a3.16,3.16,0,0,0-1.35-.33,6.36,6.36,0,0,0,.1-1.19.14.14,0,0,0,0-.07V92a3.33,3.33,0,0,0,.82-.54,1.72,1.72,0,0,0,.2-.23c.24-.22.44-.51.26-.74a.32.32,0,0,0-.18-.1c.13-.36-.05-.48-.31-.51.34-.23.74-.58.76-1,0,0,0,0,0,0a.76.76,0,0,0,.16-.38.46.46,0,0,0-.12-.39.41.41,0,0,0,0-.33,1,1,0,0,0,0-.18c.34-.3.56-.63.2-.85a4.26,4.26,0,0,0-3.35-.38,3.72,3.72,0,0,0-.77.41,3.15,3.15,0,0,0-.47.3,3.05,3.05,0,0,0-.28.27l-.15.17c-.17.22-.26.44,0,.56-.09.21-.06.42.3.5l.06,0a.45.45,0,0,0,.12.12.29.29,0,0,0,.1.26.38.38,0,0,0,.07.46.54.54,0,0,0-.07.27v0a.7.7,0,0,0-.21.44h0a.34.34,0,0,0,.17.37,1.44,1.44,0,0,0,.2.48,1.07,1.07,0,0,0-.14.16c-.14.2-.26.55-.09.71s.22.23.46.24a.39.39,0,0,0,.29.12,4.54,4.54,0,0,0,.7.1h.07l-.25,1.32-.14.06a2.41,2.41,0,0,0-1.06.34,2.78,2.78,0,0,0-.94.61,1.1,1.1,0,0,0-.38.77.46.46,0,0,0,0,.35.26.26,0,0,0,.11.19v0a1.31,1.31,0,0,0-.11.12c-.22.28-.23.49-.07.6-.12.21-.19.44,0,.51s.64.16,1,.23c-.31.26-.61.58-.63.82-.2.23-.27.45-.07.58a.63.63,0,0,0-.11.12c-.21.29-.32.69.16.75h.18c-.11.21-.1.42.25.46a2.75,2.75,0,0,0,1.27-.18l.2-.07c0,.61,0,1.23.11,1.85a3.85,3.85,0,0,0-1.62.57c-.29.19-1.67,1.24-.67,1.42l.15,0a.21.21,0,0,0,.11.12.24.24,0,0,0,.09.24.29.29,0,0,0,0,.13,2.52,2.52,0,0,0-.44.55c-.19.19-.39.45,0,.39h0a.53.53,0,0,0,.28.06,12.47,12.47,0,0,0,2.73-.2,1.18,1.18,0,0,0,.21,0l1.06,0c0,.2.13.33.62.29a6.68,6.68,0,0,1,2.83.41C83,106.21,85.16,104.39,84.39,104.11Z"/><path class="cls-1" d="M176.46,103c4.25-.17,7.23,3.06,11,4.42,4.32,1.56,8.09-1.36,12.38-.76.48.07,1.39-1,1-1.09-4.66-.65-8.69,2.46-13.31.37-3.39-1.53-6.32-4.27-10.26-4-.37,0-1.33,1.09-.78,1.06Z"/><path class="cls-1" d="M177.4,101.77c-1.75-2,1.19-4.21,3.06-4.74a13.61,13.61,0,0,1,4.26-.47,14.18,14.18,0,0,1,8,3c.38.29,1.43-.76,1.13-1a14.71,14.71,0,0,0-13.27-2.49c-2.52.78-7,3.63-4.31,6.68.16.18,1.29-.81,1.12-1Z"/><path class="cls-1" d="M207.45,91.77a17.4,17.4,0,0,0-17.7,5.09c-.7.75.26.7.73.23a16.37,16.37,0,0,1,15.94-4.3c.32.08,1.23-1,1-1Z"/><path class="cls-1" d="M200.1,86.37a12.42,12.42,0,0,1,8.47,3.26c.35.33,1.43-.7,1.11-1a11.81,11.81,0,0,0-8.57-3.3c-.37,0-1.18,1.05-1,1.05Z"/><path class="cls-1" d="M217.54,67.67c3.34-2.23,9.76-1.14,12.72,1.28A11.43,11.43,0,0,1,233,83.79c-.53.84.68.31.95-.07,3.62-5,2.05-12.66-3.15-16.21-3.44-2.35-10-3.18-13.4-.32-.46.39-.59,1,.15.48Z"/><path class="cls-1" d="M190.68,107.59a10.61,10.61,0,0,0-1.59,3c-.62,1.32-1.24,2.65-1.85,4-.33.74.94,0,1.12-.33a56.92,56.92,0,0,0,3.27-7.21c0-.13-.87.5-.95.59Z"/><path class="cls-1" d="M188.92,112.2a8.42,8.42,0,0,0-7.68-.9c-.33.12-1.33,1.25-.5,1a8.46,8.46,0,0,1,7,.83c.4.23,1.38-.83,1.14-1Z"/><path class="cls-1" d="M232.22,84.77c-3.14,2.9-5.91,6.26-9,9.25a89.3,89.3,0,0,1-11.09,9.56c-.54.39-.72,1.33.13.76a84.49,84.49,0,0,0,10.9-9.27c3.35-3.24,7-6.56,9.79-10.31.55-.74-.49-.24-.75,0Z"/><path class="cls-1" d="M216.46,95.5A64.63,64.63,0,0,1,199,116.63c-1.91,1.49-3.78,2.8-6.26,3.09a40.57,40.57,0,0,1-7.22-.26l-14.06-.87c-.46,0-.49,1.47,0,1.5l15.41,1c2.49.15,5.16.56,7.6-.17a16.7,16.7,0,0,0,5.35-3.31,66,66,0,0,0,17.16-21c.2-.38-.1-1.78-.48-1.06Z"/><path class="cls-1" d="M200.31,84.81c6.7-4.45,12-11,17.41-16.8.29-.31.08-1.75-.34-1.29C212,72.51,206.77,79,200.13,83.37c-.4.26-.21,1.7.18,1.44Z"/><path class="cls-1" d="M155.85,74.22c-.34,18.29-.35,36.59-.76,54.89,0,.47,1.14,1.38,1.15.71.41-18.3.41-36.6.76-54.9,0-.47-1.13-1.38-1.15-.7Z"/><path class="cls-1" d="M186.64,107c-10.63,7.19-20.7,15.17-31.45,22.18-.4.26.55,1.42,1,1.12,10.75-7,20.81-15,31.44-22.19.4-.27-.55-1.42-1-1.11Z"/><path class="cls-1" d="M200.59,49c-.05,13.92-.72,27.83-1.09,41.74,0,.47,1.13,1.39,1.15.71.37-13.91,1-27.82,1.09-41.74,0-.47-1.15-1.38-1.15-.71Z"/><path class="cls-1" d="M156.66,75.62c14.87-8.48,29.4-17.55,44.46-25.69.4-.22-.51-1.38-1-1.11C185.06,57,170.53,66,155.66,74.5c-.4.23.52,1.39,1,1.12Z"/><path class="cls-1" d="M78.79,48c26.07,8.65,52,17.79,77.8,27.13.78.29.13-1-.32-1.14-25.83-9.34-51.73-18.48-77.8-27.13-.8-.26-.14,1,.32,1.14Z"/><path class="cls-1" d="M79,48.05c15.07-7.27,29.67-15.48,44.87-22.48.54-.24-.38-1.4-.82-1.2-15.2,7-29.8,15.2-44.87,22.47-.54.26.39,1.42.82,1.21Z"/><path class="cls-1" d="M123.9,25.78c25.62,7.32,50.85,15.94,76.34,23.73.8.25.14-1-.32-1.14-25.48-7.8-50.71-16.41-76.34-23.73-.81-.23-.15,1,.32,1.14Z"/><path class="cls-1" d="M156.58,76.78c7.83-3.61,15.28-8.36,22.72-12.7s14.73-8.74,22-13.25c.57-.35.78-1.29-.09-.75Q190.11,57,178.8,63.56q-5.45,3.18-10.94,6.28c-3.63,2-7.46,3.9-10.92,6.24-.13.09-1,1-.36.7Z"/><path class="cls-3" d="M184,58c-15.75-6-30.88-11-46.89-16.33a20.65,20.65,0,0,0-2.57-.85Q121.34,36.46,108,32.29c-.4-.12-1.36,1-1,1.08l.19.06c-.32.27-.49-.07-1,.16l-.64.3c0-.06-.12-.09-.31,0l-.18.07c.08-.2,0-.33-.24-.2l-1.73.83c-.27-.07-1.24.09-1,.48l-.74.35c-.3.15-.92,1.08-.64,1.12l-1.14.28a1.86,1.86,0,0,0-.68.57,1.84,1.84,0,0,0-.69.67l-1-.32c-.39-.12-1.37.93-1,1,26,8.33,51,16.5,76.73,25.55a7.91,7.91,0,0,1,0,1.42c-.55,9.72-.57,19.52-.77,29.26,0,.08.07.1.16.09l-.11.24c-.14.31,1-.44,1.1-.71a17.92,17.92,0,0,0,.85-1.77A5.92,5.92,0,0,0,175.48,94c.37.24,1-.38,1.11-.67l1.19-2.1a2.48,2.48,0,0,0,.7,1c.18.11.22.23.39.32a1.84,1.84,0,0,0,.94-.6,4.05,4.05,0,0,0,1.63-1.5c.06.09.35,0,.63-.24a1.52,1.52,0,0,0,1-1v-.6c.32-.1,1-.59,1-.89.09-3.49.12-7,.13-10.5,0,0,0-.07,0-.1l0-.28C184.24,71.42,184.26,58.09,184,58Zm-26.26-4h0Z"/><path class="cls-1" d="M143.33,30.93a36.88,36.88,0,0,0,10.31-6.38c.68-.58.26-1.1-.43-.53a34.91,34.91,0,0,1-9.68,6c-.47.19-1.1,1.3-.2.94Z"/><path class="cls-1" d="M152.46,25.09c7.34-2.68,16.47,3.79,15.42,11.84,0,.23,1.1-.46,1.18-.83.86-3.78-1.94-8.2-4.84-10.38-3.09-2.31-7.8-3.19-11.35-1.56-.27.13-1.12,1.19-.41.93Z"/><path class="cls-1" d="M167.9,37c.14-.59,0-.34-.27-.17l-.44.38c-.22.19-.45.37-.68.55s-.54.52-.36.74.65-.12.79-.23a9,9,0,0,0,1.82-1.61c0-.06.36-.62.28-.63a1.55,1.55,0,0,0-.28.24l-.58.49s-.27.17-.28.24Z"/><path class="cls-1" d="M75,74.82c2.8,4.12,1.33,11.29-4.23,12.17-.5.08.37,1.24.88,1.16,6.4-1,7.17-9.1,4.14-13.56-.4-.59-1.36-.6-.79.23Z"/><path class="cls-1" d="M71.2,87c-1.35-.69-.63-4.74-.73-6-.18-2.26-1.14-4.61-.68-6.86.1-.5-1.06-1.39-1.17-.88A11.68,11.68,0,0,0,69,77.72a27.12,27.12,0,0,1,.39,5.62c-.06,2,0,3.63,1.94,4.62.87.45.41-.73-.08-1Z"/><path class="cls-1" d="M77.83,66.63a37,37,0,0,0-7.4,4.18c-1.65,1.28-2.56,3-1.63,5,.24.51.84,1,.74,0-.23-2.17,1.56-3.73,3.11-4.74A40.72,40.72,0,0,1,78.34,68c.52-.24-.07-1.53-.51-1.33Z"/><path class="cls-1" d="M68.62,79.3c-2.62,2.31-5.25,5-4.35,8.81.12.47,1.33,1.2,1.13.38-.83-3.47,1.94-6.06,4.28-8.13C70.06,80,69,79,68.62,79.3Z"/><path class="cls-1" d="M64.11,86.24c-.17,3.62,2.73,6.09,5.6,6.84.81.21,0-1-.45-1.1a5.46,5.46,0,0,1-4-4.83c0-.47-1.18-1.6-1.14-.91Z"/><path class="cls-1" d="M66.81,92.15c-2.19,2.64-3,5.17-1.66,8.48.92,2.36,2.79,3,5.18,2.72.48,0-.37-1.22-.88-1.16-1.56.18-2.82,0-3.36-1.73a9.35,9.35,0,0,1-.46-2.4c-.07-2,1-3.41,2.24-4.85.35-.42-.74-1.45-1.06-1.06Z"/><path class="cls-1" d="M75.41,86.49c1.56.08,3.15.06,4.7.25,2.63.32,3.58,2.29,3,4.63-.13.49,1,1.4,1.16.88a5.28,5.28,0,0,0-1.42-5.38c-2.09-1.86-5.47-1.44-8.07-1.56-.66,0,.18,1.16.65,1.18Z"/><path class="cls-1" d="M83.24,91.24a30.44,30.44,0,0,1-13,.9c-.63-.09.18,1.12.65,1.18a30.72,30.72,0,0,0,13.21-.92c.53-.15-.39-1.31-.88-1.16Z"/><path class="cls-1" d="M82.9,92.81a2.86,2.86,0,0,1,2.53,3.53c-.36,1.41-1.74,1.76-3,2-.49.1.44,1.22.94,1.12,2.3-.45,4-1.84,3.15-4.38a5.14,5.14,0,0,0-4.33-3.41c-.63-.07.24,1.1.71,1.14Z"/><path class="cls-1" d="M82.54,98.31c-2.18.64-4.34,1.3-6.49,2s-4.56,2-6.91,1.87c-.66,0,.17,1.16.65,1.18,2.19.1,4.24-.92,6.28-1.61q3.66-1.22,7.35-2.28c.52-.16-.4-1.31-.88-1.17Z"/><path class="cls-1" d="M67.05,102.79c-.61,2.06-1.86,3.37-.78,5.5.67,1.33,1.81,3,3.29,3.53,2.14.73,4.46-1.36,6.29-2.23a45.66,45.66,0,0,1,8.92-3.14c.52-.13-.38-1.29-.88-1.17A46.92,46.92,0,0,0,73.81,109c-2.19,1.12-4.25,3-6.22-.09-1.33-2.13,0-3.28.62-5.24.14-.49-1-1.41-1.16-.88Z"/><path class="cls-1" d="M85,106.35c1.86-2.48-1-4.81-3.21-5.46-4.24-1.23-9.15-.56-12.13,2.88-.35.4.73,1.44,1.06,1.06a9.46,9.46,0,0,1,5.86-3.19c1.7-.25,10,.06,7.36,3.65-.33.43.77,1.45,1.06,1.06Z"/><path class="cls-3" d="M96.3,80.48v-.1c0-.59-1.48-1.66-1.48-.81v.1C94.82,80.26,96.3,81.34,96.3,80.48Z"/><path class="cls-3" d="M107.7,84.15c-.85,0,.21,1.48.81,1.48C109.35,85.63,108.29,84.15,107.7,84.15Z"/><path class="cls-3" d="M112.61,83.37l-.08,0c-.55-.17-.52.23-.28.65a.45.45,0,0,0,0,.35,1.57,1.57,0,0,0,.94.93l.3.1c.24.09.4,0,.46-.16a1.46,1.46,0,0,0,.54.48c4,1.49,8.17,2.55,12.31,3.71.59.17.52-.29.25-.73l.21,0c.25,0,.3-.09.25-.29.25-.22-.39-1.24-.83-1.41-4.66-1.8-9.39-3.3-14.15-4.8C111.71,82,112.12,82.89,112.61,83.37Z"/><path class="cls-3" d="M137.88,90.36c-1.4-.46-2.82-.89-4.24-1.31l-1.94-.58a12.72,12.72,0,0,1-1.86-.52,1.24,1.24,0,0,0-.28-.28l-.05,0c-.15-.09-.47-.21-.62,0l0,.06c-.22.24,0,.58.21.84-.23.14-.08.53.19.87-.2.27.42,1.22.86,1.37,2.73.94,5.5,1.76,8.23,2.71.59.21.5-.27.22-.73.2-.12,0-.6-.3-1l.1,0C139.34,92.1,138.45,90.55,137.88,90.36Z"/><path class="cls-3" d="M131.15,94.94c.71.16-.08-1.23-.6-1.43-5.94-2.32-12-4.31-18.05-6.25-.58-.19-.51.25-.26.68a0,0,0,0,1,0,0s0,0-.07.07a.7.7,0,0,0-.25,0,.27.27,0,0,0-.18.18,1.18,1.18,0,0,0,.16.68c-.12.31.47,1.2.89,1.36,6.07,2.22,12.22,4.18,18.36,6.2.73.24.44-.53,0-1C131.25,95.33,131.24,95.15,131.15,94.94Z"/><path class="cls-3" d="M106.22,84.21,106,84c-.5-.41-1.81-1-3.07-1.74a7.67,7.67,0,0,0-1.12-.69c-1-.71-1.81-1.48-1.67-2.24h0a1.35,1.35,0,0,1,1.29.13c.1.11.21.2.28.27A5.59,5.59,0,0,1,103,81.19a2.39,2.39,0,0,0,.25.33l.24.42c.18.32.62.82,1,.79s.38-.4.21-.69-.38-.66-.63-1a1.73,1.73,0,0,0-.21-.41,19.65,19.65,0,0,0-1.32-1.69,2.23,2.23,0,0,0-.49-.43v0h0c.5-.53,1.4.67,1.7,1.1a22,22,0,0,1,1.56,2.7c.3.63,1.77,1.2,1.24.1a19.24,19.24,0,0,0-2.36-3.89c1.63.59,2.59,3.06,3.17,4.49a1.59,1.59,0,0,0,.94.94c.33.06.63-.07.47-.47a18.25,18.25,0,0,0-2.42-4.48,1.19,1.19,0,0,0-.18-.3,9.37,9.37,0,0,0-3.4-2.62h0l0,0a7.1,7.1,0,0,0-3.25-.88,3.75,3.75,0,0,0-2.58.87A2.67,2.67,0,0,0,96,79.07a2.59,2.59,0,0,0,.29.47l0,0c.88,1.5,3,2.4,4.75,2.94a2.75,2.75,0,0,0,.61.23h0a7.48,7.48,0,0,1,1.25.74.76.76,0,0,1,.09.09c0,.06.09.12.15.18q.93,1.81-.21,2.16c-1.06-.18-2-1.74-2.57-2.48a0,0,0,0,0,0,0l0,0a1.41,1.41,0,0,0-1-.79c-.43,0-.36.42-.22.69h0a1.26,1.26,0,0,0,.24.55c.12.17.25.33.37.49a1.29,1.29,0,0,0,.23.47c.4.45.8.89,1.24,1.3a2.94,2.94,0,0,0,.29.23c.15.14.31.26.46.39l0,0v0s0,0,0,0h0l-.1,0-.08,0a6.7,6.7,0,0,1-3.33-3.73,1.51,1.51,0,0,0-.94-.94c-.36-.08-.59.07-.47.47a9.26,9.26,0,0,0,2.55,3.82.36.36,0,0,0,0,.18l-.07.07s0,0,0,0-.1,0-.15,0a9.08,9.08,0,0,1-2.9-4.66c-.15-.58-1.67-1.49-1.41-.47A11.34,11.34,0,0,0,96,84s0,0,0,.08a9.7,9.7,0,0,0,2.53,3.33,12.52,12.52,0,0,0,1.65,1.25,1.51,1.51,0,0,0,.46.25,1.05,1.05,0,0,0,.34.19l.1,0,0,0h0l.13.09a1.43,1.43,0,0,0,.28.13h0c1.9,1.07,5.69.48,6.23-1.56a1.35,1.35,0,0,0,0-.28s0,0,0,0a.61.61,0,0,0,0-.14s0-.09,0-.13A3.42,3.42,0,0,0,106.22,84.21Z"/><rect class="cls-2" x="138.24" y="131.33" width="39.08" height="22.4"/></svg>