<svg xmlns="http://www.w3.org/2000/svg" viewBox="0 0 13 9.6"><defs><style>.cls-1{fill:#004234;}</style></defs><title>資產 3</title><g id="圖層_2" data-name="圖層 2"><g id="img"><path class="cls-1" d="M6.4,4.4h0c1.2,0,3.9-2.5,5.5-4.4H.5C2,1.6,5,4.4,6.4,4.4Z"/><path class="cls-1" d="M5,4.8A28.56,28.56,0,0,1,0,.6V9.3A26.46,26.46,0,0,1,5,4.8Z"/><path class="cls-1" d="M7.7,4.9A28.11,28.11,0,0,1,13,9.4V.2A25.93,25.93,0,0,1,7.7,4.9Z"/><path class="cls-1" d="M7.2,5.1a1.7,1.7,0,0,1-.7.1h0a3.55,3.55,0,0,1-1-.2C3.6,5.8.8,9,.3,9.6H12.7C12,9,9.2,6,7.2,5.1Z"/></g></g></svg>