<svg id="img" xmlns="http://www.w3.org/2000/svg" viewBox="0 0 70 70"><defs><style>.cls-1{fill:#004234;stroke:#fff;stroke-linecap:round;stroke-linejoin:round;stroke-width:1.5px;}.cls-2{fill:#fff;}</style></defs><title>Hi 2</title><path class="cls-1" d="M62.15,64.22c-7.39-4.64-5.23-9.33-4.06-11l.52-.66h0A29.94,29.94,0,1,0,48,61.18h0C54.83,65.6,64.86,65.92,62.15,64.22Z"/><path class="cls-2" d="M24.16,25.87h2.4v7.35h9.17V25.87h2.4v17.7h-2.4v-8.1H26.56v8.1h-2.4Z"/><path class="cls-2" d="M42.26,27.47a1.6,1.6,0,0,1,.48-1.16,1.63,1.63,0,0,1,1.17-.49,1.67,1.67,0,0,1,1.65,1.65,1.63,1.63,0,0,1-.49,1.17,1.6,1.6,0,0,1-1.16.48,1.64,1.64,0,0,1-1.65-1.65Zm.52,4.25H45V43.57H42.78Z"/></svg>