<svg id="img" xmlns="http://www.w3.org/2000/svg" viewBox="0 0 70 70"><defs><style>.cls-1{fill:#004234;stroke:#fff;stroke-linecap:round;stroke-linejoin:round;stroke-width:1.5px;}.cls-2{fill:#fff;}</style></defs><title>Hi 3</title><path class="cls-1" d="M62.3,64.52c-7.4-4.64-5.23-9.33-4.07-11l.52-.66h0a29.9,29.9,0,1,0-10.6,8.66h0C55,65.9,65,66.22,62.3,64.52Z"/><path class="cls-2" d="M43,41.18V34A8.86,8.86,0,0,0,25.3,34v9.9h2.4V34a6.46,6.46,0,1,1,12.91,0v7.22c0,.64-4.17-4.1-4.17-4.1l-1.69,1.4,7.09,7.32,6.8-7.34L46.92,37.1S43,41.82,43,41.18Z"/></svg>