<svg xmlns="http://www.w3.org/2000/svg" xmlns:xlink="http://www.w3.org/1999/xlink" viewBox="0 0 172.68 47.41"><defs><style>.cls-1{fill:url(#未命名漸層_2);}.cls-2{fill:#006540;}.cls-3{fill:url(#未命名漸層_2-2);}.cls-4{fill:url(#未命名漸層_3);}.cls-5{fill:#006f4f;}.cls-6{fill:none;}</style><linearGradient id="未命名漸層_2" x1="-5378.73" y1="-3342.88" x2="-5355.83" y2="-3362.42" gradientTransform="matrix(-1, 0, 0, 1, -5338.83, 3389.95)" gradientUnits="userSpaceOnUse"><stop offset="0" stop-color="#ebf4e4"/><stop offset="0.08" stop-color="#bddfba"/><stop offset="0.17" stop-color="#91cb91"/><stop offset="0.22" stop-color="#80c381"/><stop offset="0.34" stop-color="#63ae73"/><stop offset="0.55" stop-color="#398f5d"/><stop offset="0.73" stop-color="#1a784d"/><stop offset="0.89" stop-color="#076a43"/><stop offset="1" stop-color="#006540"/></linearGradient><linearGradient id="未命名漸層_2-2" x1="7.38" y1="-27.88" x2="30.29" y2="-47.42" gradientTransform="matrix(1, 0, 0, -1, 0, -27.56)" xlink:href="#未命名漸層_2"/><linearGradient id="未命名漸層_3" x1="38.79" y1="-74.58" x2="11.98" y2="-33.19" gradientTransform="matrix(1, 0, 0, -1, 0, -27.56)" gradientUnits="userSpaceOnUse"><stop offset="0.18" stop-color="#004234"/><stop offset="0.27" stop-color="#0b5d45"/><stop offset="0.57" stop-color="#2db07a"/><stop offset="0.63" stop-color="#259c6d"/><stop offset="0.8" stop-color="#116b4e"/><stop offset="0.93" stop-color="#054d3b"/><stop offset="1" stop-color="#004234"/></linearGradient></defs><title>資產 1</title><g id="圖層_2" data-name="圖層 2"><g id="img"><path class="cls-1" d="M.44,28.39a2,2,0,0,1,1.32-1.91,2.3,2.3,0,0,1,1.71,0A2.22,2.22,0,0,1,4.55,27.6h0l.1.3a23.82,23.82,0,0,0,3.79,6.92l.42.52a23.88,23.88,0,0,0,5.79,5h.09l.12.08h0a.51.51,0,0,0,.65-.27.53.53,0,0,0,0-.39.44.44,0,0,0-.1-.16.71.71,0,0,0-.14-.1,23.76,23.76,0,0,1-5.55-5.68l-.36-.5a22,22,0,0,1-1.59-2.85h0c-.07-.14-.13-.27-.19-.41h0a2.13,2.13,0,0,1,1.2-2.65,2.27,2.27,0,0,1,1.06-.16,1.84,1.84,0,0,1,1.42.84,1.28,1.28,0,0,1,.11.2l.06.11.18.32h0l.58,1c.2.35.25.4.38.6A24.73,24.73,0,0,0,15,33.38a23.83,23.83,0,0,0,7.63,5.44h.22a.5.5,0,0,0,.61-.35.59.59,0,0,0-.1-.48h0l-.13-.07h0A23.68,23.68,0,0,1,15,30.4c-.1-.14-.2-.29-.29-.44a.61.61,0,0,1-.07-.1h0l-.24-.17h0c-.08-.12-.16-.25-.23-.38a2,2,0,0,1-.07-1.42,2.14,2.14,0,0,1,1.3-1.36l.3-.1a2.07,2.07,0,0,1,.5-.06,1.91,1.91,0,0,1,1.45.54c.17.19.31.41.47.61h0a15.45,15.45,0,0,0,1.22,1.41c.42.41.87.88,1.32,1.3s.93.81,1.41,1.19a12.84,12.84,0,0,0,1.48,1c.48.28,1,.61,1.45.9a12.05,12.05,0,0,0,1.33.69,24,24,0,0,0,4.43,1.62h0a18.25,18.25,0,0,0,2.75.51c.4,0,.81.08,1.22.09a14.71,14.71,0,0,0,1.88-.1,15.47,15.47,0,0,0,1.9-.35l.52-.15.26-.08c.07,0,.19-.09.26-.08h0a5.75,5.75,0,0,0,.66-.23l.3-.13c2.66-1.23,2.75-7,2.89-6.73a9.59,9.59,0,0,1,.43,5.94,15.4,15.4,0,0,1-2.52,5,21.4,21.4,0,0,1-3.1,3.14,24.14,24.14,0,0,1-4.94,2.94A23.69,23.69,0,0,1,2,33.26l0,0A19.36,19.36,0,0,1,.44,28.39Z"/><path class="cls-2" d="M47.36,24.36a2.14,2.14,0,1,1-2.1-2.18h0a2.13,2.13,0,0,1,2.09,2.17Z"/><path class="cls-2" d="M4.28,23a2.14,2.14,0,1,1-2.1-2.18h0A2.13,2.13,0,0,1,4.28,23Z"/><path class="cls-3" d="M46.86,19a2,2,0,0,1-1.31,1.91,2.3,2.3,0,0,1-1.71,0,2.18,2.18,0,0,1-1.08-1.12h0l-.1-.3a23.82,23.82,0,0,0-3.79-6.92L38.45,12a23.67,23.67,0,0,0-5.79-5l-.09,0a.2.2,0,0,0-.12-.08h0a.49.49,0,0,0-.65.27.53.53,0,0,0,0,.39.36.36,0,0,0,.11.16l.13.1a23.58,23.58,0,0,1,5.55,5.68c.14.19.27.39.4.58a23.24,23.24,0,0,1,1.58,2.85h0l.18.41h0A2.13,2.13,0,0,1,38.55,20a2.41,2.41,0,0,1-1.06.16,1.86,1.86,0,0,1-1.44-.81c0-.06-.07-.13-.11-.2L35.88,19a2,2,0,0,0-.18-.32h0c-.18-.33-.37-.65-.57-1l-.39-.6A24.49,24.49,0,0,0,24.67,8.65h-.09l-.13-.05a.49.49,0,0,0-.61.35.53.53,0,0,0,0,.33.65.65,0,0,0,.16.21h0a.47.47,0,0,0,.12.07h0a23.71,23.71,0,0,1,8.28,7.52c.1.14.19.29.29.44l.06.1h0a.36.36,0,0,1,.07.1h0c.08.12.15.25.22.38a1.94,1.94,0,0,1,.07,1.42,2.15,2.15,0,0,1-1.22,1.35l-.29.1a2.22,2.22,0,0,1-.51.06,2,2,0,0,1-1.45-.54c-.17-.19-.31-.41-.47-.61h0A15.45,15.45,0,0,0,28,18.47c-.42-.41-.86-.88-1.32-1.3s-.92-.81-1.41-1.19-1-.72-1.47-1.06-1-.6-1.45-.89A11.34,11.34,0,0,0,21,13.34a23.27,23.27,0,0,0-4.43-1.62h0a18.25,18.25,0,0,0-2.75-.51c-.41,0-.82-.08-1.22-.09a15,15,0,0,0-1.89.1,15.47,15.47,0,0,0-1.9.35l-.52.15L8,11.8c-.07,0-.19.09-.26.08h0a5.3,5.3,0,0,0-.67.23l-.3.13C4.14,13.53,4,19.32,3.92,19a9.67,9.67,0,0,1-.39-5.94,15,15,0,0,1,2.53-5A20,20,0,0,1,9.15,5a24.13,24.13,0,0,1,5-2.94A23.68,23.68,0,0,1,45.36,14.15h0A19.27,19.27,0,0,1,46.86,19Z"/><path class="cls-4" d="M43.66,29.55a5.77,5.77,0,0,0-1.2-2.92c-1.87-2.54-6.19-3.54-8.45-3.89a29.6,29.6,0,0,0-3.86-.43,22.72,22.72,0,0,0-3.5,0,13.74,13.74,0,0,1-4.29-.22c-3-.77-4.47-2.25-5.17-3.74a3.51,3.51,0,0,1,1.6-4.7l.1-.05A4,4,0,0,1,21,13.28c-.3-.15-.61-.29-.92-.42a23.7,23.7,0,0,0-3.35-1.16c-.37-.1-.75-.19-1.13-.27-3.53-.78-7.52-.53-9.81,1.34a5.7,5.7,0,0,0-1.94,3,5.2,5.2,0,0,0-.21,2,5.68,5.68,0,0,0,1.2,2.92c1.87,2.52,6.19,3.51,8.45,3.9a31.43,31.43,0,0,0,3.86.43,22.72,22.72,0,0,0,3.5,0,13.91,13.91,0,0,1,4.27.24c3,.77,4.47,2.25,5.17,3.74a3.52,3.52,0,0,1-1.6,4.71l-.1,0a4.79,4.79,0,0,1-2.21.38c.3.15.61.29.92.42a23.7,23.7,0,0,0,3.35,1.16c.37.1.75.19,1.13.27,3.53.78,7.6.47,9.89-1.41a5.74,5.74,0,0,0,1.94-3A5.39,5.39,0,0,0,43.66,29.55Z"/><path class="cls-5" d="M78.18,32.33a5.75,5.75,0,0,1-.44,2.28,5.11,5.11,0,0,1-3,2.87,6.6,6.6,0,0,1-2.29.39,6.48,6.48,0,0,1-2.27-.42,5.09,5.09,0,0,1-3-2.91,6.3,6.3,0,0,1,0-4.55,4.91,4.91,0,0,1,1.2-1.72,5.27,5.27,0,0,1,1.82-1.08,6.92,6.92,0,0,1,4.55,0,5.43,5.43,0,0,1,1.81,1.1,5,5,0,0,1,1.18,1.77A5.53,5.53,0,0,1,78.18,32.33Zm-2.71,0a3.3,3.3,0,0,0-.21-1.24,3.2,3.2,0,0,0-.61-1,2.89,2.89,0,0,0-2.16-1,3.21,3.21,0,0,0-2.22.89,2.89,2.89,0,0,0-.62,1,3.93,3.93,0,0,0,0,2.58,3.2,3.2,0,0,0,.61,1,2.73,2.73,0,0,0,.93.68,3,3,0,0,0,1.22.26,3.11,3.11,0,0,0,1.21-.24,2.84,2.84,0,0,0,1-.67,3.08,3.08,0,0,0,.63-1,3.71,3.71,0,0,0,.22-1.28Z"/><path class="cls-5" d="M121.48,32.33A6.07,6.07,0,0,1,121,34.6a5.29,5.29,0,0,1-1.21,1.75A5.19,5.19,0,0,1,118,37.47a6.32,6.32,0,0,1-2.28.39,6.26,6.26,0,0,1-2.27-.42,5.15,5.15,0,0,1-1.8-1.14,4.91,4.91,0,0,1-1.18-1.77,6,6,0,0,1-.42-2.28A5.7,5.7,0,0,1,110.5,30a5.31,5.31,0,0,1,1.21-1.72,5.13,5.13,0,0,1,1.81-1.08,6.31,6.31,0,0,1,2.28-.37,6.56,6.56,0,0,1,2.28.4,5.17,5.17,0,0,1,1.8,1.11,4.83,4.83,0,0,1,1.18,1.77A5.72,5.72,0,0,1,121.48,32.33Zm-2.71,0a4,4,0,0,0-.21-1.28,3.2,3.2,0,0,0-.61-1,2.74,2.74,0,0,0-1-.68,3,3,0,0,0-1.22-.25,2.94,2.94,0,0,0-1.21.24,2.82,2.82,0,0,0-1,.66,3.05,3.05,0,0,0-.62,1,3.69,3.69,0,0,0-.22,1.27,3.91,3.91,0,0,0,.21,1.31,3.2,3.2,0,0,0,.61,1,2.87,2.87,0,0,0,2.15.93,3.2,3.2,0,0,0,1.22-.24,2.84,2.84,0,0,0,1-.67,2.92,2.92,0,0,0,.63-1,3.69,3.69,0,0,0,.27-1.31Z"/><path class="cls-5" d="M171.17,13.55a1,1,0,0,1,0,2h-3.32v2.18h3.78a1.08,1.08,0,0,1,0,2.16h-6.13V9.46h5.94a1.05,1.05,0,0,1,1,1.08,1,1,0,0,1-1,1h-3.55v2Z"/><path class="cls-5" d="M64.29,13.55a1,1,0,0,1,0,2H61v2.18h3.78a1.08,1.08,0,0,1,0,2.16H58.62V9.46h5.94a1.05,1.05,0,0,1,1,1.08,1,1,0,0,1-1,1H61v2Z"/><path class="cls-5" d="M87.24,13.55a1,1,0,0,1,0,2H83.92v2.18H87.7a1.08,1.08,0,0,1,0,2.16H81.57V9.46H87.5a1.06,1.06,0,0,1,1,1.08,1,1,0,0,1-1,1H84v2Z"/><path class="cls-5" d="M95.9,12.66a1,1,0,0,0-.55-1,1.78,1.78,0,0,0-.55-.18,2.91,2.91,0,0,0-.59,0H92.86v2.44h1.85a2.11,2.11,0,0,0,.59-.18,1.16,1.16,0,0,0,.44-.38A1.09,1.09,0,0,0,95.9,12.66Zm-5.49-3.2h4a6.71,6.71,0,0,1,1.48.16,4,4,0,0,1,1.28.53,2.65,2.65,0,0,1,.9.95,3.08,3.08,0,0,1,.34,1.52,2.85,2.85,0,0,1-.55,1.78,3.13,3.13,0,0,1-1.61,1L97.83,18a1.2,1.2,0,0,1,.17.67,1.23,1.23,0,0,1-1.25,1.21h0a1.23,1.23,0,0,1-1.06-.64l-1.9-3.5h-.85v3a1.24,1.24,0,0,1-1.26,1.21,1.29,1.29,0,0,1-1.21-1.33Z"/><path class="cls-5" d="M150.85,12.25l-1.29,3.57h2.6l-1.31-3.57Zm0-2.79a1.83,1.83,0,0,1,1.69,1.1l3.21,7.62h0a1,1,0,0,1,.09.43,1.26,1.26,0,0,1-1.23,1.29h0a1.33,1.33,0,0,1-1.25-.81c-.12-.32-.49-1.26-.49-1.26h-4.06l-.45,1.26a1.25,1.25,0,0,1-1.2.82,1.27,1.27,0,0,1-1.23-1.29,1,1,0,0,1,.09-.43h0l3.21-7.62A1.86,1.86,0,0,1,150.85,9.46Z"/><path class="cls-5" d="M104.05,12.25l-1.29,3.57h2.6L104,12.25Zm0-2.79a1.84,1.84,0,0,1,1.7,1.1L109,18.18h0a1.57,1.57,0,0,1,.09.43,1.27,1.27,0,0,1-1.23,1.29,1.34,1.34,0,0,1-1.27-.79c-.12-.32-.49-1.26-.49-1.26h-4l-.5,1.24a1.27,1.27,0,0,1-1.21.82,1.29,1.29,0,0,1-1.22-1.34,1.23,1.23,0,0,1,.08-.38h0l3.22-7.62A1.85,1.85,0,0,1,104.05,9.46Z"/><path class="cls-5" d="M159.58,19.89a1.73,1.73,0,0,0,1.64-1.17l2.87-7.48h0A1.28,1.28,0,0,0,163,9.46h-.06a1.3,1.3,0,0,0-1.23.93h0l-2.08,6.48h0l-2.11-6.48h0a1.31,1.31,0,0,0-2.56.35,1.08,1.08,0,0,0,.09.5h0l2.87,7.48A1.85,1.85,0,0,0,159.58,19.89Z"/><path class="cls-5" d="M115.87,17.7A1.11,1.11,0,0,1,117,18.83a1.06,1.06,0,0,1-1.12,1h-5.47V10.71a1.27,1.27,0,0,1,2.53-.17.81.81,0,0,1,0,.22v6.93Z"/><path class="cls-5" d="M85,35.44a1.1,1.1,0,1,1,0,2.2H79.5l.06-9.23a1.28,1.28,0,1,1,2.55-.16.81.81,0,0,1,0,.22h0v7h3Z"/><path class="cls-5" d="M102,36.26v-7h1.88a1.06,1.06,0,0,0,1.06-1.06h0a1.09,1.09,0,0,0-1.08-1.1H97.62a1.09,1.09,0,0,0-1.11,1.07h0a1.06,1.06,0,0,0,1,1.07h1.9v7a1.26,1.26,0,1,0,2.52,0h0Z"/><path class="cls-5" d="M108.47,28.38a1.28,1.28,0,1,0-2.55-.17.81.81,0,0,0,0,.22v7.81a1.28,1.28,0,0,0,1.14,1.41,1.29,1.29,0,0,0,1.41-1.14V28.38Z"/><path class="cls-5" d="M125.51,30.74h-.05l.05,5.62a1.19,1.19,0,0,1-1.18,1.2h0a1.24,1.24,0,0,1-1.22-1.26h0V28.94A1.87,1.87,0,0,1,125,27.09h0a1.89,1.89,0,0,1,1.46.84l3.67,6h0v-5.6a1.22,1.22,0,0,1,1.22-1.24h0a1.19,1.19,0,0,1,1.15,1.23v7.39h0a1.84,1.84,0,0,1-1.87,1.81h0a1.8,1.8,0,0,1-1.47-.84Z"/><path class="cls-5" d="M139.07,12.82h0l-1.66,5.84h0a1.65,1.65,0,0,1-3.19,0L132,11.09a.63.63,0,0,0,0-.3,1.23,1.23,0,0,1,1.18-1.28h0a1.31,1.31,0,0,1,1.29.92l1.47,6h0l1.51-5.64A1.69,1.69,0,0,1,139,9.49a1.71,1.71,0,0,1,1.68,1.3l1.52,5.64h0l1.47-6a1.25,1.25,0,0,1,1.23-.92,1.22,1.22,0,0,1,1.2,1.26v0a1.57,1.57,0,0,1-.05.3l-2.18,7.61a1.65,1.65,0,0,1-3.19,0h0L139,12.86h0Z"/><path class="cls-5" d="M73.36,19.89a1.27,1.27,0,0,0,1.15-.8l2.41-6.56h0v6.21a1.28,1.28,0,0,0,1.31,1.17,1.19,1.19,0,0,0,1.13-1.25h0V11.53a2.05,2.05,0,0,0-2-2.07h0a2.21,2.21,0,0,0-2,1.39h0l-1.8,5.29H73.4l-1.88-5.29h0a2.17,2.17,0,0,0-2-1.39,2.06,2.06,0,0,0-2.1,2v7.18a1.19,1.19,0,0,0,1.16,1.22h0a1.18,1.18,0,0,0,1.2-1.16h0V12.5h0l2.36,6.59a1.3,1.3,0,0,0,1.22.8"/><path class="cls-5" d="M121.92,9.46a9.41,9.41,0,0,1,2.18.25,5.45,5.45,0,0,1,1.92.86,4.27,4.27,0,0,1,1.35,1.6,5.41,5.41,0,0,1,.52,2.47,5.1,5.1,0,0,1-.51,2.36A4.84,4.84,0,0,1,126,18.64a5.73,5.73,0,0,1-1.88.94,7.59,7.59,0,0,1-2.12.3h-2.68a1.25,1.25,0,0,1-1.22-1.28h0V10.74a1.25,1.25,0,0,1,1.22-1.28h2.56Zm3.34,5.18a3.35,3.35,0,0,0-.28-1.47,2.45,2.45,0,0,0-.77-.92,3,3,0,0,0-1.09-.5,4.87,4.87,0,0,0-1.26-.14h-1.25V17.7h1.19a5.79,5.79,0,0,0,1.31-.15,3.16,3.16,0,0,0,1.1-.51,2.6,2.6,0,0,0,.77-.94A3.34,3.34,0,0,0,125.26,14.64Z"/><path class="cls-5" d="M91.05,37.83a5.16,5.16,0,0,0,1.86-.31,4,4,0,0,0,1.4-.86,4,4,0,0,0,.88-1.33,4.75,4.75,0,0,0,.31-1.67V28.43a1.3,1.3,0,0,0-1.25-1.3A1.27,1.27,0,0,0,93,28.42h0v5a3.88,3.88,0,0,1-.11.75,2.22,2.22,0,0,1-.34.69,1.59,1.59,0,0,1-.61.48,2.46,2.46,0,0,1-1.81,0,1.56,1.56,0,0,1-.6-.48,2,2,0,0,1-.34-.69,2.72,2.72,0,0,1-.11-.75v-5a1.27,1.27,0,0,0-1.24-1.3h0a1.29,1.29,0,0,0-1.25,1.3v5.23a4.33,4.33,0,0,0,.3,1.67,3.84,3.84,0,0,0,.89,1.33,3.9,3.9,0,0,0,1.4.86,5.29,5.29,0,0,0,1.85.31Z"/><path class="cls-5" d="M58.52,36.19a1.14,1.14,0,0,1,1.13-1.1,1.1,1.1,0,0,1,.65.21l.3.17a2.81,2.81,0,0,0,1.24.31,2.57,2.57,0,0,0,.55-.06,1.1,1.1,0,0,0,.46-.19,1,1,0,0,0,.44-.88.8.8,0,0,0-.15-.5,1.69,1.69,0,0,0-.42-.38,3.47,3.47,0,0,0-.68-.31l-.92-.3a9.32,9.32,0,0,1-1-.38,3.51,3.51,0,0,1-.85-.57,2.78,2.78,0,0,1-.61-.84,2.94,2.94,0,0,1-.2-1.28,2.88,2.88,0,0,1,.35-1.49,3.07,3.07,0,0,1,.93-1A3.71,3.71,0,0,1,61,27.09a5.57,5.57,0,0,1,1.46-.19,5.32,5.32,0,0,1,1.81.33l.33.13a1.09,1.09,0,0,1,.57,1.44,1.1,1.1,0,0,1-1,.67,1.21,1.21,0,0,1-.58-.16l-.17-.09a2.45,2.45,0,0,0-1-.24A2.18,2.18,0,0,0,62,29a1.28,1.28,0,0,0-.46.17,1,1,0,0,0-.35.33A.81.81,0,0,0,61,30a.88.88,0,0,0,.11.45,1.05,1.05,0,0,0,.32.31,4,4,0,0,0,.51.24l.66.23,1.11.39a4.27,4.27,0,0,1,1,.56,3,3,0,0,1,.79.88,2.57,2.57,0,0,1,.3,1.3,3.5,3.5,0,0,1-.33,1.56A3.09,3.09,0,0,1,64.58,37a3.65,3.65,0,0,1-1.28.63,5.36,5.36,0,0,1-1.49.21,6.12,6.12,0,0,1-2.16-.39,4.91,4.91,0,0,1-.57-.25A1.11,1.11,0,0,1,58.52,36.19Z"/><path class="cls-5" d="M134.07,36.19a1.14,1.14,0,0,1,1.14-1.1,1.07,1.07,0,0,1,.64.21l.3.17a2.85,2.85,0,0,0,1.25.31,2.48,2.48,0,0,0,.54-.06,1.29,1.29,0,0,0,.47-.19,1,1,0,0,0,.31-.35,1.08,1.08,0,0,0,.12-.53.8.8,0,0,0-.15-.5,1.18,1.18,0,0,0-.42-.38,3.39,3.39,0,0,0-.67-.31l-.92-.3a8.58,8.58,0,0,1-1-.38,3.78,3.78,0,0,1-.86-.57,2.49,2.49,0,0,1-.6-.84,2.92,2.92,0,0,1-.23-1.2,2.83,2.83,0,0,1,1.28-2.49,3.81,3.81,0,0,1,1.3-.58,5.57,5.57,0,0,1,1.46-.19,5.31,5.31,0,0,1,1.8.33l.34.13a1.09,1.09,0,0,1-.43,2.1h0a1.14,1.14,0,0,1-.57-.16l-.18-.09a2.45,2.45,0,0,0-1-.24,2.17,2.17,0,0,0-.51,0,1.5,1.5,0,0,0-.46.17,1.1,1.1,0,0,0-.35.33.81.81,0,0,0-.14.5.88.88,0,0,0,.11.45,1.22,1.22,0,0,0,.33.31,4,4,0,0,0,.51.24l.66.23,1.1.39a3.94,3.94,0,0,1,1,.56,3.13,3.13,0,0,1,.78.88,2.48,2.48,0,0,1,.31,1.3,3.5,3.5,0,0,1-.33,1.56,3.21,3.21,0,0,1-.89,1.08,3.65,3.65,0,0,1-1.28.63,5.36,5.36,0,0,1-1.49.21,6.17,6.17,0,0,1-2.17-.39,5.62,5.62,0,0,1-.56-.25A1.09,1.09,0,0,1,134.07,36.19Z"/><rect class="cls-6" x="79.38" y="18.16" width="1.93" height="1.93"/><rect class="cls-6" x="88.88" y="18.36" width="1.53" height="1.53"/><rect class="cls-6" x="116.95" y="18.62" width="1.02" height="1.02"/><rect class="cls-6" x="97.94" y="18.62" width="1.02" height="1.02"/><rect class="cls-6" x="109.05" y="18.55" width="1.17" height="1.17"/><rect class="cls-6" x="65.74" y="18.36" width="1.53" height="1.53"/><rect class="cls-6" x="155.84" y="18.36" width="1.53" height="1.53"/><rect class="cls-6" x="144.05" y="18.36" width="1.53" height="1.53"/><rect class="cls-6" x="164.19" y="19.38" width="0.51" height="0.51"/></g></g></svg>